<svg width="207" height="36" viewBox="0 0 207 36" fill="none" xmlns="http://www.w3.org/2000/svg">
<rect x="0.898876" y="1.5206" width="32.9588" height="32.9588" rx="16.4794" stroke="#687AF6" stroke-width="1.79775"/>
<path d="M16.8412 13.9419C16.8412 13.9419 24.235 12.7577 25.7245 19.2097C27.2141 25.6617 20.0495 27.8385 20.0495 27.8385L16.8412 13.9419Z" fill="#687AF6"/>
<path d="M14.4346 8.22435C14.4346 8.22435 7.59155 10.551 9.7195 19.7681C11.8474 28.9853 19.0178 28.0767 19.0178 28.0767L14.4346 8.22435Z" fill="#687AF6"/>
<path d="M41.4316 22.3834V5.76315C41.4316 5.29933 41.758 5.06742 42.4108 5.06742C42.6684 5.06742 42.8832 5.12754 43.055 5.24779C43.2439 5.36804 43.3384 5.53983 43.3384 5.76315V7.12884C44.5753 5.73738 46.1385 5.04165 48.0281 5.04165C49.2994 5.04165 50.3902 5.38522 51.3007 6.07236C52.2111 6.7595 52.6663 7.71291 52.6663 8.93259C52.6663 9.68844 52.4602 10.4443 52.0479 11.2002C51.6528 11.9388 51.0258 12.4456 50.1669 12.7204C51.7988 12.9781 53.0443 13.588 53.9032 14.55C54.7793 15.512 55.2174 16.5427 55.2174 17.6421C55.2174 19.3428 54.6676 20.7514 53.5682 21.868C52.4688 22.9846 50.7509 23.5429 48.4147 23.5429C46.4048 23.5429 44.6955 23.2423 43.2869 22.641C43.1323 22.9503 42.8316 23.1049 42.385 23.1049C41.7494 23.1049 41.4316 22.8644 41.4316 22.3834ZM43.3384 20.76C44.4378 21.3441 46.044 21.6361 48.157 21.6361C49.9092 21.6361 51.2062 21.2839 52.0479 20.5796C52.8897 19.8581 53.3105 18.9734 53.3105 17.9255C53.3105 16.7059 52.7866 15.7954 51.7387 15.1942C50.6908 14.5757 49.3079 14.2665 47.5901 14.2665C47.0576 14.2665 46.2931 14.2837 45.2968 14.3181C44.3004 14.3352 43.6476 14.3438 43.3384 14.3438V20.76ZM43.3384 12.2566C44.0255 12.3425 44.79 12.3855 45.6317 12.3855C47.2465 12.3855 48.5005 12.0591 49.3938 11.4063C50.3043 10.7363 50.7595 9.95471 50.7595 9.06142C50.7595 8.32275 50.5104 7.77303 50.0123 7.41229C49.5141 7.05154 48.8527 6.87116 48.0281 6.87116C47.0661 6.87116 46.1643 7.10307 45.3225 7.56689C44.4808 8.03071 43.8194 8.75221 43.3384 9.73139V12.2566ZM58.1338 22.3834V4.47476C58.1338 4.01094 58.4602 3.77903 59.113 3.77903C59.3707 3.77903 59.5854 3.83915 59.7572 3.9594C59.9462 4.07965 60.0406 4.25144 60.0406 4.47476V22.3834C60.0406 22.6067 59.9462 22.7871 59.7572 22.9245C59.5682 23.0447 59.3449 23.1049 59.0872 23.1049C58.4516 23.1049 58.1338 22.8644 58.1338 22.3834ZM63.4405 17.8482C63.4405 17.6936 63.4405 16.9292 63.4405 15.5549C63.4576 14.1634 63.4662 12.626 63.4662 10.9425C63.4662 10.7192 63.5607 10.5474 63.7497 10.4271C63.9386 10.2897 64.162 10.221 64.4196 10.221C65.0552 10.221 65.373 10.4615 65.373 10.9425V17.6163C65.373 18.836 65.8025 19.7894 66.6614 20.4766C67.5375 21.1465 68.4394 21.4815 69.367 21.4815C70.5352 21.4815 71.7806 21.0606 73.1034 20.2189C74.4433 19.36 75.3709 18.2949 75.8863 17.0237V10.9167C75.8863 10.4529 76.2127 10.221 76.8655 10.221C77.1232 10.221 77.3379 10.2811 77.5097 10.4013C77.6986 10.5216 77.7931 10.6934 77.7931 10.9167V22.4091C77.7931 22.6325 77.6986 22.8042 77.5097 22.9245C77.3379 23.0447 77.1232 23.1049 76.8655 23.1049C76.2127 23.1049 75.8863 22.873 75.8863 22.4091V20.2962C75.0274 21.241 73.9967 21.9883 72.7942 22.538C71.6088 23.0877 70.3892 23.3625 69.1351 23.3625C67.5204 23.3625 66.1633 22.8472 65.0638 21.8165C63.9816 20.7858 63.4405 19.463 63.4405 17.8482ZM80.7957 16.3022C80.7957 15.2027 81.0362 14.2236 81.5172 13.3646C81.9982 12.5057 82.6338 11.8272 83.4241 11.329C84.2143 10.8308 85.0646 10.4615 85.9751 10.221C86.8855 9.9633 87.8132 9.83446 88.758 9.83446C90.4415 9.83446 91.7471 10.2038 92.6747 10.9425C93.6023 11.664 94.0662 12.5573 94.0662 13.6223C94.0662 14.7733 93.525 15.7525 92.4428 16.5599C91.3605 17.3672 89.8231 17.7709 87.8304 17.7709C86.0438 17.7709 84.3431 17.5133 82.7283 16.9979C82.9173 18.2691 83.51 19.3342 84.5063 20.1931C85.5027 21.052 86.7309 21.4815 88.1911 21.4815C88.9641 21.4815 89.7629 21.3612 90.5875 21.1207C91.4293 20.8803 92.0906 20.5367 92.5716 20.09C92.6403 19.9526 92.7778 19.8839 92.9839 19.8839C93.2244 19.8839 93.4821 19.9956 93.7569 20.2189C94.0318 20.425 94.1692 20.6398 94.1692 20.8631C93.7398 21.7392 92.898 22.3834 91.644 22.7957C90.4071 23.1908 89.2046 23.3883 88.0365 23.3883C85.9235 23.3883 84.1885 22.6926 82.8314 21.3011C81.4743 19.9097 80.7957 18.2433 80.7957 16.3022ZM82.8314 15.0138C84.1198 15.5807 85.7174 15.8641 87.6242 15.8641C89.1187 15.8641 90.2525 15.6322 91.0256 15.1684C91.7986 14.6874 92.1851 14.1549 92.1851 13.5708C92.1851 13.0554 91.8587 12.626 91.2059 12.2824C90.5703 11.9216 89.6169 11.7413 88.3457 11.7413C86.9714 11.7413 85.8205 12.0505 84.8928 12.6689C83.9824 13.2702 83.2952 14.0518 82.8314 15.0138ZM97.527 22.3834V5.76315C97.527 5.53983 97.6558 5.35945 97.9135 5.22202C98.1883 5.06742 98.489 4.99011 98.8154 4.99011C99.1761 4.99011 99.4166 5.09318 99.5369 5.29933L105.618 14.2923L111.725 5.29933C111.845 5.09318 112.06 4.99011 112.369 4.99011C112.678 4.99011 112.979 5.06742 113.271 5.22202C113.563 5.37663 113.709 5.557 113.709 5.76315V22.3834C113.709 22.6067 113.615 22.7871 113.426 22.9245C113.237 23.0447 113.013 23.1049 112.756 23.1049C112.12 23.1049 111.802 22.8644 111.802 22.3834V8.54607L107.113 15.3488C106.7 15.95 106.194 16.2506 105.592 16.2506C105.043 16.2506 104.553 15.95 104.124 15.3488L99.4338 8.54607V22.3834C99.4338 22.6067 99.3393 22.7871 99.1503 22.9245C98.9614 23.0447 98.7381 23.1049 98.4804 23.1049C97.8448 23.1049 97.527 22.8644 97.527 22.3834ZM117.059 16.7145C117.059 15.2371 117.446 13.9659 118.219 12.9008C119.009 11.8186 119.954 11.037 121.053 10.556C122.17 10.075 123.338 9.83446 124.558 9.83446C126.276 9.83446 127.856 10.4872 129.299 11.7928C130.759 13.0812 131.489 14.7132 131.489 16.6887C131.489 18.5611 130.845 20.1673 129.557 21.5073C128.268 22.83 126.585 23.4914 124.506 23.4914C122.462 23.4914 120.71 22.83 119.25 21.5073C117.79 20.1673 117.059 18.5697 117.059 16.7145ZM118.966 16.7402C118.966 17.9599 119.525 19.0765 120.641 20.09C121.758 21.0864 123.055 21.5846 124.532 21.5846C125.924 21.5846 127.109 21.0778 128.088 20.0643C129.084 19.0507 129.583 17.9255 129.583 16.6887C129.583 15.4862 129.11 14.361 128.165 13.3131C127.221 12.2652 126.001 11.7413 124.506 11.7413C122.754 11.7413 121.388 12.2738 120.409 13.3389C119.447 14.4039 118.966 15.5377 118.966 16.7402ZM134.487 22.4349V10.9167C134.487 10.6934 134.573 10.5216 134.745 10.4013C134.934 10.2811 135.157 10.221 135.415 10.221C136.068 10.221 136.394 10.4529 136.394 10.9167V12.9524C137.253 12.0247 138.292 11.2946 139.512 10.7621C140.732 10.2124 141.969 9.93753 143.223 9.93753C144.837 9.93753 146.186 10.4443 147.268 11.4578C148.368 12.4542 148.917 13.7598 148.917 15.3745C148.917 15.5291 148.909 16.3194 148.892 17.7452C148.892 19.1538 148.892 20.6999 148.892 22.3834C148.892 22.6067 148.797 22.7871 148.608 22.9245C148.419 23.0447 148.196 23.1049 147.938 23.1049C147.303 23.1049 146.985 22.8644 146.985 22.3834V15.6064C146.985 14.3868 146.547 13.4505 145.671 12.7978C144.812 12.145 143.918 11.8186 142.991 11.8186C141.737 11.8186 140.448 12.2395 139.126 13.0812C137.82 13.9058 136.91 14.9537 136.394 16.2249V22.4349C136.394 22.8987 136.068 23.1306 135.415 23.1306C135.157 23.1306 134.934 23.0705 134.745 22.9503C134.573 22.83 134.487 22.6582 134.487 22.4349ZM151.764 20.6569C151.764 20.4336 151.858 20.1931 152.047 19.9354C152.253 19.6778 152.485 19.5146 152.743 19.4458C152.863 19.4458 152.923 19.463 152.923 19.4974C153.473 20.0986 154.263 20.571 155.294 20.9146C156.324 21.241 157.132 21.43 157.716 21.4815C158.317 21.533 158.875 21.5588 159.391 21.5588C161.624 21.5588 162.741 20.8803 162.741 19.5231C162.741 19.0593 162.569 18.69 162.225 18.4151C161.899 18.1231 161.444 17.9255 160.86 17.8225C160.293 17.7194 159.717 17.6507 159.133 17.6163C158.549 17.582 157.913 17.5562 157.226 17.539C156.539 17.5047 156.015 17.4531 155.655 17.3844C154.675 17.1955 153.808 16.8004 153.052 16.1991C152.296 15.5807 151.918 14.8592 151.918 14.0346C151.918 12.729 152.571 11.7327 153.877 11.0455C155.199 10.3412 156.651 9.98906 158.231 9.98906C159.296 9.98906 160.439 10.178 161.658 10.556C162.878 10.9167 163.789 11.4836 164.39 12.2566C164.407 12.291 164.416 12.3339 164.416 12.3855C164.416 12.6088 164.312 12.8751 164.106 13.1843C163.9 13.4763 163.703 13.6223 163.514 13.6223C163.342 13.6223 163.17 13.4849 162.998 13.21C162.174 12.3339 160.533 11.8959 158.077 11.8959C157.063 11.8959 156.101 12.0677 155.191 12.4112C154.28 12.7548 153.825 13.2616 153.825 13.9315C153.825 14.4984 154.22 14.9279 155.01 15.2199C155.801 15.4948 156.642 15.6322 157.536 15.6322C158.171 15.6322 158.704 15.6408 159.133 15.658C159.563 15.6752 160.087 15.7267 160.705 15.8126C161.323 15.8813 161.839 16.0101 162.251 16.1991C162.663 16.3709 163.067 16.6028 163.462 16.8948C163.857 17.1697 164.149 17.5476 164.338 18.0286C164.544 18.4924 164.647 19.0421 164.647 19.6778C164.647 20.5539 164.373 21.2925 163.823 21.8938C163.29 22.4779 162.672 22.8815 161.968 23.1049C161.28 23.3454 160.55 23.4656 159.777 23.4656C156.153 23.4656 153.542 22.6926 151.944 21.1465C151.824 21.0263 151.764 20.8631 151.764 20.6569ZM166.856 11.1744C166.856 10.9167 166.916 10.6934 167.036 10.5044C167.174 10.3155 167.354 10.221 167.577 10.221H168.454V7.05154C168.454 6.82822 168.539 6.65643 168.711 6.53618C168.9 6.41593 169.123 6.35581 169.381 6.35581C170.034 6.35581 170.36 6.58772 170.36 7.05154V10.221H174.483C174.707 10.221 174.878 10.3155 174.999 10.5044C175.119 10.6762 175.179 10.8909 175.179 11.1486C175.179 11.8014 174.947 12.1278 174.483 12.1278H170.36V18.2863C170.36 20.2103 171.09 21.1723 172.551 21.1723C173.169 21.1723 173.702 21.0005 174.148 20.6569C174.612 20.3134 174.844 19.7121 174.844 18.8532C174.844 18.6127 174.938 18.4151 175.127 18.2605C175.334 18.1059 175.574 18.0286 175.849 18.0286C176.107 18.0286 176.321 18.1059 176.493 18.2605C176.665 18.398 176.751 18.6041 176.751 18.879C176.734 20.2361 176.321 21.2754 175.514 21.9969C174.724 22.7184 173.736 23.0791 172.551 23.0791C169.819 23.0791 168.454 21.2496 168.454 17.5906V12.1278H167.577C167.096 12.1278 166.856 11.81 166.856 11.1744ZM178.641 16.3022C178.641 15.2027 178.881 14.2236 179.362 13.3646C179.843 12.5057 180.479 11.8272 181.269 11.329C182.059 10.8308 182.909 10.4615 183.82 10.221C184.73 9.9633 185.658 9.83446 186.603 9.83446C188.286 9.83446 189.592 10.2038 190.52 10.9425C191.447 11.664 191.911 12.5573 191.911 13.6223C191.911 14.7733 191.37 15.7525 190.288 16.5599C189.205 17.3672 187.668 17.7709 185.675 17.7709C183.889 17.7709 182.188 17.5133 180.573 16.9979C180.762 18.2691 181.355 19.3342 182.351 20.1931C183.347 21.052 184.576 21.4815 186.036 21.4815C186.809 21.4815 187.608 21.3612 188.432 21.1207C189.274 20.8803 189.935 20.5367 190.416 20.09C190.485 19.9526 190.623 19.8839 190.829 19.8839C191.069 19.8839 191.327 19.9956 191.602 20.2189C191.877 20.425 192.014 20.6398 192.014 20.8631C191.585 21.7392 190.743 22.3834 189.489 22.7957C188.252 23.1908 187.049 23.3883 185.881 23.3883C183.768 23.3883 182.033 22.6926 180.676 21.3011C179.319 19.9097 178.641 18.2433 178.641 16.3022ZM180.676 15.0138C181.965 15.5807 183.562 15.8641 185.469 15.8641C186.964 15.8641 188.097 15.6322 188.87 15.1684C189.643 14.6874 190.03 14.1549 190.03 13.5708C190.03 13.0554 189.704 12.626 189.051 12.2824C188.415 11.9216 187.462 11.7413 186.191 11.7413C184.816 11.7413 183.665 12.0505 182.738 12.6689C181.827 13.2702 181.14 14.0518 180.676 15.0138ZM195.011 22.3834V10.9682C195.011 10.5044 195.337 10.2725 195.99 10.2725C196.248 10.2725 196.463 10.3326 196.634 10.4529C196.823 10.5731 196.918 10.7449 196.918 10.9682V14.1892C197.571 12.7806 198.292 11.7155 199.082 10.994C199.89 10.2725 200.955 9.91176 202.278 9.91176C203.205 9.91176 204.141 10.032 205.086 10.2725C205.584 10.513 205.833 10.8394 205.833 11.2517C205.833 11.5437 205.773 11.7499 205.653 11.8701C205.533 11.9904 205.335 12.0677 205.06 12.102C204.184 11.8959 203.471 11.7928 202.922 11.7928C201.651 11.7928 200.491 12.4198 199.443 13.6739C198.395 14.9279 197.553 16.5599 196.918 18.5697V22.3834C196.918 22.6067 196.823 22.7871 196.634 22.9245C196.445 23.0447 196.222 23.1049 195.964 23.1049C195.329 23.1049 195.011 22.8644 195.011 22.3834Z" fill="#687AF6"/>
<path d="M43.9618 31.7041L43.5434 30.5162H41.9077L41.4893 31.7041H40.749L42.3408 27.4087H43.1191L44.7079 31.7041H43.9618ZM43.362 29.9134L42.9552 28.743C42.9396 28.6923 42.9172 28.6211 42.888 28.5294C42.8587 28.4357 42.8294 28.3411 42.8002 28.2456C42.7709 28.148 42.7465 28.0661 42.727 27.9998C42.7075 28.0797 42.6831 28.1695 42.6539 28.269C42.6266 28.3665 42.5992 28.4582 42.5719 28.544C42.5466 28.6298 42.5271 28.6962 42.5134 28.743L42.1038 29.9134H43.362ZM47.9578 29.3809H49.5554V31.5286C49.3311 31.6027 49.099 31.6602 48.859 31.7012C48.6191 31.7422 48.3499 31.7626 48.0515 31.7626C47.6165 31.7626 47.2478 31.6768 46.9454 31.5052C46.645 31.3315 46.4168 31.0809 46.2607 30.7532C46.1047 30.4235 46.0266 30.0265 46.0266 29.5623C46.0266 29.1156 46.1135 28.7283 46.2871 28.4006C46.4607 28.071 46.7133 27.8164 47.0449 27.6369C47.3765 27.4555 47.7784 27.3648 48.2504 27.3648C48.4826 27.3648 48.7069 27.3882 48.9234 27.435C49.1419 27.4799 49.3418 27.5423 49.5233 27.6223L49.2775 28.2017C49.1331 28.1334 48.9712 28.0758 48.7917 28.029C48.6123 27.9822 48.426 27.9588 48.2329 27.9588C47.9266 27.9588 47.6623 28.0251 47.4399 28.1578C47.2195 28.2904 47.0498 28.4777 46.9308 28.7196C46.8118 28.9595 46.7523 29.2433 46.7523 29.571C46.7523 29.889 46.8001 30.168 46.8957 30.4079C46.9913 30.6478 47.1405 30.8351 47.3434 30.9697C47.5482 31.1023 47.8125 31.1687 48.1363 31.1687C48.2982 31.1687 48.4357 31.1599 48.5489 31.1423C48.662 31.1248 48.7664 31.1053 48.862 31.0838V29.9807H47.9578V29.3809ZM53.9611 31.7041H51.5383V27.4263H53.9611V28.0173H52.2406V29.179H53.8528V29.7671H52.2406V31.1101H53.9611V31.7041ZM53.1857 26.0715C53.2384 26.1612 53.3086 26.2607 53.3964 26.37C53.4861 26.4792 53.5788 26.5865 53.6744 26.6918C53.7719 26.7952 53.8577 26.884 53.9318 26.9581V27.0313H53.4637C53.3583 26.9649 53.2462 26.8859 53.1272 26.7942C53.0101 26.7006 52.8999 26.6001 52.7965 26.4929C52.6912 26.6001 52.581 26.6996 52.4659 26.7913C52.3528 26.883 52.2445 26.963 52.1411 27.0313H51.6759V26.9581C51.75 26.882 51.8349 26.7923 51.9304 26.6889C52.026 26.5855 52.1177 26.4792 52.2055 26.37C52.2933 26.2607 52.3635 26.1612 52.4162 26.0715H53.1857ZM59.4143 31.7041H58.5511L56.4561 28.2894H56.4297C56.4375 28.4045 56.4444 28.5265 56.4502 28.6552C56.458 28.7839 56.4639 28.9166 56.4678 29.0531C56.4736 29.1897 56.4785 29.3282 56.4824 29.4686V31.7041H55.8445V27.4263H56.7019L58.794 30.8175H58.8144C58.8105 30.718 58.8057 30.6039 58.7998 30.4752C58.794 30.3464 58.7881 30.2138 58.7823 30.0772C58.7784 29.9387 58.7754 29.8051 58.7735 29.6764V27.4263H59.4143V31.7041ZM63.3196 27.9617C63.1148 27.9617 62.9314 27.9988 62.7695 28.0729C62.6095 28.147 62.474 28.2543 62.3628 28.3948C62.2516 28.5333 62.1667 28.702 62.1082 28.901C62.0497 29.098 62.0204 29.3204 62.0204 29.5681C62.0204 29.8997 62.0673 30.1855 62.1609 30.4254C62.2545 30.6634 62.3969 30.8468 62.5881 30.9755C62.7793 31.1023 63.0211 31.1657 63.3137 31.1657C63.4952 31.1657 63.6717 31.1482 63.8434 31.1131C64.015 31.078 64.1925 31.0302 64.3759 30.9697V31.5666C64.2023 31.6349 64.0267 31.6846 63.8492 31.7158C63.6717 31.747 63.4669 31.7626 63.2347 31.7626C62.7978 31.7626 62.435 31.6719 62.1463 31.4905C61.8595 31.3091 61.6449 31.0536 61.5025 30.7239C61.3621 30.3942 61.2919 30.008 61.2919 29.5652C61.2919 29.2414 61.3367 28.9449 61.4265 28.6757C61.5162 28.4065 61.6469 28.1744 61.8185 27.9793C61.9902 27.7823 62.2019 27.6311 62.4535 27.5258C62.7071 27.4185 62.9968 27.3648 63.3225 27.3648C63.5371 27.3648 63.7478 27.3892 63.9545 27.438C64.1633 27.4848 64.3564 27.5521 64.5339 27.6399L64.2881 28.2192C64.1399 28.149 63.9848 28.0885 63.8229 28.0378C63.661 27.9871 63.4932 27.9617 63.3196 27.9617ZM66.2535 31.7041V27.4263H66.9557V31.7041H66.2535ZM71.6949 31.7041L71.2765 30.5162H69.6409L69.2225 31.7041H68.4822L70.0739 27.4087H70.8523L72.4411 31.7041H71.6949ZM71.0951 29.9134L70.6884 28.743C70.6728 28.6923 70.6504 28.6211 70.6211 28.5294C70.5918 28.4357 70.5626 28.3411 70.5333 28.2456C70.5041 28.148 70.4797 28.0661 70.4602 27.9998C70.4407 28.0797 70.4163 28.1695 70.387 28.269C70.3597 28.3665 70.3324 28.4582 70.3051 28.544C70.2797 28.6298 70.2602 28.6962 70.2466 28.743L69.8369 29.9134H71.0951ZM79.9533 29.5242C79.9533 30.006 79.8635 30.4089 79.6841 30.7327C79.5046 31.0545 79.2442 31.2974 78.9028 31.4613C78.5614 31.6232 78.1498 31.7041 77.668 31.7041H76.4801V27.4263H77.7968C78.2396 27.4263 78.6219 27.5062 78.9438 27.6662C79.2656 27.8242 79.5144 28.0593 79.6899 28.3714C79.8655 28.6815 79.9533 29.0658 79.9533 29.5242ZM79.2218 29.5447C79.2218 29.1936 79.1662 28.9049 79.055 28.6786C78.9457 28.4523 78.7838 28.2846 78.5692 28.1753C78.3566 28.0641 78.0943 28.0085 77.7821 28.0085H77.1823V31.116H77.6797C78.1967 31.116 78.5829 30.9843 78.8384 30.721C79.094 30.4576 79.2218 30.0655 79.2218 29.5447ZM84.2565 31.7041H81.8338V27.4263H84.2565V28.0173H82.536V29.179H84.1482V29.7671H82.536V31.1101H84.2565V31.7041ZM92.1286 29.5242C92.1286 30.006 92.0389 30.4089 91.8594 30.7327C91.6799 31.0545 91.4195 31.2974 91.0781 31.4613C90.7368 31.6232 90.3252 31.7041 89.8434 31.7041H88.6554V27.4263H89.9721C90.4149 27.4263 90.7972 27.5062 91.1191 27.6662C91.441 27.8242 91.6897 28.0593 91.8652 28.3714C92.0408 28.6815 92.1286 29.0658 92.1286 29.5242ZM91.3971 29.5447C91.3971 29.1936 91.3415 28.9049 91.2303 28.6786C91.1211 28.4523 90.9591 28.2846 90.7446 28.1753C90.5319 28.0641 90.2696 28.0085 89.9575 28.0085H89.3576V31.116H89.8551C90.372 31.116 90.7582 30.9843 91.0138 30.721C91.2693 30.4576 91.3971 30.0655 91.3971 29.5447ZM96.4318 31.7041H94.0091V27.4263H96.4318V28.0173H94.7113V29.179H96.3236V29.7671H94.7113V31.1101H96.4318V31.7041ZM100.785 30.5396C100.785 30.7932 100.722 31.0116 100.598 31.195C100.475 31.3784 100.297 31.5188 100.065 31.6163C99.8349 31.7139 99.5598 31.7626 99.2399 31.7626C99.0838 31.7626 98.9346 31.7539 98.7922 31.7363C98.6498 31.7188 98.5152 31.6934 98.3884 31.6602C98.2636 31.6251 98.1495 31.5832 98.0461 31.5344V30.8731C98.2197 30.9492 98.4138 31.0185 98.6284 31.0809C98.8429 31.1413 99.0614 31.1716 99.2838 31.1716C99.4652 31.1716 99.6154 31.1482 99.7344 31.1014C99.8553 31.0526 99.9451 30.9843 100.004 30.8965C100.062 30.8068 100.091 30.7024 100.091 30.5835C100.091 30.4567 100.057 30.3494 99.989 30.2616C99.9207 30.1738 99.8173 30.0938 99.6788 30.0217C99.5422 29.9475 99.3706 29.8685 99.1638 29.7846C99.0234 29.7281 98.8888 29.6637 98.76 29.5915C98.6332 29.5194 98.5201 29.4345 98.4206 29.337C98.3211 29.2394 98.2421 29.1243 98.1836 28.9917C98.127 28.8571 98.0987 28.6991 98.0987 28.5177C98.0987 28.2758 98.1563 28.069 98.2714 27.8974C98.3884 27.7257 98.5523 27.594 98.7629 27.5023C98.9756 27.4107 99.2233 27.3648 99.5062 27.3648C99.7305 27.3648 99.9412 27.3882 100.138 27.435C100.337 27.4819 100.532 27.5482 100.723 27.634L100.501 28.1987C100.325 28.1266 100.155 28.069 99.989 28.0261C99.8251 27.9832 99.6573 27.9617 99.4857 27.9617C99.3374 27.9617 99.2116 27.9842 99.1082 28.029C99.0048 28.0739 98.9258 28.1373 98.8712 28.2192C98.8185 28.2992 98.7922 28.3948 98.7922 28.506C98.7922 28.6308 98.8224 28.7362 98.8829 28.822C98.9453 28.9059 99.0409 28.9829 99.1697 29.0531C99.3004 29.1234 99.4681 29.2014 99.6729 29.2872C99.909 29.3848 100.109 29.4872 100.273 29.5945C100.439 29.7017 100.565 29.8305 100.653 29.9807C100.741 30.1289 100.785 30.3152 100.785 30.5396ZM102.569 31.7041V27.4263H103.271V31.7041H102.569ZM107.086 29.3809H108.683V31.5286C108.459 31.6027 108.227 31.6602 107.987 31.7012C107.747 31.7422 107.478 31.7626 107.179 31.7626C106.744 31.7626 106.376 31.6768 106.073 31.5052C105.773 31.3315 105.545 31.0809 105.389 30.7532C105.232 30.4235 105.154 30.0265 105.154 29.5623C105.154 29.1156 105.241 28.7283 105.415 28.4006C105.588 28.071 105.841 27.8164 106.173 27.6369C106.504 27.4555 106.906 27.3648 107.378 27.3648C107.61 27.3648 107.835 27.3882 108.051 27.435C108.27 27.4799 108.47 27.5423 108.651 27.6223L108.405 28.2017C108.261 28.1334 108.099 28.0758 107.92 28.029C107.74 27.9822 107.554 27.9588 107.361 27.9588C107.054 27.9588 106.79 28.0251 106.568 28.1578C106.347 28.2904 106.178 28.4777 106.059 28.7196C105.94 28.9595 105.88 29.2433 105.88 29.571C105.88 29.889 105.928 30.168 106.023 30.4079C106.119 30.6478 106.268 30.8351 106.471 30.9697C106.676 31.1023 106.94 31.1687 107.264 31.1687C107.426 31.1687 107.564 31.1599 107.677 31.1423C107.79 31.1248 107.894 31.1053 107.99 31.0838V29.9807H107.086V29.3809ZM114.236 31.7041H113.373L111.278 28.2894H111.251C111.259 28.4045 111.266 28.5265 111.272 28.6552C111.28 28.7839 111.285 28.9166 111.289 29.0531C111.295 29.1897 111.3 29.3282 111.304 29.4686V31.7041H110.666V27.4263H111.523L113.616 30.8175H113.636C113.632 30.718 113.627 30.6039 113.621 30.4752C113.616 30.3464 113.61 30.2138 113.604 30.0772C113.6 29.9387 113.597 29.8051 113.595 29.6764V27.4263H114.236V31.7041ZM120.112 27.3619C120.333 27.3619 120.526 27.398 120.692 27.4702C120.86 27.5423 120.99 27.6477 121.084 27.7862C121.178 27.9227 121.224 28.0895 121.224 28.2865C121.224 28.5499 121.142 28.7722 120.979 28.9537C120.815 29.1351 120.608 29.297 120.358 29.4394L121.368 30.4225C121.463 30.2918 121.542 30.1484 121.605 29.9924C121.667 29.8344 121.721 29.6686 121.766 29.495H122.477C122.416 29.7369 122.332 29.9758 122.225 30.2118C122.118 30.4459 121.982 30.6605 121.818 30.8556L122.687 31.7041H121.807L121.374 31.2798C121.253 31.3774 121.123 31.4622 120.984 31.5344C120.848 31.6066 120.699 31.6632 120.537 31.7041C120.375 31.7431 120.196 31.7626 120.001 31.7626C119.703 31.7626 119.445 31.7148 119.229 31.6193C119.012 31.5237 118.845 31.3871 118.728 31.2096C118.613 31.0302 118.556 30.8175 118.556 30.5717C118.556 30.3669 118.59 30.1914 118.658 30.0451C118.728 29.8968 118.828 29.7671 118.957 29.6559C119.085 29.5428 119.239 29.4355 119.419 29.334C119.321 29.2228 119.237 29.1146 119.164 29.0092C119.092 28.9039 119.037 28.7956 118.998 28.6845C118.961 28.5713 118.942 28.4504 118.942 28.3216C118.942 28.1227 118.991 27.952 119.088 27.8096C119.186 27.6652 119.322 27.555 119.498 27.4789C119.674 27.4009 119.878 27.3619 120.112 27.3619ZM119.826 29.7525C119.713 29.8246 119.615 29.8978 119.533 29.9719C119.451 30.0441 119.388 30.1241 119.343 30.2118C119.3 30.2996 119.279 30.402 119.279 30.5191C119.279 30.72 119.349 30.879 119.489 30.996C119.632 31.1131 119.815 31.1716 120.039 31.1716C120.236 31.1716 120.409 31.1423 120.557 31.0838C120.707 31.0233 120.838 30.9482 120.949 30.8585L119.826 29.7525ZM120.101 27.9061C119.962 27.9061 119.842 27.9422 119.741 28.0144C119.641 28.0866 119.592 28.1987 119.592 28.3509C119.592 28.4738 119.624 28.5898 119.688 28.6991C119.754 28.8064 119.846 28.9224 119.963 29.0473C120.168 28.9341 120.32 28.823 120.42 28.7137C120.521 28.6045 120.572 28.4777 120.572 28.3333C120.572 28.1968 120.526 28.0914 120.434 28.0173C120.343 27.9432 120.231 27.9061 120.101 27.9061ZM130.211 29.5242C130.211 30.006 130.121 30.4089 129.942 30.7327C129.763 31.0545 129.502 31.2974 129.161 31.4613C128.819 31.6232 128.408 31.7041 127.926 31.7041H126.738V27.4263H128.055C128.498 27.4263 128.88 27.5062 129.202 27.6662C129.524 27.8242 129.772 28.0593 129.948 28.3714C130.123 28.6815 130.211 29.0658 130.211 29.5242ZM129.48 29.5447C129.48 29.1936 129.424 28.9049 129.313 28.6786C129.204 28.4523 129.042 28.2846 128.827 28.1753C128.615 28.0641 128.352 28.0085 128.04 28.0085H127.44V31.116H127.938C128.455 31.116 128.841 30.9843 129.096 30.721C129.352 30.4576 129.48 30.0655 129.48 29.5447ZM134.514 31.7041H132.092V27.4263H134.514V28.0173H132.794V29.179H134.406V29.7671H132.794V31.1101H134.514V31.7041ZM138.867 30.5396C138.867 30.7932 138.805 31.0116 138.68 31.195C138.557 31.3784 138.38 31.5188 138.148 31.6163C137.917 31.7139 137.642 31.7626 137.323 31.7626C137.166 31.7626 137.017 31.7539 136.875 31.7363C136.732 31.7188 136.598 31.6934 136.471 31.6602C136.346 31.6251 136.232 31.5832 136.129 31.5344V30.8731C136.302 30.9492 136.496 31.0185 136.711 31.0809C136.926 31.1413 137.144 31.1716 137.366 31.1716C137.548 31.1716 137.698 31.1482 137.817 31.1014C137.938 31.0526 138.028 30.9843 138.086 30.8965C138.145 30.8068 138.174 30.7024 138.174 30.5835C138.174 30.4567 138.14 30.3494 138.072 30.2616C138.003 30.1738 137.9 30.0938 137.761 30.0217C137.625 29.9475 137.453 29.8685 137.246 29.7846C137.106 29.7281 136.971 29.6637 136.843 29.5915C136.716 29.5194 136.603 29.4345 136.503 29.337C136.404 29.2394 136.325 29.1243 136.266 28.9917C136.21 28.8571 136.181 28.6991 136.181 28.5177C136.181 28.2758 136.239 28.069 136.354 27.8974C136.471 27.7257 136.635 27.594 136.846 27.5023C137.058 27.4107 137.306 27.3648 137.589 27.3648C137.813 27.3648 138.024 27.3882 138.221 27.435C138.42 27.4819 138.615 27.5482 138.806 27.634L138.584 28.1987C138.408 28.1266 138.237 28.069 138.072 28.0261C137.908 27.9832 137.74 27.9617 137.568 27.9617C137.42 27.9617 137.294 27.9842 137.191 28.029C137.087 28.0739 137.008 28.1373 136.954 28.2192C136.901 28.2992 136.875 28.3948 136.875 28.506C136.875 28.6308 136.905 28.7362 136.966 28.822C137.028 28.9059 137.124 28.9829 137.252 29.0531C137.383 29.1234 137.551 29.2014 137.756 29.2872C137.992 29.3848 138.192 29.4872 138.355 29.5945C138.521 29.7017 138.648 29.8305 138.736 29.9807C138.824 30.1289 138.867 30.3152 138.867 30.5396ZM143.074 31.7041H140.651V27.4263H143.074V28.0173H141.354V29.179H142.966V29.7671H141.354V31.1101H143.074V31.7041ZM148.527 31.7041H147.664L145.569 28.2894H145.543C145.551 28.4045 145.557 28.5265 145.563 28.6552C145.571 28.7839 145.577 28.9166 145.581 29.0531C145.587 29.1897 145.592 29.3282 145.595 29.4686V31.7041H144.958V27.4263H145.815L147.907 30.8175H147.928C147.924 30.718 147.919 30.6039 147.913 30.4752C147.907 30.3464 147.901 30.2138 147.895 30.0772C147.891 29.9387 147.888 29.8051 147.887 29.6764V27.4263H148.527V31.7041ZM153.782 27.4263L152.286 31.7041H151.543L150.048 27.4263H150.768L151.669 30.1065C151.696 30.1845 151.726 30.2791 151.757 30.3903C151.79 30.5015 151.82 30.6137 151.847 30.7268C151.877 30.84 151.899 30.9404 151.915 31.0282C151.93 30.9404 151.952 30.84 151.979 30.7268C152.008 30.6137 152.039 30.5015 152.07 30.3903C152.101 30.2791 152.13 30.1836 152.158 30.1036L153.062 27.4263H153.782ZM159.1 29.5593C159.1 29.889 159.058 30.1894 158.974 30.4606C158.892 30.7298 158.769 30.9619 158.603 31.157C158.437 31.3501 158.229 31.4993 157.979 31.6046C157.73 31.71 157.437 31.7626 157.102 31.7626C156.76 31.7626 156.464 31.71 156.212 31.6046C155.962 31.4993 155.755 31.3491 155.589 31.154C155.425 30.959 155.302 30.7259 155.22 30.4547C155.138 30.1836 155.097 29.8832 155.097 29.5535C155.097 29.1126 155.17 28.7283 155.314 28.4006C155.46 28.071 155.682 27.8154 155.978 27.634C156.277 27.4506 156.653 27.359 157.108 27.359C157.552 27.359 157.922 27.4497 158.216 27.6311C158.511 27.8125 158.731 28.068 158.878 28.3977C159.026 28.7254 159.1 29.1126 159.1 29.5593ZM155.835 29.5593C155.835 29.889 155.88 30.1748 155.969 30.4167C156.059 30.6566 156.197 30.8419 156.382 30.9726C156.569 31.1014 156.809 31.1657 157.102 31.1657C157.396 31.1657 157.636 31.1014 157.821 30.9726C158.007 30.8419 158.143 30.6566 158.231 30.4167C158.319 30.1748 158.363 29.889 158.363 29.5593C158.363 29.058 158.262 28.6659 158.061 28.3831C157.862 28.0983 157.544 27.9559 157.108 27.9559C156.815 27.9559 156.574 28.0202 156.385 28.149C156.198 28.2777 156.059 28.4621 155.969 28.702C155.88 28.94 155.835 29.2258 155.835 29.5593ZM160.978 31.7041V27.4263H161.68V31.1072H163.497V31.7041H160.978ZM168.368 27.4263L166.873 31.7041H166.13L164.634 27.4263H165.354L166.255 30.1065C166.283 30.1845 166.312 30.2791 166.343 30.3903C166.376 30.5015 166.407 30.6137 166.434 30.7268C166.463 30.84 166.486 30.9404 166.501 31.0282C166.517 30.9404 166.538 30.84 166.565 30.7268C166.595 30.6137 166.625 30.5015 166.656 30.3903C166.687 30.2791 166.717 30.1836 166.744 30.1036L167.648 27.4263H168.368ZM169.889 31.7041V27.4263H170.591V31.7041H169.889ZM174.525 31.7041L173.293 28.1314H173.267C173.273 28.2114 173.28 28.3207 173.288 28.4592C173.295 28.5977 173.302 28.7459 173.308 28.9039C173.314 29.0619 173.317 29.2131 173.317 29.3574V31.7041H172.679V27.4263H173.665L174.85 30.8409H174.868L176.094 27.4263H177.077V31.7041H176.407V29.3223C176.407 29.1916 176.409 29.0502 176.413 28.8981C176.418 28.7459 176.424 28.6016 176.43 28.465C176.438 28.3285 176.444 28.2192 176.448 28.1373H176.424L175.146 31.7041H174.525ZM181.585 31.7041H179.162V27.4263H181.585V28.0173H179.864V29.179H181.477V29.7671H179.864V31.1101H181.585V31.7041ZM187.038 31.7041H186.175L184.08 28.2894H184.054C184.061 28.4045 184.068 28.5265 184.074 28.6552C184.082 28.7839 184.088 28.9166 184.092 29.0531C184.097 29.1897 184.102 29.3282 184.106 29.4686V31.7041H183.468V27.4263H184.326L186.418 30.8175H186.438C186.434 30.718 186.429 30.6039 186.424 30.4752C186.418 30.3464 186.412 30.2138 186.406 30.0772C186.402 29.9387 186.399 29.8051 186.397 29.6764V27.4263H187.038V31.7041ZM190.604 31.7041H189.899V28.0232H188.646V27.4263H191.853V28.0232H190.604V31.7041ZM197.266 29.5593C197.266 29.889 197.224 30.1894 197.14 30.4606C197.058 30.7298 196.934 30.9619 196.768 31.157C196.602 31.3501 196.395 31.4993 196.145 31.6046C195.895 31.71 195.603 31.7626 195.267 31.7626C194.926 31.7626 194.629 31.71 194.378 31.6046C194.128 31.4993 193.92 31.3491 193.754 31.154C193.591 30.959 193.468 30.7259 193.386 30.4547C193.304 30.1836 193.263 29.8832 193.263 29.5535C193.263 29.1126 193.335 28.7283 193.479 28.4006C193.626 28.071 193.847 27.8154 194.144 27.634C194.442 27.4506 194.819 27.359 195.273 27.359C195.718 27.359 196.087 27.4497 196.382 27.6311C196.677 27.8125 196.897 28.068 197.043 28.3977C197.192 28.7254 197.266 29.1126 197.266 29.5593ZM194 29.5593C194 29.889 194.045 30.1748 194.135 30.4167C194.225 30.6566 194.362 30.8419 194.547 30.9726C194.735 31.1014 194.975 31.1657 195.267 31.1657C195.562 31.1657 195.802 31.1014 195.987 30.9726C196.172 30.8419 196.309 30.6566 196.397 30.4167C196.484 30.1748 196.528 29.889 196.528 29.5593C196.528 29.058 196.428 28.6659 196.227 28.3831C196.028 28.0983 195.71 27.9559 195.273 27.9559C194.98 27.9559 194.739 28.0202 194.55 28.149C194.363 28.2777 194.225 28.4621 194.135 28.702C194.045 28.94 194 29.2258 194 29.5593Z" fill="#687AF6"/>
</svg>
