<svg width="207" height="35" viewBox="0 0 207 35" fill="none" xmlns="http://www.w3.org/2000/svg">
<rect x="0.898876" y="1.10688" width="32.9588" height="32.9588" rx="16.4794" stroke="white" stroke-width="1.79775"/>
<path d="M16.8412 13.5283C16.8412 13.5283 24.235 12.3441 25.7245 18.7961C27.2141 25.2481 20.0495 27.425 20.0495 27.425L16.8412 13.5283Z" fill="white"/>
<path d="M14.4346 7.81055C14.4346 7.81055 7.59155 10.1372 9.7195 19.3543C11.8474 28.5715 19.0178 27.6629 19.0178 27.6629L14.4346 7.81055Z" fill="white"/>
<path d="M41.4316 21.9694V5.34919C41.4316 4.88537 41.758 4.65346 42.4108 4.65346C42.6684 4.65346 42.8832 4.71359 43.055 4.83384C43.2439 4.95409 43.3384 5.12587 43.3384 5.34919V6.71489C44.5753 5.32343 46.1385 4.6277 48.0281 4.6277C49.2994 4.6277 50.3902 4.97127 51.3007 5.65841C52.2111 6.34555 52.6663 7.29896 52.6663 8.51863C52.6663 9.27449 52.4602 10.0303 52.0479 10.7862C51.6528 11.5249 51.0258 12.0316 50.1669 12.3065C51.7988 12.5642 53.0443 13.174 53.9032 14.136C54.7793 15.098 55.2174 16.1287 55.2174 17.2281C55.2174 18.9288 54.6676 20.3375 53.5682 21.4541C52.4688 22.5707 50.7509 23.129 48.4147 23.129C46.4048 23.129 44.6955 22.8283 43.2869 22.2271C43.1323 22.5363 42.8316 22.6909 42.385 22.6909C41.7494 22.6909 41.4316 22.4504 41.4316 21.9694ZM43.3384 20.346C44.4378 20.9301 46.044 21.2222 48.157 21.2222C49.9092 21.2222 51.2062 20.87 52.0479 20.1657C52.8897 19.4442 53.3105 18.5595 53.3105 17.5116C53.3105 16.2919 52.7866 15.3815 51.7387 14.7802C50.6908 14.1618 49.3079 13.8526 47.5901 13.8526C47.0576 13.8526 46.2931 13.8697 45.2968 13.9041C44.3004 13.9213 43.6476 13.9299 43.3384 13.9299V20.346ZM43.3384 11.8427C44.0255 11.9286 44.79 11.9715 45.6317 11.9715C47.2465 11.9715 48.5005 11.6451 49.3938 10.9923C50.3043 10.3224 50.7595 9.54076 50.7595 8.64747C50.7595 7.9088 50.5104 7.35908 50.0123 6.99833C49.5141 6.63758 48.8527 6.45721 48.0281 6.45721C47.0661 6.45721 46.1643 6.68912 45.3225 7.15294C44.4808 7.61676 43.8194 8.33826 43.3384 9.31743V11.8427ZM58.1338 21.9694V4.0608C58.1338 3.59698 58.4602 3.36507 59.113 3.36507C59.3707 3.36507 59.5854 3.4252 59.7572 3.54545C59.9462 3.6657 60.0406 3.83748 60.0406 4.0608V21.9694C60.0406 22.1927 59.9462 22.3731 59.7572 22.5105C59.5682 22.6308 59.3449 22.6909 59.0872 22.6909C58.4516 22.6909 58.1338 22.4504 58.1338 21.9694ZM63.4405 17.4343C63.4405 17.2797 63.4405 16.5152 63.4405 15.141C63.4576 13.7495 63.4662 12.212 63.4662 10.5285C63.4662 10.3052 63.5607 10.1334 63.7497 10.0132C63.9386 9.87574 64.162 9.80702 64.4196 9.80702C65.0552 9.80702 65.373 10.0475 65.373 10.5285V17.2024C65.373 18.4221 65.8025 19.3755 66.6614 20.0626C67.5375 20.7326 68.4394 21.0675 69.367 21.0675C70.5352 21.0675 71.7806 20.6467 73.1034 19.8049C74.4433 18.946 75.3709 17.8809 75.8863 16.6097V10.5028C75.8863 10.0389 76.2127 9.80702 76.8655 9.80702C77.1232 9.80702 77.3379 9.86715 77.5097 9.9874C77.6986 10.1076 77.7931 10.2794 77.7931 10.5028V21.9952C77.7931 22.2185 77.6986 22.3903 77.5097 22.5105C77.3379 22.6308 77.1232 22.6909 76.8655 22.6909C76.2127 22.6909 75.8863 22.459 75.8863 21.9952V19.8822C75.0274 20.827 73.9967 21.5743 72.7942 22.124C71.6088 22.6737 70.3892 22.9486 69.1351 22.9486C67.5204 22.9486 66.1633 22.4332 65.0638 21.4025C63.9816 20.3718 63.4405 19.0491 63.4405 17.4343ZM80.7957 15.8882C80.7957 14.7888 81.0362 13.8096 81.5172 12.9507C81.9982 12.0918 82.6338 11.4132 83.4241 10.915C84.2143 10.4169 85.0646 10.0475 85.9751 9.80702C86.8855 9.54934 87.8132 9.42051 88.758 9.42051C90.4415 9.42051 91.7471 9.78984 92.6747 10.5285C93.6023 11.25 94.0662 12.1433 94.0662 13.2084C94.0662 14.3593 93.525 15.3385 92.4428 16.1459C91.3605 16.9533 89.8231 17.357 87.8304 17.357C86.0438 17.357 84.3431 17.0993 82.7283 16.584C82.9173 17.8552 83.51 18.9202 84.5063 19.7792C85.5027 20.6381 86.7309 21.0675 88.1911 21.0675C88.9641 21.0675 89.7629 20.9473 90.5875 20.7068C91.4293 20.4663 92.0906 20.1227 92.5716 19.6761C92.6403 19.5387 92.7778 19.4699 92.9839 19.4699C93.2244 19.4699 93.4821 19.5816 93.7569 19.8049C94.0318 20.0111 94.1692 20.2258 94.1692 20.4491C93.7398 21.3252 92.898 21.9694 91.644 22.3817C90.4071 22.7768 89.2046 22.9744 88.0365 22.9744C85.9235 22.9744 84.1885 22.2786 82.8314 20.8872C81.4743 19.4957 80.7957 17.8294 80.7957 15.8882ZM82.8314 14.5998C84.1198 15.1667 85.7174 15.4502 87.6242 15.4502C89.1187 15.4502 90.2525 15.2183 91.0256 14.7544C91.7986 14.2734 92.1851 13.7409 92.1851 13.1568C92.1851 12.6415 91.8587 12.212 91.2059 11.8684C90.5703 11.5077 89.6169 11.3273 88.3457 11.3273C86.9714 11.3273 85.8205 11.6365 84.8928 12.255C83.9824 12.8562 83.2952 13.6378 82.8314 14.5998ZM97.527 21.9694V5.34919C97.527 5.12587 97.6558 4.9455 97.9135 4.80807C98.1883 4.65346 98.489 4.57616 98.8154 4.57616C99.1761 4.57616 99.4166 4.67923 99.5369 4.88537L105.618 13.8783L111.725 4.88537C111.845 4.67923 112.06 4.57616 112.369 4.57616C112.678 4.57616 112.979 4.65346 113.271 4.80807C113.563 4.96268 113.709 5.14305 113.709 5.34919V21.9694C113.709 22.1927 113.615 22.3731 113.426 22.5105C113.237 22.6308 113.013 22.6909 112.756 22.6909C112.12 22.6909 111.802 22.4504 111.802 21.9694V8.13212L107.113 14.9348C106.7 15.5361 106.194 15.8367 105.592 15.8367C105.043 15.8367 104.553 15.5361 104.124 14.9348L99.4338 8.13212V21.9694C99.4338 22.1927 99.3393 22.3731 99.1503 22.5105C98.9614 22.6308 98.7381 22.6909 98.4804 22.6909C97.8448 22.6909 97.527 22.4504 97.527 21.9694ZM117.059 16.3005C117.059 14.8232 117.446 13.5519 118.219 12.4869C119.009 11.4046 119.954 10.623 121.053 10.142C122.17 9.661 123.338 9.42051 124.558 9.42051C126.276 9.42051 127.856 10.0733 129.299 11.3789C130.759 12.6672 131.489 14.2992 131.489 16.2747C131.489 18.1472 130.845 19.7534 129.557 21.0933C128.268 22.4161 126.585 23.0774 124.506 23.0774C122.462 23.0774 120.71 22.4161 119.25 21.0933C117.79 19.7534 117.059 18.1558 117.059 16.3005ZM118.966 16.3263C118.966 17.5459 119.525 18.6626 120.641 19.6761C121.758 20.6724 123.055 21.1706 124.532 21.1706C125.924 21.1706 127.109 20.6639 128.088 19.6503C129.084 18.6368 129.583 17.5116 129.583 16.2747C129.583 15.0722 129.11 13.947 128.165 12.8992C127.221 11.8513 126.001 11.3273 124.506 11.3273C122.754 11.3273 121.388 11.8599 120.409 12.9249C119.447 13.99 118.966 15.1238 118.966 16.3263ZM134.487 22.021V10.5028C134.487 10.2794 134.573 10.1076 134.745 9.9874C134.934 9.86715 135.157 9.80702 135.415 9.80702C136.068 9.80702 136.394 10.0389 136.394 10.5028V12.5384C137.253 11.6108 138.292 10.8807 139.512 10.3481C140.732 9.79843 141.969 9.52358 143.223 9.52358C144.837 9.52358 146.186 10.0303 147.268 11.0439C148.368 12.0402 148.917 13.3458 148.917 14.9606C148.917 15.1152 148.909 15.9054 148.892 17.3312C148.892 18.7399 148.892 20.2859 148.892 21.9694C148.892 22.1927 148.797 22.3731 148.608 22.5105C148.419 22.6308 148.196 22.6909 147.938 22.6909C147.303 22.6909 146.985 22.4504 146.985 21.9694V15.1925C146.985 13.9728 146.547 13.0366 145.671 12.3838C144.812 11.731 143.918 11.4046 142.991 11.4046C141.737 11.4046 140.448 11.8255 139.126 12.6672C137.82 13.4918 136.91 14.5397 136.394 15.8109V22.021C136.394 22.4848 136.068 22.7167 135.415 22.7167C135.157 22.7167 134.934 22.6566 134.745 22.5363C134.573 22.4161 134.487 22.2443 134.487 22.021ZM151.764 20.243C151.764 20.0197 151.858 19.7792 152.047 19.5215C152.253 19.2638 152.485 19.1006 152.743 19.0319C152.863 19.0319 152.923 19.0491 152.923 19.0834C153.473 19.6847 154.263 20.1571 155.294 20.5007C156.324 20.827 157.132 21.016 157.716 21.0675C158.317 21.1191 158.875 21.1449 159.391 21.1449C161.624 21.1449 162.741 20.4663 162.741 19.1092C162.741 18.6454 162.569 18.276 162.225 18.0012C161.899 17.7091 161.444 17.5116 160.86 17.4085C160.293 17.3054 159.717 17.2367 159.133 17.2024C158.549 17.168 157.913 17.1423 157.226 17.1251C156.539 17.0907 156.015 17.0392 155.655 16.9705C154.675 16.7815 153.808 16.3864 153.052 15.7852C152.296 15.1667 151.918 14.4452 151.918 13.6207C151.918 12.3151 152.571 11.3187 153.877 10.6316C155.199 9.92727 156.651 9.57511 158.231 9.57511C159.296 9.57511 160.439 9.76408 161.658 10.142C162.878 10.5028 163.789 11.0696 164.39 11.8427C164.407 11.877 164.416 11.92 164.416 11.9715C164.416 12.1948 164.312 12.4611 164.106 12.7703C163.9 13.0624 163.703 13.2084 163.514 13.2084C163.342 13.2084 163.17 13.0709 162.998 12.7961C162.174 11.92 160.533 11.4819 158.077 11.4819C157.063 11.4819 156.101 11.6537 155.191 11.9973C154.28 12.3409 153.825 12.8476 153.825 13.5176C153.825 14.0845 154.22 14.5139 155.01 14.806C155.801 15.0808 156.642 15.2183 157.536 15.2183C158.171 15.2183 158.704 15.2268 159.133 15.244C159.563 15.2612 160.087 15.3127 160.705 15.3986C161.323 15.4673 161.839 15.5962 162.251 15.7852C162.663 15.9569 163.067 16.1888 163.462 16.4809C163.857 16.7557 164.149 17.1337 164.338 17.6147C164.544 18.0785 164.647 18.6282 164.647 19.2638C164.647 20.1399 164.373 20.8786 163.823 21.4798C163.29 22.0639 162.672 22.4676 161.968 22.6909C161.28 22.9314 160.55 23.0517 159.777 23.0517C156.153 23.0517 153.542 22.2786 151.944 20.7326C151.824 20.6123 151.764 20.4491 151.764 20.243ZM166.856 10.7604C166.856 10.5028 166.916 10.2794 167.036 10.0905C167.174 9.9015 167.354 9.80702 167.577 9.80702H168.454V6.63758C168.454 6.41426 168.539 6.24248 168.711 6.12223C168.9 6.00198 169.123 5.94185 169.381 5.94185C170.034 5.94185 170.36 6.17376 170.36 6.63758V9.80702H174.483C174.707 9.80702 174.878 9.9015 174.999 10.0905C175.119 10.2623 175.179 10.477 175.179 10.7347C175.179 11.3874 174.947 11.7138 174.483 11.7138H170.36V17.8723C170.36 19.7963 171.09 20.7583 172.551 20.7583C173.169 20.7583 173.702 20.5865 174.148 20.243C174.612 19.8994 174.844 19.2982 174.844 18.4392C174.844 18.1987 174.938 18.0012 175.127 17.8466C175.334 17.692 175.574 17.6147 175.849 17.6147C176.107 17.6147 176.321 17.692 176.493 17.8466C176.665 17.984 176.751 18.1901 176.751 18.465C176.734 19.8221 176.321 20.8614 175.514 21.5829C174.724 22.3044 173.736 22.6652 172.551 22.6652C169.819 22.6652 168.454 20.8356 168.454 17.1766V11.7138H167.577C167.096 11.7138 166.856 11.396 166.856 10.7604ZM178.641 15.8882C178.641 14.7888 178.881 13.8096 179.362 12.9507C179.843 12.0918 180.479 11.4132 181.269 10.915C182.059 10.4169 182.909 10.0475 183.82 9.80702C184.73 9.54934 185.658 9.42051 186.603 9.42051C188.286 9.42051 189.592 9.78984 190.52 10.5285C191.447 11.25 191.911 12.1433 191.911 13.2084C191.911 14.3593 191.37 15.3385 190.288 16.1459C189.205 16.9533 187.668 17.357 185.675 17.357C183.889 17.357 182.188 17.0993 180.573 16.584C180.762 17.8552 181.355 18.9202 182.351 19.7792C183.347 20.6381 184.576 21.0675 186.036 21.0675C186.809 21.0675 187.608 20.9473 188.432 20.7068C189.274 20.4663 189.935 20.1227 190.416 19.6761C190.485 19.5387 190.623 19.4699 190.829 19.4699C191.069 19.4699 191.327 19.5816 191.602 19.8049C191.877 20.0111 192.014 20.2258 192.014 20.4491C191.585 21.3252 190.743 21.9694 189.489 22.3817C188.252 22.7768 187.049 22.9744 185.881 22.9744C183.768 22.9744 182.033 22.2786 180.676 20.8872C179.319 19.4957 178.641 17.8294 178.641 15.8882ZM180.676 14.5998C181.965 15.1667 183.562 15.4502 185.469 15.4502C186.964 15.4502 188.097 15.2183 188.87 14.7544C189.643 14.2734 190.03 13.7409 190.03 13.1568C190.03 12.6415 189.704 12.212 189.051 11.8684C188.415 11.5077 187.462 11.3273 186.191 11.3273C184.816 11.3273 183.665 11.6365 182.738 12.255C181.827 12.8562 181.14 13.6378 180.676 14.5998ZM195.011 21.9694V10.5543C195.011 10.0905 195.337 9.85856 195.99 9.85856C196.248 9.85856 196.463 9.91868 196.634 10.0389C196.823 10.1592 196.918 10.331 196.918 10.5543V13.7753C197.571 12.3666 198.292 11.3016 199.082 10.5801C199.89 9.85856 200.955 9.49781 202.278 9.49781C203.205 9.49781 204.141 9.61806 205.086 9.85856C205.584 10.0991 205.833 10.4254 205.833 10.8377C205.833 11.1298 205.773 11.3359 205.653 11.4562C205.533 11.5764 205.335 11.6537 205.06 11.6881C204.184 11.4819 203.471 11.3789 202.922 11.3789C201.651 11.3789 200.491 12.0059 199.443 13.2599C198.395 14.5139 197.553 16.1459 196.918 18.1558V21.9694C196.918 22.1927 196.823 22.3731 196.634 22.5105C196.445 22.6308 196.222 22.6909 195.964 22.6909C195.329 22.6909 195.011 22.4504 195.011 21.9694Z" fill="white"/>
<path d="M43.9618 31.29L43.5434 30.1021H41.9077L41.4893 31.29H40.749L42.3408 26.9946H43.1191L44.7079 31.29H43.9618ZM43.362 29.4993L42.9552 28.3289C42.9396 28.2782 42.9172 28.207 42.888 28.1153C42.8587 28.0217 42.8294 27.9271 42.8002 27.8315C42.7709 27.7339 42.7465 27.652 42.727 27.5857C42.7075 27.6657 42.6831 27.7554 42.6539 27.8549C42.6266 27.9524 42.5992 28.0441 42.5719 28.1299C42.5466 28.2158 42.5271 28.2821 42.5134 28.3289L42.1038 29.4993H43.362ZM47.9578 28.9668H49.5554V31.1145C49.3311 31.1886 49.099 31.2461 48.859 31.2871C48.6191 31.3281 48.3499 31.3486 48.0515 31.3486C47.6165 31.3486 47.2478 31.2627 46.9454 31.0911C46.645 30.9175 46.4168 30.6668 46.2607 30.3391C46.1047 30.0094 46.0266 29.6124 46.0266 29.1482C46.0266 28.7015 46.1135 28.3143 46.2871 27.9866C46.4607 27.6569 46.7133 27.4023 47.0449 27.2229C47.3765 27.0414 47.7784 26.9507 48.2504 26.9507C48.4826 26.9507 48.7069 26.9741 48.9234 27.021C49.1419 27.0658 49.3418 27.1282 49.5233 27.2082L49.2775 27.7876C49.1331 27.7193 48.9712 27.6618 48.7917 27.6149C48.6123 27.5681 48.426 27.5447 48.2329 27.5447C47.9266 27.5447 47.6623 27.611 47.4399 27.7437C47.2195 27.8763 47.0498 28.0636 46.9308 28.3055C46.8118 28.5454 46.7523 28.8292 46.7523 29.157C46.7523 29.4749 46.8001 29.7539 46.8957 29.9938C46.9913 30.2337 47.1405 30.421 47.3434 30.5556C47.5482 30.6883 47.8125 30.7546 48.1363 30.7546C48.2982 30.7546 48.4357 30.7458 48.5489 30.7282C48.662 30.7107 48.7664 30.6912 48.862 30.6697V29.5666H47.9578V28.9668ZM53.9611 31.29H51.5383V27.0122H53.9611V27.6032H52.2406V28.7649H53.8528V29.353H52.2406V30.6961H53.9611V31.29ZM53.1857 25.6574C53.2384 25.7472 53.3086 25.8466 53.3964 25.9559C53.4861 26.0651 53.5788 26.1724 53.6744 26.2778C53.7719 26.3811 53.8577 26.4699 53.9318 26.544V26.6172H53.4637C53.3583 26.5508 53.2462 26.4718 53.1272 26.3802C53.0101 26.2865 52.8999 26.1861 52.7965 26.0788C52.6912 26.1861 52.581 26.2856 52.4659 26.3772C52.3528 26.4689 52.2445 26.5489 52.1411 26.6172H51.6759V26.544C51.75 26.4679 51.8349 26.3782 51.9304 26.2748C52.026 26.1714 52.1177 26.0651 52.2055 25.9559C52.2933 25.8466 52.3635 25.7472 52.4162 25.6574H53.1857ZM59.4143 31.29H58.5511L56.4561 27.8754H56.4297C56.4375 27.9905 56.4444 28.1124 56.4502 28.2411C56.458 28.3699 56.4639 28.5025 56.4678 28.6391C56.4736 28.7756 56.4785 28.9141 56.4824 29.0546V31.29H55.8445V27.0122H56.7019L58.794 30.4035H58.8144C58.8105 30.304 58.8057 30.1899 58.7998 30.0611C58.794 29.9324 58.7881 29.7997 58.7823 29.6632C58.7784 29.5247 58.7754 29.391 58.7735 29.2623V27.0122H59.4143V31.29ZM63.3196 27.5476C63.1148 27.5476 62.9314 27.5847 62.7695 27.6588C62.6095 27.733 62.474 27.8403 62.3628 27.9807C62.2516 28.1192 62.1667 28.2879 62.1082 28.4869C62.0497 28.6839 62.0204 28.9063 62.0204 29.154C62.0204 29.4857 62.0673 29.7714 62.1609 30.0114C62.2545 30.2493 62.3969 30.4327 62.5881 30.5615C62.7793 30.6883 63.0211 30.7516 63.3137 30.7516C63.4952 30.7516 63.6717 30.7341 63.8434 30.699C64.015 30.6639 64.1925 30.6161 64.3759 30.5556V31.1525C64.2023 31.2208 64.0267 31.2705 63.8492 31.3017C63.6717 31.333 63.4669 31.3486 63.2347 31.3486C62.7978 31.3486 62.435 31.2579 62.1463 31.0764C61.8595 30.895 61.6449 30.6395 61.5025 30.3098C61.3621 29.9802 61.2919 29.5939 61.2919 29.1511C61.2919 28.8273 61.3367 28.5308 61.4265 28.2616C61.5162 27.9924 61.6469 27.7603 61.8185 27.5652C61.9902 27.3682 62.2019 27.217 62.4535 27.1117C62.7071 27.0044 62.9968 26.9507 63.3225 26.9507C63.5371 26.9507 63.7478 26.9751 63.9545 27.0239C64.1633 27.0707 64.3564 27.138 64.5339 27.2258L64.2881 27.8051C64.1399 27.7349 63.9848 27.6744 63.8229 27.6237C63.661 27.573 63.4932 27.5476 63.3196 27.5476ZM66.2535 31.29V27.0122H66.9557V31.29H66.2535ZM71.6949 31.29L71.2765 30.1021H69.6409L69.2225 31.29H68.4822L70.0739 26.9946H70.8523L72.4411 31.29H71.6949ZM71.0951 29.4993L70.6884 28.3289C70.6728 28.2782 70.6504 28.207 70.6211 28.1153C70.5918 28.0217 70.5626 27.9271 70.5333 27.8315C70.5041 27.7339 70.4797 27.652 70.4602 27.5857C70.4407 27.6657 70.4163 27.7554 70.387 27.8549C70.3597 27.9524 70.3324 28.0441 70.3051 28.1299C70.2797 28.2158 70.2602 28.2821 70.2466 28.3289L69.8369 29.4993H71.0951ZM79.9533 29.1101C79.9533 29.592 79.8635 29.9948 79.6841 30.3186C79.5046 30.6405 79.2442 30.8833 78.9028 31.0472C78.5614 31.2091 78.1498 31.29 77.668 31.29H76.4801V27.0122H77.7968C78.2396 27.0122 78.6219 27.0922 78.9438 27.2521C79.2656 27.4101 79.5144 27.6452 79.6899 27.9573C79.8655 28.2675 79.9533 28.6517 79.9533 29.1101ZM79.2218 29.1306C79.2218 28.7795 79.1662 28.4908 79.055 28.2645C78.9457 28.0382 78.7838 27.8705 78.5692 27.7612C78.3566 27.6501 78.0943 27.5945 77.7821 27.5945H77.1823V30.7019H77.6797C78.1967 30.7019 78.5829 30.5702 78.8384 30.3069C79.094 30.0436 79.2218 29.6515 79.2218 29.1306ZM84.2565 31.29H81.8338V27.0122H84.2565V27.6032H82.536V28.7649H84.1482V29.353H82.536V30.6961H84.2565V31.29ZM92.1286 29.1101C92.1286 29.592 92.0389 29.9948 91.8594 30.3186C91.6799 30.6405 91.4195 30.8833 91.0781 31.0472C90.7368 31.2091 90.3252 31.29 89.8434 31.29H88.6554V27.0122H89.9721C90.4149 27.0122 90.7972 27.0922 91.1191 27.2521C91.441 27.4101 91.6897 27.6452 91.8652 27.9573C92.0408 28.2675 92.1286 28.6517 92.1286 29.1101ZM91.3971 29.1306C91.3971 28.7795 91.3415 28.4908 91.2303 28.2645C91.1211 28.0382 90.9591 27.8705 90.7446 27.7612C90.5319 27.6501 90.2696 27.5945 89.9575 27.5945H89.3576V30.7019H89.8551C90.372 30.7019 90.7582 30.5702 91.0138 30.3069C91.2693 30.0436 91.3971 29.6515 91.3971 29.1306ZM96.4318 31.29H94.0091V27.0122H96.4318V27.6032H94.7113V28.7649H96.3236V29.353H94.7113V30.6961H96.4318V31.29ZM100.785 30.1255C100.785 30.3791 100.722 30.5975 100.598 30.7809C100.475 30.9643 100.297 31.1047 100.065 31.2023C99.8349 31.2998 99.5598 31.3486 99.2399 31.3486C99.0838 31.3486 98.9346 31.3398 98.7922 31.3222C98.6498 31.3047 98.5152 31.2793 98.3884 31.2461C98.2636 31.211 98.1495 31.1691 98.0461 31.1203V30.459C98.2197 30.5351 98.4138 30.6044 98.6284 30.6668C98.8429 30.7273 99.0614 30.7575 99.2838 30.7575C99.4652 30.7575 99.6154 30.7341 99.7344 30.6873C99.8553 30.6385 99.9451 30.5702 100.004 30.4825C100.062 30.3927 100.091 30.2884 100.091 30.1694C100.091 30.0426 100.057 29.9353 99.989 29.8475C99.9207 29.7597 99.8173 29.6797 99.6788 29.6076C99.5422 29.5334 99.3706 29.4544 99.1638 29.3706C99.0234 29.314 98.8888 29.2496 98.76 29.1774C98.6332 29.1053 98.5201 29.0204 98.4206 28.9229C98.3211 28.8253 98.2421 28.7103 98.1836 28.5776C98.127 28.443 98.0987 28.285 98.0987 28.1036C98.0987 27.8617 98.1563 27.6549 98.2714 27.4833C98.3884 27.3116 98.5523 27.1799 98.7629 27.0883C98.9756 26.9966 99.2233 26.9507 99.5062 26.9507C99.7305 26.9507 99.9412 26.9741 100.138 27.021C100.337 27.0678 100.532 27.1341 100.723 27.2199L100.501 27.7847C100.325 27.7125 100.155 27.6549 99.989 27.612C99.8251 27.5691 99.6573 27.5476 99.4857 27.5476C99.3374 27.5476 99.2116 27.5701 99.1082 27.6149C99.0048 27.6598 98.9258 27.7232 98.8712 27.8051C98.8185 27.8851 98.7922 27.9807 98.7922 28.0919C98.7922 28.2167 98.8224 28.3221 98.8829 28.4079C98.9453 28.4918 99.0409 28.5688 99.1697 28.6391C99.3004 28.7093 99.4681 28.7873 99.6729 28.8731C99.909 28.9707 100.109 29.0731 100.273 29.1804C100.439 29.2877 100.565 29.4164 100.653 29.5666C100.741 29.7149 100.785 29.9012 100.785 30.1255ZM102.569 31.29V27.0122H103.271V31.29H102.569ZM107.086 28.9668H108.683V31.1145C108.459 31.1886 108.227 31.2461 107.987 31.2871C107.747 31.3281 107.478 31.3486 107.179 31.3486C106.744 31.3486 106.376 31.2627 106.073 31.0911C105.773 30.9175 105.545 30.6668 105.389 30.3391C105.232 30.0094 105.154 29.6124 105.154 29.1482C105.154 28.7015 105.241 28.3143 105.415 27.9866C105.588 27.6569 105.841 27.4023 106.173 27.2229C106.504 27.0414 106.906 26.9507 107.378 26.9507C107.61 26.9507 107.835 26.9741 108.051 27.021C108.27 27.0658 108.47 27.1282 108.651 27.2082L108.405 27.7876C108.261 27.7193 108.099 27.6618 107.92 27.6149C107.74 27.5681 107.554 27.5447 107.361 27.5447C107.054 27.5447 106.79 27.611 106.568 27.7437C106.347 27.8763 106.178 28.0636 106.059 28.3055C105.94 28.5454 105.88 28.8292 105.88 29.157C105.88 29.4749 105.928 29.7539 106.023 29.9938C106.119 30.2337 106.268 30.421 106.471 30.5556C106.676 30.6883 106.94 30.7546 107.264 30.7546C107.426 30.7546 107.564 30.7458 107.677 30.7282C107.79 30.7107 107.894 30.6912 107.99 30.6697V29.5666H107.086V28.9668ZM114.236 31.29H113.373L111.278 27.8754H111.251C111.259 27.9905 111.266 28.1124 111.272 28.2411C111.28 28.3699 111.285 28.5025 111.289 28.6391C111.295 28.7756 111.3 28.9141 111.304 29.0546V31.29H110.666V27.0122H111.523L113.616 30.4035H113.636C113.632 30.304 113.627 30.1899 113.621 30.0611C113.616 29.9324 113.61 29.7997 113.604 29.6632C113.6 29.5247 113.597 29.391 113.595 29.2623V27.0122H114.236V31.29ZM120.112 26.9478C120.333 26.9478 120.526 26.9839 120.692 27.0561C120.86 27.1282 120.99 27.2336 121.084 27.3721C121.178 27.5086 121.224 27.6754 121.224 27.8724C121.224 28.1358 121.142 28.3582 120.979 28.5396C120.815 28.721 120.608 28.8829 120.358 29.0253L121.368 30.0084C121.463 29.8777 121.542 29.7344 121.605 29.5783C121.667 29.4203 121.721 29.2545 121.766 29.0809H122.477C122.416 29.3228 122.332 29.5617 122.225 29.7978C122.118 30.0318 121.982 30.2464 121.818 30.4415L122.687 31.29H121.807L121.374 30.8658C121.253 30.9633 121.123 31.0482 120.984 31.1203C120.848 31.1925 120.699 31.2491 120.537 31.29C120.375 31.3291 120.196 31.3486 120.001 31.3486C119.703 31.3486 119.445 31.3008 119.229 31.2052C119.012 31.1096 118.845 30.9731 118.728 30.7955C118.613 30.6161 118.556 30.4035 118.556 30.1577C118.556 29.9528 118.59 29.7773 118.658 29.631C118.728 29.4827 118.828 29.353 118.957 29.2418C119.085 29.1287 119.239 29.0214 119.419 28.92C119.321 28.8088 119.237 28.7005 119.164 28.5952C119.092 28.4898 119.037 28.3816 118.998 28.2704C118.961 28.1572 118.942 28.0363 118.942 27.9075C118.942 27.7086 118.991 27.5379 119.088 27.3955C119.186 27.2511 119.322 27.1409 119.498 27.0649C119.674 26.9868 119.878 26.9478 120.112 26.9478ZM119.826 29.3384C119.713 29.4106 119.615 29.4837 119.533 29.5578C119.451 29.63 119.388 29.71 119.343 29.7978C119.3 29.8855 119.279 29.988 119.279 30.105C119.279 30.3059 119.349 30.4649 119.489 30.5819C119.632 30.699 119.815 30.7575 120.039 30.7575C120.236 30.7575 120.409 30.7282 120.557 30.6697C120.707 30.6092 120.838 30.5341 120.949 30.4444L119.826 29.3384ZM120.101 27.4921C119.962 27.4921 119.842 27.5281 119.741 27.6003C119.641 27.6725 119.592 27.7847 119.592 27.9368C119.592 28.0597 119.624 28.1758 119.688 28.285C119.754 28.3923 119.846 28.5084 119.963 28.6332C120.168 28.5201 120.32 28.4089 120.42 28.2996C120.521 28.1904 120.572 28.0636 120.572 27.9193C120.572 27.7827 120.526 27.6774 120.434 27.6032C120.343 27.5291 120.231 27.4921 120.101 27.4921ZM130.211 29.1101C130.211 29.592 130.121 29.9948 129.942 30.3186C129.763 30.6405 129.502 30.8833 129.161 31.0472C128.819 31.2091 128.408 31.29 127.926 31.29H126.738V27.0122H128.055C128.498 27.0122 128.88 27.0922 129.202 27.2521C129.524 27.4101 129.772 27.6452 129.948 27.9573C130.123 28.2675 130.211 28.6517 130.211 29.1101ZM129.48 29.1306C129.48 28.7795 129.424 28.4908 129.313 28.2645C129.204 28.0382 129.042 27.8705 128.827 27.7612C128.615 27.6501 128.352 27.5945 128.04 27.5945H127.44V30.7019H127.938C128.455 30.7019 128.841 30.5702 129.096 30.3069C129.352 30.0436 129.48 29.6515 129.48 29.1306ZM134.514 31.29H132.092V27.0122H134.514V27.6032H132.794V28.7649H134.406V29.353H132.794V30.6961H134.514V31.29ZM138.867 30.1255C138.867 30.3791 138.805 30.5975 138.68 30.7809C138.557 30.9643 138.38 31.1047 138.148 31.2023C137.917 31.2998 137.642 31.3486 137.323 31.3486C137.166 31.3486 137.017 31.3398 136.875 31.3222C136.732 31.3047 136.598 31.2793 136.471 31.2461C136.346 31.211 136.232 31.1691 136.129 31.1203V30.459C136.302 30.5351 136.496 30.6044 136.711 30.6668C136.926 30.7273 137.144 30.7575 137.366 30.7575C137.548 30.7575 137.698 30.7341 137.817 30.6873C137.938 30.6385 138.028 30.5702 138.086 30.4825C138.145 30.3927 138.174 30.2884 138.174 30.1694C138.174 30.0426 138.14 29.9353 138.072 29.8475C138.003 29.7597 137.9 29.6797 137.761 29.6076C137.625 29.5334 137.453 29.4544 137.246 29.3706C137.106 29.314 136.971 29.2496 136.843 29.1774C136.716 29.1053 136.603 29.0204 136.503 28.9229C136.404 28.8253 136.325 28.7103 136.266 28.5776C136.21 28.443 136.181 28.285 136.181 28.1036C136.181 27.8617 136.239 27.6549 136.354 27.4833C136.471 27.3116 136.635 27.1799 136.846 27.0883C137.058 26.9966 137.306 26.9507 137.589 26.9507C137.813 26.9507 138.024 26.9741 138.221 27.021C138.42 27.0678 138.615 27.1341 138.806 27.2199L138.584 27.7847C138.408 27.7125 138.237 27.6549 138.072 27.612C137.908 27.5691 137.74 27.5476 137.568 27.5476C137.42 27.5476 137.294 27.5701 137.191 27.6149C137.087 27.6598 137.008 27.7232 136.954 27.8051C136.901 27.8851 136.875 27.9807 136.875 28.0919C136.875 28.2167 136.905 28.3221 136.966 28.4079C137.028 28.4918 137.124 28.5688 137.252 28.6391C137.383 28.7093 137.551 28.7873 137.756 28.8731C137.992 28.9707 138.192 29.0731 138.355 29.1804C138.521 29.2877 138.648 29.4164 138.736 29.5666C138.824 29.7149 138.867 29.9012 138.867 30.1255ZM143.074 31.29H140.651V27.0122H143.074V27.6032H141.354V28.7649H142.966V29.353H141.354V30.6961H143.074V31.29ZM148.527 31.29H147.664L145.569 27.8754H145.543C145.551 27.9905 145.557 28.1124 145.563 28.2411C145.571 28.3699 145.577 28.5025 145.581 28.6391C145.587 28.7756 145.592 28.9141 145.595 29.0546V31.29H144.958V27.0122H145.815L147.907 30.4035H147.928C147.924 30.304 147.919 30.1899 147.913 30.0611C147.907 29.9324 147.901 29.7997 147.895 29.6632C147.891 29.5247 147.888 29.391 147.887 29.2623V27.0122H148.527V31.29ZM153.782 27.0122L152.286 31.29H151.543L150.048 27.0122H150.768L151.669 29.6924C151.696 29.7705 151.726 29.8651 151.757 29.9763C151.79 30.0874 151.82 30.1996 151.847 30.3127C151.877 30.4259 151.899 30.5263 151.915 30.6141C151.93 30.5263 151.952 30.4259 151.979 30.3127C152.008 30.1996 152.039 30.0874 152.07 29.9763C152.101 29.8651 152.13 29.7695 152.158 29.6895L153.062 27.0122H153.782ZM159.1 29.1453C159.1 29.4749 159.058 29.7753 158.974 30.0465C158.892 30.3157 158.769 30.5478 158.603 30.7429C158.437 30.936 158.229 31.0852 157.979 31.1906C157.73 31.2959 157.437 31.3486 157.102 31.3486C156.76 31.3486 156.464 31.2959 156.212 31.1906C155.962 31.0852 155.755 30.935 155.589 30.7399C155.425 30.5449 155.302 30.3118 155.22 30.0406C155.138 29.7695 155.097 29.4691 155.097 29.1394C155.097 28.6986 155.17 28.3143 155.314 27.9866C155.46 27.6569 155.682 27.4013 155.978 27.2199C156.277 27.0366 156.653 26.9449 157.108 26.9449C157.552 26.9449 157.922 27.0356 158.216 27.217C158.511 27.3984 158.731 27.654 158.878 27.9836C159.026 28.3113 159.1 28.6986 159.1 29.1453ZM155.835 29.1453C155.835 29.4749 155.88 29.7607 155.969 30.0026C156.059 30.2425 156.197 30.4278 156.382 30.5585C156.569 30.6873 156.809 30.7516 157.102 30.7516C157.396 30.7516 157.636 30.6873 157.821 30.5585C158.007 30.4278 158.143 30.2425 158.231 30.0026C158.319 29.7607 158.363 29.4749 158.363 29.1453C158.363 28.6439 158.262 28.2518 158.061 27.969C157.862 27.6842 157.544 27.5418 157.108 27.5418C156.815 27.5418 156.574 27.6062 156.385 27.7349C156.198 27.8637 156.059 28.048 155.969 28.2879C155.88 28.5259 155.835 28.8117 155.835 29.1453ZM160.978 31.29V27.0122H161.68V30.6931H163.497V31.29H160.978ZM168.368 27.0122L166.873 31.29H166.13L164.634 27.0122H165.354L166.255 29.6924C166.283 29.7705 166.312 29.8651 166.343 29.9763C166.376 30.0874 166.407 30.1996 166.434 30.3127C166.463 30.4259 166.486 30.5263 166.501 30.6141C166.517 30.5263 166.538 30.4259 166.565 30.3127C166.595 30.1996 166.625 30.0874 166.656 29.9763C166.687 29.8651 166.717 29.7695 166.744 29.6895L167.648 27.0122H168.368ZM169.889 31.29V27.0122H170.591V31.29H169.889ZM174.525 31.29L173.293 27.7174H173.267C173.273 27.7973 173.28 27.9066 173.288 28.0451C173.295 28.1836 173.302 28.3318 173.308 28.4898C173.314 28.6478 173.317 28.799 173.317 28.9434V31.29H172.679V27.0122H173.665L174.85 30.4269H174.868L176.094 27.0122H177.077V31.29H176.407V28.9083C176.407 28.7776 176.409 28.6361 176.413 28.484C176.418 28.3318 176.424 28.1875 176.43 28.0509C176.438 27.9144 176.444 27.8051 176.448 27.7232H176.424L175.146 31.29H174.525ZM181.585 31.29H179.162V27.0122H181.585V27.6032H179.864V28.7649H181.477V29.353H179.864V30.6961H181.585V31.29ZM187.038 31.29H186.175L184.08 27.8754H184.054C184.061 27.9905 184.068 28.1124 184.074 28.2411C184.082 28.3699 184.088 28.5025 184.092 28.6391C184.097 28.7756 184.102 28.9141 184.106 29.0546V31.29H183.468V27.0122H184.326L186.418 30.4035H186.438C186.434 30.304 186.429 30.1899 186.424 30.0611C186.418 29.9324 186.412 29.7997 186.406 29.6632C186.402 29.5247 186.399 29.391 186.397 29.2623V27.0122H187.038V31.29ZM190.604 31.29H189.899V27.6091H188.646V27.0122H191.853V27.6091H190.604V31.29ZM197.266 29.1453C197.266 29.4749 197.224 29.7753 197.14 30.0465C197.058 30.3157 196.934 30.5478 196.768 30.7429C196.602 30.936 196.395 31.0852 196.145 31.1906C195.895 31.2959 195.603 31.3486 195.267 31.3486C194.926 31.3486 194.629 31.2959 194.378 31.1906C194.128 31.0852 193.92 30.935 193.754 30.7399C193.591 30.5449 193.468 30.3118 193.386 30.0406C193.304 29.7695 193.263 29.4691 193.263 29.1394C193.263 28.6986 193.335 28.3143 193.479 27.9866C193.626 27.6569 193.847 27.4013 194.144 27.2199C194.442 27.0366 194.819 26.9449 195.273 26.9449C195.718 26.9449 196.087 27.0356 196.382 27.217C196.677 27.3984 196.897 27.654 197.043 27.9836C197.192 28.3113 197.266 28.6986 197.266 29.1453ZM194 29.1453C194 29.4749 194.045 29.7607 194.135 30.0026C194.225 30.2425 194.362 30.4278 194.547 30.5585C194.735 30.6873 194.975 30.7516 195.267 30.7516C195.562 30.7516 195.802 30.6873 195.987 30.5585C196.172 30.4278 196.309 30.2425 196.397 30.0026C196.484 29.7607 196.528 29.4749 196.528 29.1453C196.528 28.6439 196.428 28.2518 196.227 27.969C196.028 27.6842 195.71 27.5418 195.273 27.5418C194.98 27.5418 194.739 27.6062 194.55 27.7349C194.363 27.8637 194.225 28.048 194.135 28.2879C194.045 28.5259 194 28.8117 194 29.1453Z" fill="white"/>
</svg>
