<svg width="167" height="35" viewBox="0 0 167 35" fill="none" xmlns="http://www.w3.org/2000/svg">
<path d="M1.88105 21.5978V4.97761C1.88105 4.51379 2.20744 4.28188 2.86022 4.28188C3.1179 4.28188 3.33263 4.34201 3.50442 4.46226C3.69338 4.58251 3.78787 4.75429 3.78787 4.97761V6.34331C5.02472 4.95184 6.58797 4.25611 8.4776 4.25611C9.74881 4.25611 10.8397 4.59969 11.7501 5.28683C12.6606 5.97397 13.1158 6.92738 13.1158 8.14705C13.1158 8.90291 12.9097 9.65876 12.4974 10.4146C12.1023 11.1533 11.4753 11.6601 10.6163 11.9349C12.2483 12.1926 13.4937 12.8024 14.3527 13.7644C15.2288 14.7264 15.6668 15.7571 15.6668 16.8566C15.6668 18.5572 15.1171 19.9659 14.0177 21.0825C12.9183 22.1991 11.2004 22.7574 8.86412 22.7574C6.85423 22.7574 5.14497 22.4568 3.73633 21.8555C3.58172 22.1647 3.2811 22.3193 2.83446 22.3193C2.19885 22.3193 1.88105 22.0788 1.88105 21.5978ZM3.78787 19.9745C4.88729 20.5585 6.49348 20.8506 8.60644 20.8506C10.3587 20.8506 11.6556 20.4984 12.4974 19.7941C13.3391 19.0726 13.76 18.1879 13.76 17.14C13.76 15.9203 13.2361 15.0099 12.1882 14.4086C11.1403 13.7902 9.7574 13.481 8.03955 13.481C7.50702 13.481 6.74257 13.4982 5.74622 13.5325C4.74986 13.5497 4.09708 13.5583 3.78787 13.5583V19.9745ZM3.78787 11.4711C4.47501 11.557 5.23945 11.5999 6.0812 11.5999C7.69598 11.5999 8.95001 11.2735 9.8433 10.6208C10.7538 9.9508 11.209 9.16917 11.209 8.27589C11.209 7.53721 10.9599 6.9875 10.4617 6.62675C9.96355 6.266 9.30217 6.08563 8.4776 6.08563C7.51561 6.08563 6.61373 6.31754 5.77199 6.78136C4.93024 7.24518 4.26886 7.96668 3.78787 8.94585V11.4711ZM18.5833 21.5978V3.68922C18.5833 3.2254 18.9097 2.99349 19.5625 2.99349C19.8201 2.99349 20.0349 3.05362 20.2067 3.17387C20.3956 3.29412 20.4901 3.4659 20.4901 3.68922V21.5978C20.4901 21.8212 20.3956 22.0015 20.2067 22.139C20.0177 22.2592 19.7944 22.3193 19.5367 22.3193C18.9011 22.3193 18.5833 22.0788 18.5833 21.5978ZM23.8899 17.0627C23.8899 16.9081 23.8899 16.1437 23.8899 14.7694C23.9071 13.3779 23.9157 11.8404 23.9157 10.1569C23.9157 9.93362 24.0102 9.76183 24.1991 9.64158C24.3881 9.50416 24.6114 9.43544 24.8691 9.43544C25.5047 9.43544 25.8225 9.67594 25.8225 10.1569V16.8308C25.8225 18.0505 26.252 19.0039 27.1109 19.691C27.987 20.361 28.8889 20.696 29.8165 20.696C30.9847 20.696 32.2301 20.2751 33.5528 19.4333C34.8928 18.5744 35.8204 17.5093 36.3358 16.2381V10.1312C36.3358 9.66735 36.6622 9.43544 37.3149 9.43544C37.5726 9.43544 37.7873 9.49557 37.9591 9.61581C38.1481 9.73606 38.2426 9.90785 38.2426 10.1312V21.6236C38.2426 21.8469 38.1481 22.0187 37.9591 22.139C37.7873 22.2592 37.5726 22.3193 37.3149 22.3193C36.6622 22.3193 36.3358 22.0874 36.3358 21.6236V19.5106C35.4768 20.4555 34.4461 21.2027 33.2436 21.7524C32.0583 22.3022 30.8386 22.577 29.5846 22.577C27.9698 22.577 26.6127 22.0617 25.5133 21.0309C24.431 20.0002 23.8899 18.6775 23.8899 17.0627ZM41.2452 15.5166C41.2452 14.4172 41.4857 13.438 41.9667 12.5791C42.4477 11.7202 43.0833 11.0416 43.8735 10.5435C44.6637 10.0453 45.5141 9.67594 46.4245 9.43544C47.335 9.17776 48.2626 9.04892 49.2075 9.04892C50.891 9.04892 52.1965 9.41826 53.1242 10.1569C54.0518 10.8784 54.5156 11.7717 54.5156 12.8368C54.5156 13.9877 53.9745 14.9669 52.8923 15.7743C51.81 16.5817 50.2725 16.9854 48.2798 16.9854C46.4932 16.9854 44.7926 16.7277 43.1778 16.2124C43.3668 17.4836 43.9594 18.5486 44.9558 19.4076C45.9521 20.2665 47.1804 20.696 48.6406 20.696C49.4136 20.696 50.2124 20.5757 51.037 20.3352C51.8787 20.0947 52.5401 19.7511 53.0211 19.3045C53.0898 19.1671 53.2272 19.0984 53.4334 19.0984C53.6739 19.0984 53.9316 19.21 54.2064 19.4333C54.4813 19.6395 54.6187 19.8542 54.6187 20.0775C54.1892 20.9536 53.3475 21.5978 52.0934 22.0101C50.8566 22.4052 49.6541 22.6028 48.486 22.6028C46.373 22.6028 44.638 21.9071 43.2809 20.5156C41.9238 19.1241 41.2452 17.4578 41.2452 15.5166ZM43.2809 14.2282C44.5693 14.7951 46.1669 15.0786 48.0737 15.0786C49.5682 15.0786 50.702 14.8467 51.475 14.3829C52.2481 13.9019 52.6346 13.3693 52.6346 12.7853C52.6346 12.2699 52.3082 11.8404 51.6554 11.4969C51.0198 11.1361 50.0664 10.9557 48.7952 10.9557C47.4209 10.9557 46.2699 11.265 45.3423 11.8834C44.4318 12.4846 43.7447 13.2663 43.2809 14.2282ZM57.9764 21.5978V4.97761C57.9764 4.75429 58.1053 4.57392 58.363 4.43649C58.6378 4.28188 58.9384 4.20458 59.2648 4.20458C59.6256 4.20458 59.8661 4.30765 59.9863 4.51379L66.0675 13.5068L72.1745 4.51379C72.2947 4.30765 72.5095 4.20458 72.8187 4.20458C73.1279 4.20458 73.4285 4.28188 73.7206 4.43649C74.0126 4.5911 74.1586 4.77147 74.1586 4.97761V21.5978C74.1586 21.8212 74.0641 22.0015 73.8752 22.139C73.6862 22.2592 73.4629 22.3193 73.2052 22.3193C72.5696 22.3193 72.2518 22.0788 72.2518 21.5978V7.76053L67.5621 14.5632C67.1498 15.1645 66.643 15.4651 66.0418 15.4651C65.492 15.4651 65.0025 15.1645 64.573 14.5632L59.8833 7.76053V21.5978C59.8833 21.8212 59.7888 22.0015 59.5998 22.139C59.4108 22.2592 59.1875 22.3193 58.9298 22.3193C58.2942 22.3193 57.9764 22.0788 57.9764 21.5978ZM77.5089 15.9289C77.5089 14.4516 77.8954 13.1804 78.6685 12.1153C79.4587 11.033 80.4035 10.2514 81.5029 9.77042C82.6195 9.28942 83.7877 9.04892 85.0073 9.04892C86.7252 9.04892 88.3056 9.70171 89.7486 11.0073C91.2088 12.2957 91.9389 13.9276 91.9389 15.9032C91.9389 17.7756 91.2947 19.3818 90.0063 20.7217C88.7179 22.0445 87.0344 22.7059 84.9558 22.7059C82.9115 22.7059 81.1593 22.0445 79.6992 20.7217C78.239 19.3818 77.5089 17.7842 77.5089 15.9289ZM79.4157 15.9547C79.4157 17.1744 79.974 18.291 81.0906 19.3045C82.2072 20.3009 83.5042 20.799 84.9816 20.799C86.373 20.799 87.5583 20.2923 88.5375 19.2787C89.5339 18.2652 90.032 17.14 90.032 15.9032C90.032 14.7007 89.5596 13.5755 88.6148 12.5276C87.67 11.4797 86.4503 10.9557 84.9558 10.9557C83.2036 10.9557 81.8379 11.4883 80.8587 12.5533C79.8967 13.6184 79.4157 14.7522 79.4157 15.9547ZM94.9369 21.6494V10.1312C94.9369 9.90785 95.0228 9.73606 95.1945 9.61581C95.3835 9.49557 95.6068 9.43544 95.8645 9.43544C96.5173 9.43544 96.8437 9.66735 96.8437 10.1312V12.1668C97.7026 11.2392 98.7419 10.5091 99.9616 9.97656C101.181 9.42685 102.418 9.15199 103.672 9.15199C105.287 9.15199 106.635 9.65876 107.718 10.6723C108.817 11.6686 109.367 12.9742 109.367 14.589C109.367 14.7436 109.358 15.5338 109.341 16.9596C109.341 18.3683 109.341 19.9143 109.341 21.5978C109.341 21.8212 109.247 22.0015 109.058 22.139C108.869 22.2592 108.645 22.3193 108.388 22.3193C107.752 22.3193 107.434 22.0788 107.434 21.5978V14.8209C107.434 13.6012 106.996 12.665 106.12 12.0122C105.261 11.3594 104.368 11.033 103.44 11.033C102.186 11.033 100.898 11.4539 99.5751 12.2957C98.2695 13.1202 97.359 14.1681 96.8437 15.4393V21.6494C96.8437 22.1132 96.5173 22.3451 95.8645 22.3451C95.6068 22.3451 95.3835 22.285 95.1945 22.1647C95.0228 22.0445 94.9369 21.8727 94.9369 21.6494ZM112.213 19.8714C112.213 19.6481 112.308 19.4076 112.496 19.1499C112.703 18.8922 112.935 18.729 113.192 18.6603C113.312 18.6603 113.373 18.6775 113.373 18.7118C113.922 19.3131 114.713 19.7855 115.743 20.1291C116.774 20.4555 117.581 20.6444 118.165 20.696C118.767 20.7475 119.325 20.7733 119.84 20.7733C122.074 20.7733 123.19 20.0947 123.19 18.7376C123.19 18.2738 123.018 17.9045 122.675 17.6296C122.348 17.3376 121.893 17.14 121.309 17.0369C120.742 16.9339 120.167 16.8652 119.583 16.8308C118.999 16.7964 118.363 16.7707 117.676 16.7535C116.989 16.7191 116.465 16.6676 116.104 16.5989C115.125 16.4099 114.257 16.0148 113.501 15.4136C112.746 14.7951 112.368 14.0736 112.368 13.2491C112.368 11.9435 113.02 10.9472 114.326 10.26C115.649 9.55569 117.1 9.20353 118.681 9.20353C119.746 9.20353 120.888 9.39249 122.108 9.77042C123.328 10.1312 124.238 10.6981 124.839 11.4711C124.856 11.5055 124.865 11.5484 124.865 11.5999C124.865 11.8233 124.762 12.0895 124.556 12.3987C124.35 12.6908 124.152 12.8368 123.963 12.8368C123.791 12.8368 123.62 12.6994 123.448 12.4245C122.623 11.5484 120.983 11.1103 118.526 11.1103C117.513 11.1103 116.551 11.2821 115.64 11.6257C114.73 11.9693 114.274 12.476 114.274 13.146C114.274 13.7129 114.67 14.1424 115.46 14.4344C116.25 14.7092 117.092 14.8467 117.985 14.8467C118.621 14.8467 119.153 14.8553 119.583 14.8724C120.012 14.8896 120.536 14.9412 121.154 15.0271C121.773 15.0958 122.288 15.2246 122.701 15.4136C123.113 15.5854 123.517 15.8173 123.912 16.1093C124.307 16.3842 124.599 16.7621 124.788 17.2431C124.994 17.7069 125.097 18.2566 125.097 18.8922C125.097 19.7683 124.822 20.507 124.272 21.1082C123.74 21.6923 123.121 22.096 122.417 22.3193C121.73 22.5598 121 22.6801 120.227 22.6801C116.602 22.6801 113.991 21.9071 112.393 20.361C112.273 20.2407 112.213 20.0775 112.213 19.8714ZM127.305 10.3888C127.305 10.1312 127.366 9.90785 127.486 9.71889C127.623 9.52992 127.804 9.43544 128.027 9.43544H128.903V6.266C128.903 6.04268 128.989 5.8709 129.161 5.75065C129.35 5.6304 129.573 5.57027 129.831 5.57027C130.483 5.57027 130.81 5.80218 130.81 6.266V9.43544H134.933C135.156 9.43544 135.328 9.52992 135.448 9.71889C135.568 9.89067 135.628 10.1054 135.628 10.3631C135.628 11.0159 135.396 11.3423 134.933 11.3423H130.81V17.5008C130.81 19.4248 131.54 20.3868 133 20.3868C133.619 20.3868 134.151 20.215 134.598 19.8714C135.062 19.5278 135.293 18.9266 135.293 18.0677C135.293 17.8272 135.388 17.6296 135.577 17.475C135.783 17.3204 136.023 17.2431 136.298 17.2431C136.556 17.2431 136.771 17.3204 136.943 17.475C137.114 17.6124 137.2 17.8186 137.2 18.0934C137.183 19.4505 136.771 20.4898 135.963 21.2113C135.173 21.9328 134.185 22.2936 133 22.2936C130.269 22.2936 128.903 20.4641 128.903 16.805V11.3423H128.027C127.546 11.3423 127.305 11.0245 127.305 10.3888ZM139.09 15.5166C139.09 14.4172 139.331 13.438 139.812 12.5791C140.293 11.7202 140.928 11.0416 141.718 10.5435C142.509 10.0453 143.359 9.67594 144.269 9.43544C145.18 9.17776 146.107 9.04892 147.052 9.04892C148.736 9.04892 150.041 9.41826 150.969 10.1569C151.897 10.8784 152.36 11.7717 152.36 12.8368C152.36 13.9877 151.819 14.9669 150.737 15.7743C149.655 16.5817 148.117 16.9854 146.125 16.9854C144.338 16.9854 142.637 16.7277 141.023 16.2124C141.212 17.4836 141.804 18.5486 142.801 19.4076C143.797 20.2665 145.025 20.696 146.485 20.696C147.258 20.696 148.057 20.5757 148.882 20.3352C149.724 20.0947 150.385 19.7511 150.866 19.3045C150.935 19.1671 151.072 19.0984 151.278 19.0984C151.519 19.0984 151.776 19.21 152.051 19.4333C152.326 19.6395 152.463 19.8542 152.463 20.0775C152.034 20.9536 151.192 21.5978 149.938 22.0101C148.701 22.4052 147.499 22.6028 146.331 22.6028C144.218 22.6028 142.483 21.9071 141.126 20.5156C139.769 19.1241 139.09 17.4578 139.09 15.5166ZM141.126 14.2282C142.414 14.7951 144.012 15.0786 145.918 15.0786C147.413 15.0786 148.547 14.8467 149.32 14.3829C150.093 13.9019 150.479 13.3693 150.479 12.7853C150.479 12.2699 150.153 11.8404 149.5 11.4969C148.865 11.1361 147.911 10.9557 146.64 10.9557C145.266 10.9557 144.115 11.265 143.187 11.8834C142.277 12.4846 141.589 13.2663 141.126 14.2282ZM155.46 21.5978V10.1827C155.46 9.71889 155.787 9.48698 156.44 9.48698C156.697 9.48698 156.912 9.5471 157.084 9.66735C157.273 9.7876 157.367 9.95939 157.367 10.1827V13.4037C158.02 11.995 158.742 10.93 159.532 10.2085C160.339 9.48698 161.404 9.12623 162.727 9.12623C163.655 9.12623 164.591 9.24648 165.536 9.48698C166.034 9.72748 166.283 10.0539 166.283 10.4662C166.283 10.7582 166.223 10.9643 166.103 11.0846C165.982 11.2048 165.785 11.2821 165.51 11.3165C164.634 11.1103 163.921 11.0073 163.371 11.0073C162.1 11.0073 160.94 11.6343 159.893 12.8883C158.845 14.1424 158.003 15.7743 157.367 17.7842V21.5978C157.367 21.8212 157.273 22.0015 157.084 22.139C156.895 22.2592 156.672 22.3193 156.414 22.3193C155.778 22.3193 155.46 22.0788 155.46 21.5978Z" fill="white"/>
<path d="M4.41127 30.9185L3.99284 29.7305H2.35719L1.93877 30.9185H1.19849L2.79025 26.623H3.56857L5.1574 30.9185H4.41127ZM3.81143 29.1277L3.40471 27.9573C3.38911 27.9066 3.36667 27.8354 3.33741 27.7437C3.30815 27.6501 3.27889 27.5555 3.24963 27.4599C3.22037 27.3624 3.19599 27.2804 3.17648 27.2141C3.15698 27.2941 3.13259 27.3838 3.10333 27.4833C3.07602 27.5808 3.04871 27.6725 3.0214 27.7583C2.99604 27.8442 2.97654 27.9105 2.96288 27.9573L2.55324 29.1277H3.81143ZM8.40729 28.5952H10.0049V30.7429C9.78057 30.817 9.54844 30.8746 9.3085 30.9155C9.06857 30.9565 8.79938 30.977 8.50092 30.977C8.06592 30.977 7.69724 30.8911 7.39488 30.7195C7.09448 30.5459 6.86624 30.2952 6.71019 29.9675C6.55414 29.6378 6.47611 29.2409 6.47611 28.7766C6.47611 28.3299 6.56291 27.9427 6.73652 27.615C6.91014 27.2853 7.16275 27.0307 7.49437 26.8513C7.82598 26.6699 8.22782 26.5792 8.69989 26.5792C8.93202 26.5792 9.15635 26.6026 9.37288 26.6494C9.59135 26.6942 9.7913 26.7567 9.97271 26.8366L9.72693 27.416C9.58258 27.3477 9.42067 27.2902 9.24121 27.2434C9.06174 27.1965 8.87545 27.1731 8.68233 27.1731C8.37608 27.1731 8.11176 27.2395 7.88938 27.3721C7.66895 27.5048 7.49924 27.692 7.38025 27.9339C7.26126 28.1738 7.20176 28.4577 7.20176 28.7854C7.20176 29.1033 7.24955 29.3823 7.34514 29.6222C7.44072 29.8622 7.58995 30.0494 7.79282 30.184C7.99764 30.3167 8.26196 30.383 8.58578 30.383C8.74768 30.383 8.88521 30.3742 8.99835 30.3567C9.11149 30.3391 9.21585 30.3196 9.31143 30.2981V29.195H8.40729V28.5952ZM14.4106 30.9185H11.9878V26.6406H14.4106V27.2317H12.6901V28.3933H14.3023V28.9814H12.6901V30.3245H14.4106V30.9185ZM13.6352 25.2858C13.6878 25.3756 13.7581 25.4751 13.8458 25.5843C13.9356 25.6935 14.0282 25.8008 14.1238 25.9062C14.2213 26.0096 14.3072 26.0983 14.3813 26.1724V26.2456H13.9131C13.8078 26.1793 13.6956 26.1003 13.5766 26.0086C13.4596 25.9149 13.3494 25.8145 13.246 25.7072C13.1407 25.8145 13.0305 25.914 12.9154 26.0057C12.8022 26.0973 12.694 26.1773 12.5906 26.2456H12.1253V26.1724C12.1995 26.0964 12.2843 26.0066 12.3799 25.9032C12.4755 25.7999 12.5672 25.6935 12.6549 25.5843C12.7427 25.4751 12.813 25.3756 12.8656 25.2858H13.6352ZM19.8637 30.9185H19.0006L16.9055 27.5038H16.8792C16.887 27.6189 16.8938 27.7408 16.8997 27.8695C16.9075 27.9983 16.9133 28.1309 16.9172 28.2675C16.9231 28.404 16.928 28.5425 16.9319 28.683V30.9185H16.294V26.6406H17.1513L19.2434 30.0319H19.2639C19.26 29.9324 19.2551 29.8183 19.2493 29.6895C19.2434 29.5608 19.2376 29.4281 19.2317 29.2916C19.2278 29.1531 19.2249 29.0195 19.2229 28.8907V26.6406H19.8637V30.9185ZM23.7691 27.1761C23.5642 27.1761 23.3809 27.2131 23.219 27.2873C23.059 27.3614 22.9234 27.4687 22.8122 27.6091C22.7011 27.7476 22.6162 27.9164 22.5577 28.1153C22.4992 28.3123 22.4699 28.5347 22.4699 28.7825C22.4699 29.1141 22.5167 29.3998 22.6104 29.6398C22.704 29.8778 22.8464 30.0611 23.0376 30.1899C23.2287 30.3167 23.4706 30.3801 23.7632 30.3801C23.9446 30.3801 24.1212 30.3625 24.2928 30.3274C24.4645 30.2923 24.642 30.2445 24.8254 30.184V30.7809C24.6517 30.8492 24.4762 30.899 24.2987 30.9302C24.1212 30.9614 23.9163 30.977 23.6842 30.977C23.2473 30.977 22.8844 30.8863 22.5957 30.7049C22.309 30.5234 22.0944 30.2679 21.952 29.9382C21.8115 29.6086 21.7413 29.2223 21.7413 28.7795C21.7413 28.4557 21.7862 28.1592 21.8759 27.89C21.9657 27.6208 22.0963 27.3887 22.268 27.1936C22.4397 26.9966 22.6513 26.8454 22.903 26.7401C23.1565 26.6328 23.4462 26.5792 23.772 26.5792C23.9866 26.5792 24.1972 26.6035 24.404 26.6523C24.6127 26.6991 24.8059 26.7664 24.9834 26.8542L24.7376 27.4336C24.5893 27.3633 24.4342 27.3029 24.2723 27.2521C24.1104 27.2014 23.9427 27.1761 23.7691 27.1761ZM26.7029 30.9185V26.6406H27.4052V30.9185H26.7029ZM32.1444 30.9185L31.726 29.7305H30.0903L29.6719 30.9185H28.9316L30.5234 26.623H31.3017L32.8905 30.9185H32.1444ZM31.5446 29.1277L31.1379 27.9573C31.1223 27.9066 31.0998 27.8354 31.0706 27.7437C31.0413 27.6501 31.012 27.5555 30.9828 27.4599C30.9535 27.3624 30.9291 27.2804 30.9096 27.2141C30.8901 27.2941 30.8657 27.3838 30.8365 27.4833C30.8092 27.5808 30.7819 27.6725 30.7545 27.7583C30.7292 27.8442 30.7097 27.9105 30.696 27.9573L30.2864 29.1277H31.5446ZM40.4027 28.7386C40.4027 29.2204 40.313 29.6232 40.1335 29.947C39.9541 30.2689 39.6936 30.5117 39.3523 30.6756C39.0109 30.8375 38.5993 30.9185 38.1175 30.9185H36.9295V26.6406H38.2462C38.689 26.6406 39.0714 26.7206 39.3932 26.8805C39.7151 27.0385 39.9638 27.2736 40.1394 27.5857C40.3149 27.8959 40.4027 28.2802 40.4027 28.7386ZM39.6712 28.759C39.6712 28.4079 39.6156 28.1192 39.5044 27.8929C39.3952 27.6667 39.2333 27.4989 39.0187 27.3897C38.8061 27.2785 38.5437 27.2229 38.2316 27.2229H37.6318V30.3303H38.1292C38.6461 30.3303 39.0324 30.1987 39.2879 29.9353C39.5434 29.672 39.6712 29.2799 39.6712 28.759ZM44.706 30.9185H42.2832V26.6406H44.706V27.2317H42.9855V28.3933H44.5977V28.9814H42.9855V30.3245H44.706V30.9185ZM52.578 28.7386C52.578 29.2204 52.4883 29.6232 52.3089 29.947C52.1294 30.2689 51.869 30.5117 51.5276 30.6756C51.1862 30.8375 50.7746 30.9185 50.2928 30.9185H49.1049V26.6406H50.4216C50.8644 26.6406 51.2467 26.7206 51.5686 26.8805C51.8904 27.0385 52.1391 27.2736 52.3147 27.5857C52.4903 27.8959 52.578 28.2802 52.578 28.7386ZM51.8465 28.759C51.8465 28.4079 51.7909 28.1192 51.6798 27.8929C51.5705 27.6667 51.4086 27.4989 51.194 27.3897C50.9814 27.2785 50.719 27.2229 50.4069 27.2229H49.8071V30.3303H50.3045C50.8215 30.3303 51.2077 30.1987 51.4632 29.9353C51.7188 29.672 51.8465 29.2799 51.8465 28.759ZM56.8813 30.9185H54.4585V26.6406H56.8813V27.2317H55.1608V28.3933H56.773V28.9814H55.1608V30.3245H56.8813V30.9185ZM61.2343 29.7539C61.2343 30.0075 61.1719 30.226 61.047 30.4093C60.9241 30.5927 60.7466 30.7331 60.5145 30.8307C60.2843 30.9282 60.0093 30.977 59.6894 30.977C59.5333 30.977 59.3841 30.9682 59.2417 30.9506C59.0993 30.9331 58.9647 30.9077 58.8379 30.8746C58.713 30.8395 58.5989 30.7975 58.4955 30.7487V30.0875C58.6691 30.1635 58.8632 30.2328 59.0778 30.2952C59.2924 30.3557 59.5109 30.3859 59.7332 30.3859C59.9147 30.3859 60.0649 30.3625 60.1839 30.3157C60.3048 30.2669 60.3945 30.1987 60.453 30.1109C60.5116 30.0211 60.5408 29.9168 60.5408 29.7978C60.5408 29.671 60.5067 29.5637 60.4384 29.4759C60.3701 29.3881 60.2668 29.3082 60.1283 29.236C59.9917 29.1619 59.82 29.0829 59.6133 28.999C59.4728 28.9424 59.3382 28.878 59.2095 28.8059C59.0827 28.7337 58.9696 28.6488 58.8701 28.5513C58.7706 28.4538 58.6916 28.3387 58.6331 28.206C58.5765 28.0714 58.5482 27.9134 58.5482 27.732C58.5482 27.4901 58.6057 27.2834 58.7208 27.1117C58.8379 26.94 59.0017 26.8084 59.2124 26.7167C59.425 26.625 59.6728 26.5792 59.9556 26.5792C60.18 26.5792 60.3906 26.6026 60.5876 26.6494C60.7866 26.6962 60.9817 26.7625 61.1729 26.8483L60.9505 27.4131C60.7749 27.3409 60.6042 27.2834 60.4384 27.2404C60.2746 27.1975 60.1068 27.1761 59.9351 27.1761C59.7869 27.1761 59.6611 27.1985 59.5577 27.2434C59.4543 27.2882 59.3753 27.3516 59.3207 27.4336C59.268 27.5135 59.2417 27.6091 59.2417 27.7203C59.2417 27.8452 59.2719 27.9505 59.3324 28.0363C59.3948 28.1202 59.4904 28.1972 59.6191 28.2675C59.7498 28.3377 59.9176 28.4157 60.1224 28.5016C60.3584 28.5991 60.5584 28.7015 60.7222 28.8088C60.8881 28.9161 61.0148 29.0448 61.1026 29.195C61.1904 29.3433 61.2343 29.5296 61.2343 29.7539ZM63.0182 30.9185V26.6406H63.7205V30.9185H63.0182ZM67.5351 28.5952H69.1327V30.7429C68.9084 30.817 68.6762 30.8746 68.4363 30.9155C68.1964 30.9565 67.9272 30.977 67.6287 30.977C67.1937 30.977 66.825 30.8911 66.5227 30.7195C66.2223 30.5459 65.994 30.2952 65.838 29.9675C65.6819 29.6378 65.6039 29.2409 65.6039 28.7766C65.6039 28.3299 65.6907 27.9427 65.8643 27.615C66.0379 27.2853 66.2906 27.0307 66.6222 26.8513C66.9538 26.6699 67.3556 26.5792 67.8277 26.5792C68.0598 26.5792 68.2842 26.6026 68.5007 26.6494C68.7192 26.6942 68.9191 26.7567 69.1005 26.8366L68.8547 27.416C68.7104 27.3477 68.5485 27.2902 68.369 27.2434C68.1895 27.1965 68.0033 27.1731 67.8101 27.1731C67.5039 27.1731 67.2396 27.2395 67.0172 27.3721C66.7968 27.5048 66.627 27.692 66.5081 27.9339C66.3891 28.1738 66.3296 28.4577 66.3296 28.7854C66.3296 29.1033 66.3774 29.3823 66.4729 29.6222C66.5685 29.8622 66.7178 30.0494 66.9206 30.184C67.1254 30.3167 67.3898 30.383 67.7136 30.383C67.8755 30.383 68.013 30.3742 68.1261 30.3567C68.2393 30.3391 68.3436 30.3196 68.4392 30.2981V29.195H67.5351V28.5952ZM74.6854 30.9185H73.8222L71.7272 27.5038H71.7008C71.7086 27.6189 71.7155 27.7408 71.7213 27.8695C71.7291 27.9983 71.735 28.1309 71.7389 28.2675C71.7447 28.404 71.7496 28.5425 71.7535 28.683V30.9185H71.1156V26.6406H71.9729L74.0651 30.0319H74.0855C74.0816 29.9324 74.0768 29.8183 74.0709 29.6895C74.0651 29.5608 74.0592 29.4281 74.0533 29.2916C74.0494 29.1531 74.0465 29.0195 74.0446 28.8907V26.6406H74.6854V30.9185ZM80.5619 26.5762C80.7823 26.5762 80.9754 26.6123 81.1412 26.6845C81.309 26.7567 81.4397 26.862 81.5333 27.0005C81.627 27.1371 81.6738 27.3038 81.6738 27.5009C81.6738 27.7642 81.5919 27.9866 81.428 28.168C81.2641 28.3494 81.0574 28.5113 80.8077 28.6537L81.8172 29.6369C81.9127 29.5062 81.9917 29.3628 82.0542 29.2067C82.1166 29.0487 82.1702 28.8829 82.2151 28.7093H82.9261C82.8657 28.9512 82.7818 29.1901 82.6745 29.4262C82.5672 29.6603 82.4316 29.8748 82.2678 30.0699L83.1368 30.9185H82.2561L81.823 30.4942C81.7021 30.5917 81.5723 30.6766 81.4338 30.7487C81.2973 30.8209 81.1481 30.8775 80.9862 30.9185C80.8243 30.9575 80.6458 30.977 80.4507 30.977C80.1522 30.977 79.8948 30.9292 79.6782 30.8336C79.4617 30.738 79.2949 30.6015 79.1779 30.424C79.0628 30.2445 79.0052 30.0319 79.0052 29.7861C79.0052 29.5813 79.0394 29.4057 79.1077 29.2594C79.1779 29.1111 79.2774 28.9814 79.4061 28.8702C79.5349 28.7571 79.689 28.6498 79.8684 28.5484C79.7709 28.4372 79.686 28.3289 79.6139 28.2236C79.5417 28.1182 79.4861 28.01 79.4471 27.8988C79.41 27.7857 79.3915 27.6647 79.3915 27.536C79.3915 27.337 79.4402 27.1663 79.5378 27.0239C79.6353 26.8796 79.7719 26.7693 79.9474 26.6933C80.123 26.6152 80.3278 26.5762 80.5619 26.5762ZM80.2751 28.9668C80.162 29.039 80.0645 29.1121 79.9825 29.1862C79.9006 29.2584 79.8372 29.3384 79.7923 29.4262C79.7494 29.514 79.728 29.6164 79.728 29.7334C79.728 29.9343 79.7982 30.0933 79.9386 30.2104C80.081 30.3274 80.2644 30.3859 80.4887 30.3859C80.6858 30.3859 80.8584 30.3567 81.0066 30.2981C81.1569 30.2377 81.2875 30.1626 81.3987 30.0728L80.2751 28.9668ZM80.5502 27.1205C80.4117 27.1205 80.2917 27.1566 80.1903 27.2287C80.0908 27.3009 80.0411 27.4131 80.0411 27.5652C80.0411 27.6881 80.0732 27.8042 80.1376 27.9134C80.2039 28.0207 80.2956 28.1368 80.4127 28.2616C80.6175 28.1485 80.7696 28.0373 80.8691 27.9281C80.9706 27.8188 81.0213 27.692 81.0213 27.5477C81.0213 27.4111 80.9754 27.3058 80.8838 27.2317C80.7921 27.1575 80.6809 27.1205 80.5502 27.1205ZM90.6607 28.7386C90.6607 29.2204 90.5709 29.6232 90.3915 29.947C90.212 30.2689 89.9516 30.5117 89.6102 30.6756C89.2689 30.8375 88.8573 30.9185 88.3754 30.9185H87.1875V26.6406H88.5042C88.947 26.6406 89.3293 26.7206 89.6512 26.8805C89.9731 27.0385 90.2218 27.2736 90.3973 27.5857C90.5729 27.8959 90.6607 28.2802 90.6607 28.7386ZM89.9292 28.759C89.9292 28.4079 89.8736 28.1192 89.7624 27.8929C89.6531 27.6667 89.4912 27.4989 89.2767 27.3897C89.064 27.2785 88.8017 27.2229 88.4896 27.2229H87.8897V30.3303H88.3871C88.9041 30.3303 89.2903 30.1987 89.5459 29.9353C89.8014 29.672 89.9292 29.2799 89.9292 28.759ZM94.9639 30.9185H92.5412V26.6406H94.9639V27.2317H93.2434V28.3933H94.8557V28.9814H93.2434V30.3245H94.9639V30.9185ZM99.3169 29.7539C99.3169 30.0075 99.2545 30.226 99.1297 30.4093C99.0068 30.5927 98.8293 30.7331 98.5971 30.8307C98.3669 30.9282 98.0919 30.977 97.772 30.977C97.6159 30.977 97.4667 30.9682 97.3243 30.9506C97.1819 30.9331 97.0473 30.9077 96.9205 30.8746C96.7957 30.8395 96.6815 30.7975 96.5782 30.7487V30.0875C96.7518 30.1635 96.9459 30.2328 97.1604 30.2952C97.375 30.3557 97.5935 30.3859 97.8159 30.3859C97.9973 30.3859 98.1475 30.3625 98.2665 30.3157C98.3874 30.2669 98.4772 30.1987 98.5357 30.1109C98.5942 30.0211 98.6235 29.9168 98.6235 29.7978C98.6235 29.671 98.5893 29.5637 98.521 29.4759C98.4528 29.3881 98.3494 29.3082 98.2109 29.236C98.0743 29.1619 97.9027 29.0829 97.6959 28.999C97.5555 28.9424 97.4209 28.878 97.2921 28.8059C97.1653 28.7337 97.0522 28.6488 96.9527 28.5513C96.8532 28.4538 96.7742 28.3387 96.7157 28.206C96.6591 28.0714 96.6308 27.9134 96.6308 27.732C96.6308 27.4901 96.6884 27.2834 96.8035 27.1117C96.9205 26.94 97.0844 26.8084 97.295 26.7167C97.5077 26.625 97.7554 26.5792 98.0383 26.5792C98.2626 26.5792 98.4733 26.6026 98.6703 26.6494C98.8692 26.6962 99.0643 26.7625 99.2555 26.8483L99.0331 27.4131C98.8575 27.3409 98.6869 27.2834 98.521 27.2404C98.3572 27.1975 98.1894 27.1761 98.0178 27.1761C97.8695 27.1761 97.7437 27.1985 97.6403 27.2434C97.5369 27.2882 97.4579 27.3516 97.4033 27.4336C97.3506 27.5135 97.3243 27.6091 97.3243 27.7203C97.3243 27.8452 97.3545 27.9505 97.415 28.0363C97.4774 28.1202 97.573 28.1972 97.7018 28.2675C97.8325 28.3377 98.0002 28.4157 98.205 28.5016C98.4411 28.5991 98.641 28.7015 98.8049 28.8088C98.9707 28.9161 99.0975 29.0448 99.1853 29.195C99.273 29.3433 99.3169 29.5296 99.3169 29.7539ZM103.524 30.9185H101.101V26.6406H103.524V27.2317H101.803V28.3933H103.415V28.9814H101.803V30.3245H103.524V30.9185ZM108.977 30.9185H108.114L106.019 27.5038H105.992C106 27.6189 106.007 27.7408 106.013 27.8695C106.021 27.9983 106.026 28.1309 106.03 28.2675C106.036 28.404 106.041 28.5425 106.045 28.683V30.9185H105.407V26.6406H106.264L108.356 30.0319H108.377C108.373 29.9324 108.368 29.8183 108.362 29.6895C108.356 29.5608 108.351 29.4281 108.345 29.2916C108.341 29.1531 108.338 29.0195 108.336 28.8907V26.6406H108.977V30.9185ZM114.231 26.6406L112.736 30.9185H111.993L110.497 26.6406H111.217L112.118 29.3208C112.146 29.3989 112.175 29.4935 112.206 29.6047C112.239 29.7159 112.27 29.828 112.297 29.9412C112.326 30.0543 112.349 30.1548 112.364 30.2425C112.38 30.1548 112.401 30.0543 112.429 29.9412C112.458 29.828 112.488 29.7159 112.519 29.6047C112.55 29.4935 112.58 29.3979 112.607 29.3179L113.511 26.6406H114.231ZM119.55 28.7737C119.55 29.1033 119.508 29.4037 119.424 29.6749C119.342 29.9441 119.218 30.1762 119.052 30.3713C118.886 30.5644 118.679 30.7136 118.429 30.819C118.179 30.9243 117.887 30.977 117.551 30.977C117.21 30.977 116.913 30.9243 116.662 30.819C116.412 30.7136 116.204 30.5634 116.038 30.3684C115.875 30.1733 115.752 29.9402 115.67 29.669C115.588 29.3979 115.547 29.0975 115.547 28.7678C115.547 28.327 115.619 27.9427 115.763 27.615C115.91 27.2853 116.131 27.0298 116.428 26.8483C116.726 26.665 117.102 26.5733 117.557 26.5733C118.002 26.5733 118.371 26.664 118.666 26.8454C118.96 27.0268 119.181 27.2824 119.327 27.612C119.475 27.9398 119.55 28.327 119.55 28.7737ZM116.284 28.7737C116.284 29.1033 116.329 29.3891 116.419 29.631C116.508 29.8709 116.646 30.0563 116.831 30.1869C117.019 30.3157 117.259 30.3801 117.551 30.3801C117.846 30.3801 118.086 30.3157 118.271 30.1869C118.456 30.0563 118.593 29.8709 118.681 29.631C118.768 29.3891 118.812 29.1033 118.812 28.7737C118.812 28.2724 118.712 27.8803 118.511 27.5974C118.312 27.3126 117.994 27.1702 117.557 27.1702C117.264 27.1702 117.023 27.2346 116.834 27.3633C116.647 27.4921 116.508 27.6764 116.419 27.9164C116.329 28.1543 116.284 28.4401 116.284 28.7737ZM121.427 30.9185V26.6406H122.129V30.3215H123.946V30.9185H121.427ZM128.817 26.6406L127.322 30.9185H126.579L125.084 26.6406H125.804L126.705 29.3208C126.732 29.3989 126.761 29.4935 126.793 29.6047C126.826 29.7159 126.856 29.828 126.883 29.9412C126.913 30.0543 126.935 30.1548 126.951 30.2425C126.966 30.1548 126.988 30.0543 127.015 29.9412C127.044 29.828 127.074 29.7159 127.106 29.6047C127.137 29.4935 127.166 29.3979 127.193 29.3179L128.098 26.6406H128.817ZM130.338 30.9185V26.6406H131.04V30.9185H130.338ZM134.975 30.9185L133.743 27.3458H133.717C133.722 27.4258 133.729 27.535 133.737 27.6735C133.745 27.812 133.752 27.9602 133.758 28.1182C133.763 28.2763 133.766 28.4274 133.766 28.5718V30.9185H133.128V26.6406H134.115L135.3 30.0553H135.317L136.543 26.6406H137.526V30.9185H136.856V28.5367C136.856 28.406 136.858 28.2645 136.862 28.1124C136.868 27.9602 136.874 27.8159 136.88 27.6793C136.887 27.5428 136.893 27.4336 136.897 27.3516H136.874L135.595 30.9185H134.975ZM142.034 30.9185H139.612V26.6406H142.034V27.2317H140.314V28.3933H141.926V28.9814H140.314V30.3245H142.034V30.9185ZM147.488 30.9185H146.624L144.529 27.5038H144.503C144.511 27.6189 144.518 27.7408 144.524 27.8695C144.531 27.9983 144.537 28.1309 144.541 28.2675C144.547 28.404 144.552 28.5425 144.556 28.683V30.9185H143.918V26.6406H144.775L146.867 30.0319H146.888C146.884 29.9324 146.879 29.8183 146.873 29.6895C146.867 29.5608 146.861 29.4281 146.856 29.2916C146.852 29.1531 146.849 29.0195 146.847 28.8907V26.6406H147.488V30.9185ZM151.053 30.9185H150.348V27.2375H149.096V26.6406H152.303V27.2375H151.053V30.9185ZM157.715 28.7737C157.715 29.1033 157.673 29.4037 157.589 29.6749C157.507 29.9441 157.383 30.1762 157.218 30.3713C157.052 30.5644 156.844 30.7136 156.594 30.819C156.345 30.9243 156.052 30.977 155.717 30.977C155.375 30.977 155.079 30.9243 154.827 30.819C154.577 30.7136 154.37 30.5634 154.204 30.3684C154.04 30.1733 153.917 29.9402 153.835 29.669C153.753 29.3979 153.712 29.0975 153.712 28.7678C153.712 28.327 153.784 27.9427 153.929 27.615C154.075 27.2853 154.297 27.0298 154.593 26.8483C154.891 26.665 155.268 26.5733 155.722 26.5733C156.167 26.5733 156.537 26.664 156.831 26.8454C157.126 27.0268 157.346 27.2824 157.493 27.612C157.641 27.9398 157.715 28.327 157.715 28.7737ZM154.45 28.7737C154.45 29.1033 154.495 29.3891 154.584 29.631C154.674 29.8709 154.812 30.0563 154.997 30.1869C155.184 30.3157 155.424 30.3801 155.717 30.3801C156.011 30.3801 156.251 30.3157 156.436 30.1869C156.622 30.0563 156.758 29.8709 156.846 29.631C156.934 29.3891 156.978 29.1033 156.978 28.7737C156.978 28.2724 156.877 27.8803 156.676 27.5974C156.477 27.3126 156.159 27.1702 155.722 27.1702C155.43 27.1702 155.189 27.2346 155 27.3633C154.812 27.4921 154.674 27.6764 154.584 27.9164C154.495 28.1543 154.45 28.4401 154.45 28.7737Z" fill="white"/>
</svg>
