<svg width="33" height="32" viewBox="0 0 33 32" fill="none" xmlns="http://www.w3.org/2000/svg">
<path fill-rule="evenodd" clip-rule="evenodd" d="M14.7919 3.09197C15.3773 2.81216 16.0178 2.66693 16.6666 2.66693C17.3154 2.66693 17.9559 2.81216 18.5413 3.09197C19.0573 3.33864 19.5279 3.74131 20.1826 4.29864L20.2866 4.38664C20.6039 4.65731 20.7039 4.73997 20.8053 4.80797C21.0626 4.98131 21.3519 5.09997 21.6546 5.15997C21.7746 5.18397 21.9039 5.19597 22.3199 5.22797L22.4546 5.23864C23.3106 5.30664 23.9293 5.35597 24.4679 5.54531C25.0799 5.76214 25.6356 6.11288 26.0947 6.57193C26.5537 7.03097 26.9044 7.58673 27.1213 8.19864C27.3106 8.73731 27.3586 9.35597 27.4279 10.212L27.4386 10.3466C27.4706 10.7626 27.4826 10.8933 27.5066 11.012C27.5666 11.316 27.6866 11.6053 27.8586 11.8626C27.9266 11.9626 28.0093 12.0626 28.2799 12.38L28.3679 12.484C28.9266 13.1373 29.3279 13.6093 29.5746 14.124C30.1413 15.3106 30.1413 16.6893 29.5746 17.8746C29.3293 18.3906 28.9266 18.8613 28.3679 19.516L28.2799 19.62C28.1309 19.7857 27.9903 19.9588 27.8586 20.1386C27.6853 20.396 27.5666 20.6853 27.5066 20.988C27.4826 21.108 27.4719 21.2373 27.4386 21.6533L27.4266 21.788C27.3599 22.644 27.3106 23.2626 27.1199 23.8013C26.9041 24.4135 26.5538 24.9697 26.0949 25.4288C25.636 25.888 25.0801 26.2385 24.4679 26.4546C23.9293 26.644 23.3106 26.692 22.4546 26.7613L22.3199 26.772C22.0972 26.7835 21.8751 26.8062 21.6546 26.84C21.3515 26.9015 21.0631 27.021 20.8053 27.192C20.625 27.3236 20.4515 27.4642 20.2853 27.6133L20.1826 27.7013C19.5293 28.26 19.0573 28.6613 18.5426 28.908C17.9571 29.188 17.3163 29.3333 16.6673 29.3333C16.0183 29.3333 15.3775 29.188 14.7919 28.908C14.2759 28.6626 13.8053 28.26 13.1506 27.7013L13.0466 27.6133C12.8813 27.4643 12.7086 27.3237 12.5293 27.192C12.2711 27.0208 11.9822 26.9013 11.6786 26.84C11.4581 26.8062 11.2361 26.7835 11.0133 26.772L10.8786 26.76C10.0226 26.6933 9.40395 26.644 8.86528 26.4533C8.25304 26.2375 7.69693 25.8872 7.23778 25.4283C6.77863 24.9694 6.42811 24.4134 6.21195 23.8013C6.02261 23.2626 5.97328 22.644 5.90528 21.788L5.89461 21.6533C5.88309 21.4305 5.8604 21.2085 5.82661 20.988C5.76511 20.6848 5.64558 20.3964 5.47461 20.1386C5.34296 19.9584 5.20234 19.7848 5.05328 19.6186L4.96528 19.516C4.40795 18.8626 4.00528 18.3906 3.75861 17.876C3.4786 17.2905 3.33325 16.6497 3.33325 16.0006C3.33325 15.3516 3.4786 14.7108 3.75861 14.1253C4.00528 13.6093 4.40795 13.1386 4.96528 12.484L5.05328 12.38C5.20227 12.2147 5.34289 12.042 5.47461 11.8626C5.64795 11.6053 5.76661 11.316 5.82661 11.012C5.85061 10.892 5.86261 10.7626 5.89461 10.3466L5.90528 10.212C5.97328 9.35597 6.02261 8.73731 6.21195 8.19864C6.42794 7.58627 6.77839 7.03007 7.23755 6.57091C7.69671 6.11175 8.25291 5.7613 8.86528 5.54531C9.40395 5.35597 10.0226 5.30664 10.8786 5.23864L11.0133 5.22797C11.2361 5.21645 11.4581 5.19376 11.6786 5.15997C11.9826 5.09997 12.2719 4.97997 12.5293 4.80797C12.6293 4.73997 12.7293 4.65731 13.0466 4.38664L13.1506 4.29864C13.8039 3.74131 14.2773 3.33864 14.7919 3.09197ZM17.6746 4.90264C17.3593 4.75243 17.0145 4.67448 16.6653 4.67448C16.316 4.67448 15.9712 4.75243 15.6559 4.90264C15.4093 5.01997 15.1493 5.23197 14.3479 5.91331L14.3079 5.94664C14.0453 6.17064 13.8546 6.33464 13.6453 6.47464C13.1666 6.79464 12.6306 7.01731 12.0653 7.12797C11.8186 7.17731 11.5679 7.19731 11.2226 7.22531L11.1719 7.22931C10.1226 7.31331 9.79061 7.34797 9.53195 7.43864C8.86528 7.67464 8.33995 8.19864 8.10528 8.86664C8.01195 9.12531 7.97861 9.45731 7.89461 10.5066L7.89061 10.5573C7.86395 10.9026 7.84261 11.1533 7.79461 11.4C7.68261 11.9653 7.46128 12.5013 7.14128 12.98C6.99995 13.1893 6.83595 13.38 6.61195 13.644L6.57861 13.6826C5.89728 14.4826 5.68528 14.744 5.56795 14.9893C5.41753 15.3048 5.33947 15.6498 5.33947 15.9993C5.33947 16.3488 5.41753 16.6939 5.56795 17.0093C5.68528 17.256 5.89728 17.516 6.57861 18.3173L6.61195 18.3573C6.83595 18.62 6.99995 18.8106 7.13995 19.02C7.45995 19.4986 7.68261 20.0346 7.79328 20.6C7.84261 20.8466 7.86261 21.0973 7.89061 21.4426L7.89461 21.4933C7.97861 22.5426 8.01328 22.8746 8.10395 23.1333C8.33995 23.8 8.86395 24.3253 9.53195 24.56C9.79061 24.6533 10.1226 24.6866 11.1719 24.7706L11.2226 24.7746C11.5679 24.8013 11.8186 24.8226 12.0653 24.8706C12.6306 24.9826 13.1666 25.204 13.6453 25.524C13.8546 25.6653 14.0453 25.8293 14.3093 26.0533L14.3479 26.0866C15.1479 26.768 15.4093 26.98 15.6546 27.0973C15.9701 27.2477 16.3151 27.3258 16.6646 27.3258C17.0141 27.3258 17.3592 27.2477 17.6746 27.0973C17.9213 26.98 18.1813 26.768 18.9826 26.0866L19.0226 26.0533C19.2853 25.8293 19.4759 25.6653 19.6853 25.5253C20.1639 25.2053 20.6999 24.9826 21.2653 24.872C21.5443 24.8246 21.8255 24.7922 22.1079 24.7746L22.1586 24.7706C23.2079 24.6866 23.5399 24.652 23.7986 24.5613C24.4653 24.3253 24.9906 23.8013 25.2253 23.1333C25.3186 22.8746 25.3519 22.5413 25.4359 21.4933L25.4399 21.4426C25.457 21.1598 25.489 20.8781 25.5359 20.5986C25.6479 20.0346 25.8693 19.4986 26.1893 19.02C26.3306 18.8106 26.4946 18.62 26.7186 18.356L26.7519 18.3173C27.4333 17.5173 27.6453 17.256 27.7626 17.0106C27.913 16.6952 27.9911 16.3501 27.9911 16.0006C27.9911 15.6512 27.913 15.3061 27.7626 14.9906C27.6453 14.744 27.4333 14.484 26.7519 13.6826L26.7186 13.6426C26.4946 13.38 26.3306 13.1893 26.1906 12.98C25.8716 12.5011 25.6497 11.9643 25.5373 11.4C25.49 11.121 25.4575 10.8397 25.4399 10.5573L25.4359 10.5066C25.3519 9.45731 25.3173 9.12531 25.2266 8.86664C24.9906 8.19997 24.4666 7.67464 23.7986 7.43997C23.5399 7.34664 23.2066 7.31331 22.1586 7.22931L22.1079 7.22531C21.8251 7.20828 21.5434 7.17623 21.2639 7.12931C20.7001 7.01677 20.1638 6.79481 19.6853 6.47597C19.4759 6.33464 19.2853 6.17064 19.0213 5.94664L18.9826 5.91331C18.1826 5.23197 17.9213 5.01997 17.6759 4.90264" fill="#687AF6"/>
<path fill-rule="evenodd" clip-rule="evenodd" d="M21.3906 11.276C21.4838 11.3692 21.5578 11.4799 21.6083 11.6018C21.6587 11.7236 21.6847 11.8541 21.6847 11.986C21.6847 12.1179 21.6587 12.2484 21.6083 12.3703C21.5578 12.4921 21.4838 12.6028 21.3906 12.696L13.3626 20.7227C13.1727 20.9025 12.9202 21.0012 12.6588 20.9977C12.3973 20.9943 12.1475 20.8889 11.9625 20.7041C11.7775 20.5193 11.6719 20.2696 11.6682 20.0081C11.6645 19.7466 11.7629 19.494 11.9426 19.304L19.9706 11.2773C20.0638 11.1841 20.1745 11.1101 20.2963 11.0597C20.4181 11.0092 20.5487 10.9832 20.6806 10.9832C20.8124 10.9832 20.943 11.0092 21.0648 11.0597C21.1867 11.1101 21.2973 11.1841 21.3906 11.2773" fill="#687AF6"/>
<path d="M21.3493 19.3453C21.3549 19.5246 21.3245 19.7031 21.2598 19.8704C21.1951 20.0377 21.0975 20.1903 20.9727 20.3191C20.8479 20.4479 20.6985 20.5503 20.5333 20.6202C20.3682 20.6902 20.1906 20.7262 20.0113 20.7262C19.8319 20.7262 19.6544 20.6902 19.4892 20.6202C19.3241 20.5503 19.1747 20.4479 19.0499 20.3191C18.9251 20.1903 18.8274 20.0377 18.7627 19.8704C18.698 19.7031 18.6676 19.5246 18.6733 19.3453C18.6842 18.9978 18.83 18.6681 19.0798 18.4261C19.3295 18.1842 19.6636 18.0489 20.0113 18.0489C20.359 18.0489 20.6931 18.1842 20.9428 18.4261C21.1925 18.6681 21.3383 18.9978 21.3493 19.3453ZM14.6599 12.6546C14.6656 12.8339 14.6352 13.0125 14.5705 13.1798C14.5058 13.347 14.4081 13.4996 14.2833 13.6284C14.1585 13.7572 14.0091 13.8596 13.844 13.9296C13.6788 13.9995 13.5013 14.0355 13.3219 14.0355C13.1426 14.0355 12.9651 13.9995 12.7999 13.9296C12.6348 13.8596 12.4853 13.7572 12.3605 13.6284C12.2357 13.4996 12.1381 13.347 12.0734 13.1798C12.0087 13.0125 11.9783 12.8339 11.9839 12.6546C11.9949 12.3071 12.1407 11.9774 12.3904 11.7355C12.6401 11.4935 12.9742 11.3582 13.3219 11.3582C13.6697 11.3582 14.0037 11.4935 14.2535 11.7355C14.5032 11.9774 14.649 12.3071 14.6599 12.6546Z" fill="#687AF6"/>
</svg>
