<svg width="33" height="33" viewBox="0 0 33 33" fill="none" xmlns="http://www.w3.org/2000/svg">
<path d="M29.9977 16.8914V16.8846C29.9977 12.8899 28.2586 9.30246 25.497 6.83544L25.4835 6.82419C25.4494 6.78745 25.4113 6.75462 25.3699 6.72632L25.3676 6.7252C22.9147 4.57178 19.7606 3.38704 16.4966 3.39309C13.0859 3.39309 9.97217 4.65978 7.59862 6.74994L7.61324 6.73757C7.58472 6.75937 7.55835 6.78386 7.5345 6.81069C6.10764 8.07427 4.96553 9.62773 4.18379 11.366C3.40206 13.1043 2.99856 14.9888 3 16.8948C3 20.8883 4.73686 24.4758 7.49625 26.9439L7.50975 26.9552C7.54565 26.9956 7.58561 27.0321 7.62899 27.0643L7.63124 27.0654C10.0834 29.2159 13.2352 30.399 16.4966 30.393C19.7733 30.3981 22.9386 29.2041 25.3958 27.0362L25.3811 27.0486C26.8328 25.7864 27.9964 24.2272 28.7933 22.4764C29.5901 20.7256 30.0017 18.824 30 16.9004V16.8925L29.9977 16.8914ZM24.9784 25.6716C24.3095 25.1311 23.5904 24.6557 22.831 24.2519L22.7578 24.2159C23.4474 22.2281 23.8625 19.9366 23.9019 17.5529V17.5349H28.6951C28.5339 20.6189 27.2065 23.5264 24.9818 25.6682L24.9784 25.6716ZM17.1423 23.9786C18.5856 24.0562 19.9343 24.3734 21.1785 24.8898L21.0975 24.8605C20.1008 27.1329 18.6981 28.6944 17.1423 29.0375V23.9786ZM17.1423 22.6916V17.5349H22.6184C22.5748 19.6703 22.2045 21.7865 21.5205 23.8098L21.5643 23.6625C20.168 23.0876 18.6824 22.7595 17.1738 22.6928L17.1434 22.6916H17.1423ZM17.1423 16.2479V11.0911C18.6915 11.0207 20.2167 10.6815 21.6498 10.0888L21.561 10.1214C22.1853 11.9427 22.5689 14.0419 22.6184 16.2243V16.2479H17.1423ZM17.1423 9.80419V4.74753C18.6981 5.09064 20.1008 6.64532 21.0975 8.92448C19.9343 9.4082 18.5856 9.72432 17.1749 9.80306L17.1423 9.80419ZM20.3528 5.30438C21.6787 5.74568 22.9185 6.41243 24.0177 7.2753L23.9919 7.25505C23.4935 7.64653 22.9345 8.01551 22.345 8.33613L22.282 8.36762C21.8069 7.24284 21.1519 6.20291 20.3427 5.28863L20.3528 5.30101V5.30438ZM15.8532 4.75091V9.80419C14.4656 9.73349 13.1004 9.42528 11.817 8.89298L11.898 8.92222C12.8992 6.64982 14.2997 5.08952 15.8554 4.74641L15.8532 4.75091ZM10.7146 8.36425C10.105 8.0359 9.52399 7.65696 8.97775 7.23142L9.00475 7.25167C10.0719 6.41409 11.273 5.76294 12.5572 5.32576L12.6427 5.29988C11.8554 6.18998 11.2142 7.1992 10.7427 8.29L10.7146 8.36425ZM15.8554 11.09V16.2468H10.3794C10.4289 14.0408 10.8125 11.9416 11.4807 9.97293L11.4368 10.1203C12.8332 10.6924 14.3176 11.02 15.8251 11.0889L15.8554 11.09ZM15.8554 17.5337V22.6905C14.3062 22.761 12.781 23.1001 11.3479 23.6928L11.4368 23.6602C10.8125 21.84 10.4289 19.7398 10.3794 17.5574V17.5337H15.8554ZM15.8554 23.9774V29.0341C14.2997 28.691 12.8969 27.1363 11.9003 24.8572C13.0634 24.3734 14.4122 24.0584 15.8228 23.9797L15.8554 23.9774ZM12.6494 28.4773C11.3247 28.0353 10.0853 27.3702 8.9845 26.5108L9.0115 26.5311C9.50983 26.1396 10.0689 25.7706 10.6584 25.45L10.7214 25.4185C11.1929 26.5435 11.8479 27.5825 12.6596 28.493L12.6494 28.4818V28.4773ZM22.2831 25.4174C22.9356 25.7717 23.4947 26.1396 24.02 26.5502L23.993 26.53C22.9258 27.3675 21.7248 28.0187 20.4405 28.4559L20.3551 28.4818C21.1422 27.592 21.7835 26.5832 22.255 25.4928L22.2831 25.4196V25.4174ZM28.6951 16.2479H23.9019C23.8667 13.9204 23.4651 11.613 22.7117 9.41045L22.7578 9.5657C23.5524 9.14718 24.3047 8.65291 25.0043 8.08976L24.9773 8.11001C27.1982 10.2432 28.5263 13.1403 28.6929 16.2153L28.6951 16.2479ZM8.01933 8.11114C8.66728 8.63761 9.39509 9.12022 10.1668 9.53082L10.2399 9.56682C9.55033 11.5546 9.13524 13.8461 9.09587 16.2299V16.2479H4.30152C4.46271 13.1639 5.79013 10.2564 8.01483 8.11451L8.01933 8.11114ZM4.30264 17.5349H9.09587C9.13105 19.8624 9.53269 22.1698 10.286 24.3723L10.2399 24.2171C9.39509 24.6659 8.6684 25.1485 7.99346 25.693L8.02046 25.6727C5.79951 23.5395 4.47147 20.6425 4.30489 17.5675L4.30377 17.536L4.30264 17.5349Z" fill="#687AF6"/>
</svg>
