<svg width="32" height="33" viewBox="0 0 32 33" fill="none" xmlns="http://www.w3.org/2000/svg">
<path d="M7 20.2651C7.55228 20.2651 8 19.8174 8 19.2651C8 18.7129 7.55228 18.2651 7 18.2651C6.44772 18.2651 6 18.7129 6 19.2651C6 19.8174 6.44772 20.2651 7 20.2651Z" fill="#687AF6"/>
<path d="M16 12.2651C16.5523 12.2651 17 11.8174 17 11.2651C17 10.7129 16.5523 10.2651 16 10.2651C15.4477 10.2651 15 10.7129 15 11.2651C15 11.8174 15.4477 12.2651 16 12.2651Z" fill="#687AF6"/>
<path d="M25 20.2651C25.5523 20.2651 26 19.8174 26 19.2651C26 18.7129 25.5523 18.2651 25 18.2651C24.4477 18.2651 24 18.7129 24 19.2651C24 19.8174 24.4477 20.2651 25 20.2651Z" fill="#687AF6"/>
<path d="M10 15.2651C10.5523 15.2651 11 14.8174 11 14.2651C11 13.7129 10.5523 13.2651 10 13.2651C9.44772 13.2651 9 13.7129 9 14.2651C9 14.8174 9.44772 15.2651 10 15.2651Z" fill="#687AF6"/>
<path d="M30 20.2651H28C28 19.0031 27.805 17.7611 27.421 16.5721L29.325 15.9571C29.773 17.3451 30 18.7951 30 20.2651ZM29.85 9.24314L27.414 11.6791C27.039 12.0542 26.5304 12.265 26 12.2651C25.6049 12.2641 25.219 12.1462 24.8908 11.9263C24.5626 11.7063 24.3068 11.3942 24.1556 11.0292C24.0044 10.6642 23.9646 10.2626 24.0412 9.87505C24.1178 9.48747 24.3074 9.13121 24.586 8.85114L27.023 6.41414C26.6899 6.32043 26.346 6.27034 26 6.26514C23.794 6.26514 22 8.06014 22 10.2651C22 11.0051 22.215 11.6901 22.567 12.2851L18.019 16.8331C17.4091 16.4655 16.7111 16.2696 15.999 16.2661C13.794 16.2661 11.999 18.0601 11.999 20.2661C11.999 22.4721 13.794 24.2661 15.999 24.2661C18.204 24.2661 19.999 22.4711 19.999 20.2661C19.999 19.5261 19.785 18.8421 19.433 18.2461L23.981 13.6991C24.5906 14.0666 25.2882 14.2625 26 14.2661C28.206 14.2661 30 12.4711 30 10.2661C29.9945 9.92008 29.944 9.57621 29.85 9.24314ZM16 22.2651C14.897 22.2651 14 21.3681 14 20.2651C14 19.1621 14.897 18.2651 16 18.2651C17.103 18.2651 18 19.1631 18 20.2651C18 21.3671 17.103 22.2651 16 22.2651ZM4 20.2651H2C2 12.5451 8.28 6.26514 16 6.26514C17.47 6.26514 18.92 6.49214 20.307 6.94014L19.693 8.84414C18.4998 8.45941 17.2537 8.26404 16 8.26514C9.383 8.26514 4 13.6481 4 20.2651Z" fill="#687AF6"/>
</svg>
