<svg width="33" height="33" viewBox="0 0 33 33" fill="none" xmlns="http://www.w3.org/2000/svg">
<path d="M12.9445 14.2817L16.9445 18.2817L20.9445 14.2817" stroke="#687AF6" stroke-width="2" stroke-linecap="round" stroke-linejoin="round"/>
<path d="M7.34446 4.61523H26.5445C27.1805 4.61523 27.7911 4.88057 28.2418 5.35257C28.6925 5.82457 28.9445 6.4659 28.9445 7.13523V16.0246C28.9445 19.3632 27.6805 22.5672 25.4298 24.9286C23.1791 27.2899 20.1271 28.6152 16.9445 28.6152C15.3641 28.6155 13.8007 28.2892 12.3525 27.6566C10.8856 27.0156 9.56187 26.0876 8.45912 24.9272C6.20846 22.5659 4.94446 19.3619 4.94446 16.0232V7.1339C4.94446 6.4659 5.19779 5.82457 5.64712 5.35257C5.86529 5.12103 6.12826 4.93628 6.42004 4.80952C6.71183 4.68277 7.02634 4.61667 7.34446 4.61523Z" stroke="#687AF6" stroke-width="2" stroke-linecap="round" stroke-linejoin="round"/>
</svg>
