<svg width="33" height="33" viewBox="0 0 33 33" fill="none" xmlns="http://www.w3.org/2000/svg">
<path d="M6.53177 5.23828H4.88892V26.5954C4.88892 27.0311 5.062 27.449 5.3701 27.7571C5.67819 28.0652 6.09606 28.2383 6.53177 28.2383H27.8889V26.5954H6.53177V5.23828Z" fill="#687AF6"/>
<path d="M27.8891 10.9883H22.1391V12.6311H25.088L18.8534 18.8658L15.3294 15.3336C15.2531 15.2566 15.1622 15.1955 15.0621 15.1538C14.962 15.1121 14.8547 15.0907 14.7462 15.0907C14.6378 15.0907 14.5304 15.1121 14.4303 15.1538C14.3302 15.1955 14.2394 15.2566 14.163 15.3336L8.1748 21.3301L9.33302 22.4883L14.7462 17.0751L18.2702 20.6072C18.3465 20.6842 18.4374 20.7453 18.5375 20.787C18.6376 20.8287 18.7449 20.8502 18.8534 20.8502C18.9618 20.8502 19.0692 20.8287 19.1693 20.787C19.2694 20.7453 19.3602 20.6842 19.4366 20.6072L26.2462 13.7894V16.7383H27.8891V10.9883Z" fill="#687AF6"/>
</svg>
