<svg width="33" height="32" viewBox="0 0 33 32" fill="none" xmlns="http://www.w3.org/2000/svg">
<path d="M4.50575 27.4694L12.9911 18.984M23.6764 15.2107L21.1364 22.8307C21.0959 22.9528 21.0265 23.0634 20.9341 23.153C20.8417 23.2426 20.7291 23.3086 20.6058 23.3454L5.03509 27.9734C4.89481 28.015 4.74579 28.0174 4.60425 27.9803C4.4627 27.9431 4.33406 27.8679 4.23232 27.7627C4.13058 27.6575 4.05964 27.5264 4.02721 27.3837C3.99479 27.241 4.00212 27.0922 4.04842 26.9534L9.10442 11.788C9.14066 11.6791 9.19989 11.5793 9.27811 11.4954C9.35633 11.4114 9.45171 11.3452 9.55775 11.3014L16.7404 8.34403C16.8864 8.28372 17.0471 8.268 17.202 8.29884C17.3569 8.32969 17.4993 8.40573 17.6111 8.51736L23.4831 14.392C23.5882 14.4971 23.6619 14.6293 23.696 14.7739C23.7302 14.9185 23.7234 15.0697 23.6764 15.2107Z" stroke="#687AF6" stroke-width="1.5" stroke-linecap="round" stroke-linejoin="round"/>
<path d="M23.8337 14.7413L27.6044 10.9693C28.1043 10.4692 28.3852 9.79109 28.3852 9.08399C28.3852 8.37688 28.1043 7.69873 27.6044 7.19865L24.7777 4.36932C24.5301 4.12158 24.2361 3.92506 23.9125 3.79098C23.5889 3.6569 23.242 3.58789 22.8917 3.58789C22.5415 3.58789 22.1946 3.6569 21.871 3.79098C21.5474 3.92506 21.2534 4.12158 21.0057 4.36932L17.2351 8.14132M15.8191 16.1547C15.6333 15.969 15.4128 15.8217 15.1701 15.7212C14.9274 15.6208 14.6673 15.5691 14.4046 15.5692C14.1419 15.5692 13.8819 15.621 13.6392 15.7216C13.3966 15.8222 13.1761 15.9695 12.9904 16.1553C12.8047 16.3411 12.6574 16.5616 12.557 16.8043C12.4565 17.047 12.4048 17.3071 12.4049 17.5698C12.405 17.8325 12.4568 18.0925 12.5573 18.3352C12.6579 18.5778 12.8053 18.7983 12.9911 18.984C13.3663 19.359 13.8751 19.5696 14.4055 19.5695C14.936 19.5694 15.4447 19.3585 15.8197 18.9833C16.1948 18.6081 16.4054 18.0993 16.4052 17.5689C16.4051 17.0384 16.1943 16.5297 15.8191 16.1547Z" stroke="#687AF6" stroke-width="1.5" stroke-linecap="round" stroke-linejoin="round"/>
</svg>
