<svg width="32" height="33" viewBox="0 0 32 33" fill="none" xmlns="http://www.w3.org/2000/svg">
<path d="M16 11.0426C14.5333 11.0426 13.2778 11.5649 12.2333 12.6093C11.1889 13.6538 10.6667 14.9093 10.6667 16.376C10.6667 17.496 10.9849 18.508 11.6213 19.412C12.2587 20.316 13.0987 20.9671 14.1413 21.3653C14.3084 21.4409 14.4347 21.5653 14.52 21.7386C14.6036 21.912 14.6107 22.0826 14.5413 22.2506C14.4711 22.408 14.3613 22.5302 14.212 22.6173C14.0627 22.7044 13.9098 22.7129 13.7533 22.6426C12.4218 22.1644 11.3524 21.3551 10.5453 20.2146C9.73822 19.0742 9.33422 17.7946 9.33333 16.376C9.33333 14.5298 9.98311 12.9573 11.2827 11.6586C12.5822 10.36 14.1547 9.7102 16 9.70931C17.4071 9.70931 18.6862 10.1133 19.8373 10.9213C20.9884 11.7284 21.8009 12.7946 22.2747 14.12C22.3396 14.2773 22.3253 14.4346 22.232 14.592C22.1387 14.7493 22.0133 14.8604 21.856 14.9253C21.672 14.9946 21.496 14.9858 21.328 14.8986C21.1609 14.8115 21.0396 14.676 20.964 14.492C20.5658 13.4493 19.9147 12.6138 19.0107 11.9853C18.1067 11.3569 17.1031 11.0426 16 11.0426ZM16 5.70931C13.0222 5.70931 10.5 6.74264 8.43333 8.80931C6.36667 10.876 5.33333 13.3982 5.33333 16.376C5.33333 19.3466 6.33244 21.8489 8.33067 23.8826C10.3289 25.9182 12.7938 26.9666 15.7253 27.028C15.9156 27.0378 16.0769 27.1102 16.2093 27.2453C16.3418 27.3804 16.4053 27.5426 16.4 27.732C16.3947 27.9213 16.3284 28.0831 16.2013 28.2173C16.0742 28.3515 15.9156 28.4155 15.7253 28.4093C14.0604 28.3835 12.5164 28.0355 11.0933 27.3653C9.67111 26.6951 8.43289 25.8102 7.37867 24.7106C6.32444 23.6111 5.49778 22.3418 4.89867 20.9026C4.29956 19.4635 4 17.9546 4 16.376C4 14.7191 4.31556 13.1609 4.94667 11.7013C5.57867 10.2418 6.43511 8.97198 7.516 7.89198C8.596 6.8102 9.86578 5.95375 11.3253 5.32264C12.7849 4.69153 14.3431 4.37598 16 4.37598C19.1644 4.37598 21.9427 5.49242 24.3347 7.72531C26.7267 9.9582 27.9596 12.7418 28.0333 16.076C28.044 16.2609 27.9853 16.4209 27.8573 16.556C27.7302 16.6929 27.572 16.764 27.3827 16.7693C27.1933 16.7746 27.0253 16.708 26.8787 16.5693C26.732 16.4306 26.6538 16.2662 26.644 16.076C26.5667 13.2724 25.4911 10.8435 23.4173 8.78931C21.3427 6.73598 18.8702 5.70931 16 5.70931ZM25.656 27.4026L19.9493 21.676L19.256 23.7866C19.1627 24.0462 18.9858 24.1751 18.7253 24.1733C18.4658 24.1698 18.2978 24.0382 18.2213 23.7786L16.2893 17.3453C16.2351 17.1355 16.2822 16.956 16.4307 16.8066C16.58 16.6582 16.7596 16.6111 16.9693 16.6653L23.4027 18.5973C23.6622 18.6738 23.7933 18.8418 23.796 19.1013C23.7987 19.3609 23.6698 19.5378 23.4093 19.632L21.3 20.3253L27.0333 26.032C27.2236 26.2222 27.3187 26.4506 27.3187 26.7173C27.3187 26.984 27.2236 27.212 27.0333 27.4013C26.8431 27.5906 26.6138 27.6858 26.3453 27.6866C26.0769 27.6875 25.8471 27.5924 25.656 27.4013" fill="#687AF6"/>
</svg>
