<svg width="33" height="33" viewBox="0 0 33 33" fill="none" xmlns="http://www.w3.org/2000/svg">
<path d="M28.111 27.1111H26.7777V7.11108C26.7777 6.75746 26.6372 6.41832 26.3872 6.16828C26.1371 5.91823 25.798 5.77775 25.4444 5.77775C25.0908 5.77775 24.7516 5.91823 24.5016 6.16828C24.2515 6.41832 24.111 6.75746 24.111 7.11108V27.1111H21.4444V12.4444C21.4444 12.0908 21.3039 11.7517 21.0539 11.5016C20.8038 11.2516 20.4647 11.1111 20.111 11.1111C19.7574 11.1111 19.4183 11.2516 19.1682 11.5016C18.9182 11.7517 18.7777 12.0908 18.7777 12.4444V27.1111H16.111V17.7778C16.111 17.4241 15.9706 17.085 15.7205 16.8349C15.4705 16.5849 15.1313 16.4444 14.7777 16.4444C14.4241 16.4444 14.085 16.5849 13.8349 16.8349C13.5849 17.085 13.4444 17.4241 13.4444 17.7778V27.1111H10.7777V23.1111C10.7777 22.7575 10.6372 22.4183 10.3872 22.1683C10.1371 21.9182 9.798 21.7778 9.44438 21.7778C9.09075 21.7778 8.75162 21.9182 8.50157 22.1683C8.25152 22.4183 8.11104 22.7575 8.11104 23.1111V27.1111H5.44438V4.44442C5.44438 4.0908 5.3039 3.75166 5.05385 3.50161C4.8038 3.25156 4.46467 3.11108 4.11104 3.11108C3.75742 3.11108 3.41828 3.25156 3.16823 3.50161C2.91819 3.75166 2.77771 4.0908 2.77771 4.44442V28.4444C2.77771 28.798 2.91819 29.1372 3.16823 29.3872C3.41828 29.6373 3.75742 29.7778 4.11104 29.7778H28.111C28.4647 29.7778 28.8038 29.6373 29.0539 29.3872C29.3039 29.1372 29.4444 28.798 29.4444 28.4444C29.4444 28.0908 29.3039 27.7517 29.0539 27.5016C28.8038 27.2516 28.4647 27.1111 28.111 27.1111Z" fill="#687AF6"/>
</svg>
