<svg width="33" height="33" viewBox="0 0 33 33" fill="none" xmlns="http://www.w3.org/2000/svg">
<path d="M23.9604 14.2266C23.9602 16.1909 23.4076 18.1155 22.3657 19.7807C21.3238 21.4459 19.8346 22.7845 18.0681 23.6437C16.3016 24.5028 14.3292 24.8478 12.376 24.6393C10.4228 24.4308 8.56756 23.6772 7.02227 22.4645M3.05755 15.1718C2.86367 13.0395 3.32811 10.8989 4.38827 9.03869C5.44843 7.17843 7.05337 5.68787 8.98679 4.76787C10.9202 3.84788 13.0892 3.54268 15.2014 3.89339C17.3136 4.24411 19.2676 5.23389 20.8 6.72934M20.8936 21.6314L28.9998 29.7538M28.9998 10.1914V4.62045H23.445" stroke="#687AF6" stroke-width="2" stroke-linecap="round" stroke-linejoin="round"/>
<path d="M3 21.9537L12.6142 12.3429C12.8199 12.1387 13.098 12.024 13.3879 12.024C13.6777 12.024 13.9559 12.1387 14.1615 12.3429L16.988 15.1706C17.1932 15.3757 17.4715 15.491 17.7616 15.491C18.0518 15.491 18.3301 15.3757 18.5353 15.1706L29 4.62036" stroke="#687AF6" stroke-width="2" stroke-linecap="round" stroke-linejoin="round"/>
</svg>
