<svg width="33" height="33" viewBox="0 0 33 33" fill="none" xmlns="http://www.w3.org/2000/svg">
<path d="M24.9584 16.2393C23.9297 15.3857 22.6218 14.9326 21.2799 14.9649H12.6537C12.2604 14.9747 11.8692 14.9059 11.5034 14.7625C11.1376 14.6192 10.8047 14.4042 10.5248 14.1306C10.2449 13.8569 10.0237 13.5302 9.87435 13.1699C9.72502 12.8096 9.65066 12.4232 9.65573 12.0338C9.64614 11.8822 9.64614 11.7302 9.65573 11.5787C9.77171 10.8829 10.1403 10.2529 10.6923 9.80706C11.2443 9.36122 11.9418 9.13019 12.6537 9.15733H21.1511C21.8443 9.15673 22.5151 9.39984 23.044 9.84332C23.5729 10.2868 23.9254 10.9018 24.0388 11.5787H26.7977C26.6822 10.1749 26.0372 8.86557 24.991 7.91097C23.9448 6.95638 22.574 6.42644 21.1511 6.42651H18.2451V2.23926H15.946V6.42651H12.6537C11.2308 6.42644 9.86004 6.95638 8.81384 7.91097C7.76764 8.86557 7.12269 10.1749 7.00719 11.5787C6.9976 11.7302 6.9976 11.8822 7.00719 12.0338C7.00719 12.7678 7.15324 13.4945 7.43701 14.1726C7.72077 14.8507 8.1367 15.4669 8.66103 15.9859C9.71996 17.034 11.1562 17.6229 12.6537 17.6229H21.3718C21.762 17.6132 22.1502 17.6808 22.5136 17.822C22.8769 17.9631 23.2081 18.1747 23.4875 18.4445C23.7669 18.7143 23.9889 19.0367 24.1404 19.3927C24.292 19.7487 24.37 20.1312 24.3699 20.5175C24.3876 20.7235 24.3876 20.9306 24.3699 21.1365C24.2238 21.7771 23.8621 22.3495 23.344 22.7597C22.826 23.1699 22.1824 23.3936 21.519 23.394H12.8744C12.211 23.3936 11.5675 23.1699 11.0494 22.7597C10.5314 22.3495 10.1696 21.7771 10.0236 21.1365H7.2463C7.40436 22.5044 8.06532 23.7669 9.10325 24.6835C10.1412 25.6 11.4835 26.1066 12.8744 26.1066H15.946V30.2393H18.2451V26.1066H21.3718C22.7628 26.1066 24.1051 25.6 25.143 24.6835C26.181 23.7669 26.8419 22.5044 27 21.1365V20.5175C26.9978 19.6998 26.8137 18.8926 26.4609 18.1532C26.108 17.4138 25.5951 16.7604 24.9584 16.2393Z" fill="#687AF6"/>
</svg>
