<svg width="33" height="33" viewBox="0 0 33 33" fill="none" xmlns="http://www.w3.org/2000/svg">
<path d="M4.11108 21.7948V11.1281C4.11108 9.35998 4.81346 7.66429 6.06371 6.41405C7.31395 5.1638 9.00964 4.46143 10.7778 4.46143H21.4444C23.2125 4.46143 24.9082 5.1638 26.1585 6.41405C27.4087 7.66429 28.1111 9.35998 28.1111 11.1281V21.7948C28.1111 23.5629 27.4087 25.2586 26.1585 26.5088C24.9082 27.759 23.2125 28.4614 21.4444 28.4614H10.7778C9.00964 28.4614 7.31395 27.759 6.06371 26.5088C4.81346 25.2586 4.11108 23.5629 4.11108 21.7948Z" stroke="#687AF6" stroke-width="2"/>
<path d="M22.1111 19.7949C22.1111 19.7949 20.1111 22.4616 16.1111 22.4616C12.1111 22.4616 10.1111 19.7949 10.1111 19.7949" stroke="#687AF6" stroke-width="2" stroke-linecap="round" stroke-linejoin="round"/>
<path d="M11.4444 13.7948C11.2676 13.7948 11.098 13.7245 10.973 13.5995C10.8479 13.4745 10.7777 13.3049 10.7777 13.1281C10.7777 12.9513 10.8479 12.7817 10.973 12.6567C11.098 12.5317 11.2676 12.4614 11.4444 12.4614C11.6212 12.4614 11.7908 12.5317 11.9158 12.6567C12.0408 12.7817 12.111 12.9513 12.111 13.1281C12.111 13.3049 12.0408 13.4745 11.9158 13.5995C11.7908 13.7245 11.6212 13.7948 11.4444 13.7948ZM20.7777 13.7948C20.6009 13.7948 20.4313 13.7245 20.3063 13.5995C20.1813 13.4745 20.111 13.3049 20.111 13.1281C20.111 12.9513 20.1813 12.7817 20.3063 12.6567C20.4313 12.5317 20.6009 12.4614 20.7777 12.4614C20.9545 12.4614 21.1241 12.5317 21.2491 12.6567C21.3741 12.7817 21.4444 12.9513 21.4444 13.1281C21.4444 13.3049 21.3741 13.4745 21.2491 13.5995C21.1241 13.7245 20.9545 13.7948 20.7777 13.7948Z" fill="#687AF6" stroke="#687AF6" stroke-width="2" stroke-linecap="round" stroke-linejoin="round"/>
</svg>
