<svg width="33" height="33" viewBox="0 0 33 33" fill="none" xmlns="http://www.w3.org/2000/svg">
<path d="M30 22.3739C30 22.8499 29.9121 23.2995 29.7363 23.7226C29.5605 24.1457 29.3057 24.5291 28.9717 24.8729L24.0938 29.752L19.2158 24.8729C18.8818 24.5379 18.627 24.1589 18.4512 23.7358C18.2754 23.3127 18.1875 22.8587 18.1875 22.3739C18.1875 21.8891 18.2798 21.4307 18.4644 20.9988C18.6489 20.5668 18.8994 20.1922 19.2158 19.8749C19.5322 19.5575 19.9014 19.3019 20.3232 19.108C20.7451 18.914 21.2065 18.8215 21.7075 18.8303C22.147 18.8303 22.5732 18.9052 22.9863 19.0551C23.3994 19.2049 23.7686 19.4385 24.0938 19.7559C24.4277 19.4473 24.7969 19.2182 25.2012 19.0683C25.6055 18.9185 26.0317 18.8391 26.48 18.8303C26.9722 18.8303 27.4292 18.9229 27.8511 19.108C28.2729 19.2931 28.6465 19.5443 28.9717 19.8617C29.2969 20.179 29.5474 20.558 29.7231 20.9988C29.8989 21.4395 29.9912 21.8979 30 22.3739ZM28.3125 22.3739C28.3125 22.1183 28.2642 21.8803 28.1675 21.6599C28.0708 21.4395 27.939 21.2412 27.772 21.0649C27.605 20.8886 27.4116 20.7564 27.1919 20.6682C26.9722 20.5801 26.7305 20.5316 26.4668 20.5228C25.9658 20.5228 25.5352 20.7035 25.1748 21.0649L24.0938 22.1491L23.0127 21.0649C22.8369 20.8886 22.6392 20.7564 22.4194 20.6682C22.1997 20.5801 21.9668 20.5316 21.7207 20.5228C21.4658 20.5228 21.2285 20.5712 21.0088 20.6682C20.7891 20.7652 20.5913 20.8974 20.4155 21.0649C20.2397 21.2324 20.1079 21.4263 20.02 21.6467C19.9321 21.867 19.8838 22.1094 19.875 22.3739C19.875 22.8763 20.0552 23.3083 20.4155 23.6697L24.0938 27.3587L27.772 23.6697C28.1323 23.3083 28.3125 22.8763 28.3125 22.3739ZM18.1875 17.9841C17.4229 17.4111 16.6274 16.988 15.8013 16.7147C14.9751 16.4415 14.083 16.3004 13.125 16.2916C11.9473 16.2916 10.8442 16.5076 9.81592 16.9395C8.7876 17.3714 7.89551 17.9709 7.13965 18.7378C6.38379 19.5046 5.78613 20.4038 5.34668 21.4351C4.90723 22.4664 4.6875 23.5727 4.6875 24.7539H3C3 23.6873 3.15381 22.6648 3.46143 21.6863C3.76904 20.7079 4.2085 19.7999 4.77979 18.9625C5.35107 18.1251 6.03662 17.3935 6.83643 16.7676C7.63623 16.1418 8.5415 15.6349 9.55225 15.2471C9.06885 14.9473 8.63379 14.5859 8.24707 14.1628C7.86035 13.7397 7.52637 13.2813 7.24512 12.7877C6.96387 12.2941 6.74854 11.7696 6.59912 11.2142C6.44971 10.6589 6.375 10.0948 6.375 9.52179C6.375 8.58741 6.55078 7.71033 6.90234 6.89054C7.25391 6.07076 7.7373 5.35675 8.35254 4.74853C8.96777 4.1403 9.68408 3.65548 10.5015 3.29407C11.3188 2.93266 12.1934 2.75195 13.125 2.75195C14.0566 2.75195 14.9312 2.92825 15.7485 3.28085C16.5659 3.63344 17.2778 4.11826 17.8843 4.7353C18.4907 5.35234 18.9741 6.07076 19.3345 6.89054C19.6948 7.71033 19.875 8.58741 19.875 9.52179C19.875 10.0948 19.8003 10.6545 19.6509 11.201C19.5015 11.7475 19.2905 12.272 19.0181 12.7745C18.7456 13.2769 18.4116 13.7397 18.0161 14.1628C17.6206 14.5859 17.1812 14.9473 16.6978 15.2471C17.2778 15.4498 17.8096 15.7054 18.293 16.014C18.7764 16.3225 19.2554 16.6839 19.73 17.0982C19.4399 17.1951 19.1719 17.3186 18.9258 17.4684C18.6797 17.6183 18.4336 17.7902 18.1875 17.9841ZM18.1875 9.52179C18.1875 8.82541 18.0557 8.17311 17.792 7.56488C17.5283 6.95665 17.1636 6.41895 16.6978 5.95176C16.2319 5.48457 15.6958 5.11875 15.0894 4.8543C14.4829 4.58986 13.8281 4.45323 13.125 4.44441C12.4307 4.44441 11.7803 4.57663 11.1738 4.84108C10.5674 5.10553 10.0312 5.47135 9.56543 5.93853C9.09961 6.40572 8.73486 6.94343 8.47119 7.55166C8.20752 8.15989 8.07129 8.8166 8.0625 9.52179C8.0625 10.2182 8.19434 10.8705 8.45801 11.4787C8.72168 12.0869 9.08643 12.6246 9.55225 13.0918C10.0181 13.559 10.5542 13.9248 11.1606 14.1893C11.7671 14.4537 12.4219 14.5903 13.125 14.5992C13.8193 14.5992 14.4697 14.4669 15.0762 14.2025C15.6826 13.938 16.2188 13.5722 16.6846 13.105C17.1504 12.6378 17.5151 12.1001 17.7788 11.4919C18.0425 10.8837 18.1787 10.227 18.1875 9.52179Z" fill="#687AF6"/>
</svg>
