<svg width="32" height="33" viewBox="0 0 32 33" fill="none" xmlns="http://www.w3.org/2000/svg">
<path d="M4.66663 9.82056C4.66663 9.55534 4.77198 9.30099 4.95952 9.11345C5.14706 8.92591 5.40141 8.82056 5.66663 8.82056H26.3346C26.5998 8.82056 26.8542 8.92591 27.0417 9.11345C27.2293 9.30099 27.3346 9.55534 27.3346 9.82056V21.5046L29.3346 22.9659V9.82056C29.3346 9.02491 29.0186 8.26185 28.4559 7.69924C27.8933 7.13663 27.1303 6.82056 26.3346 6.82056H5.66663C4.87098 6.82056 4.10791 7.13663 3.54531 7.69924C2.9827 8.26185 2.66663 9.02491 2.66663 9.82056V23.8206C2.66663 24.6162 2.9827 25.3793 3.54531 25.9419C4.10791 26.5045 4.87098 26.8206 5.66663 26.8206H18.2053L17.9893 24.8206H5.66663C5.40141 24.8206 5.14706 24.7152 4.95952 24.5277C4.77198 24.3401 4.66663 24.0858 4.66663 23.8206V9.82056Z" fill="#687AF6"/>
<path d="M24.9334 19.6393H24.7827L23.3041 18.5593L22.9281 16.7646C22.9227 16.7486 22.9147 16.7406 22.9041 16.7406C22.8934 16.7406 22.8854 16.7486 22.8801 16.7646L22.6401 18.074L22.2827 17.814C21.6912 17.3814 20.9617 17.1803 20.2321 17.2486L19.4627 14.6473L18.5907 17.9326C18.0641 18.3726 17.7067 18.9753 17.5721 19.6393H16.7467C16.6721 19.6393 16.6267 19.6046 16.6107 19.5353L16.0307 16.7646C16.0254 16.7486 16.0174 16.7406 16.0067 16.7406C15.9961 16.7406 15.9876 16.7486 15.9814 16.7646L15.4747 19.5273C15.4587 19.602 15.4156 19.6393 15.3454 19.6393H14.1454C14.1144 19.6393 14.0841 19.631 14.0574 19.6153C14.0323 19.5953 14.0152 19.5669 14.0094 19.5353L12.5641 14.6473L11.2654 19.5353C11.2494 19.6046 11.2067 19.6393 11.1374 19.6393H9.84806C9.77339 19.6393 9.72806 19.6046 9.71206 19.5353L9.13206 16.7646C9.12672 16.7486 9.11872 16.7406 9.10806 16.7406C9.09739 16.7406 9.08939 16.7486 9.08406 16.7646L8.57739 19.5273C8.5605 19.602 8.51695 19.6393 8.44672 19.6393H7.24672C7.21577 19.6393 7.18539 19.631 7.15872 19.6153C7.13361 19.5953 7.11657 19.5669 7.11072 19.5353L5.51606 14.1393C5.51135 14.1264 5.50866 14.113 5.50806 14.0993C5.50806 14.0344 5.54539 14.002 5.62006 14.002H6.98939C7.0605 14.002 7.10361 14.0371 7.11872 14.1073L7.80272 16.7326C7.80806 16.7486 7.81606 16.7593 7.82672 16.7646C7.83739 16.7646 7.84539 16.754 7.85072 16.7326L8.39072 14.106C8.40672 14.0366 8.4525 14.002 8.52806 14.002H9.70406C9.77339 14.002 9.81606 14.0371 9.83206 14.1073L10.4361 16.7326C10.4414 16.754 10.4494 16.7646 10.4601 16.7646C10.4716 16.7646 10.4801 16.754 10.4854 16.7326L11.0894 14.106C11.1054 14.0366 11.1481 14.002 11.2174 14.002H13.8881C13.9583 14.002 14.0014 14.0371 14.0174 14.1073L14.7014 16.7326C14.7067 16.7486 14.7147 16.7593 14.7254 16.7646C14.7361 16.7646 14.7441 16.754 14.7494 16.7326L15.2894 14.106C15.3054 14.0366 15.3512 14.002 15.4267 14.002H16.6014C16.6725 14.002 16.7156 14.0371 16.7307 14.1073L17.3347 16.7326C17.3401 16.754 17.3481 16.7646 17.3587 16.7646C17.3694 16.7646 17.3774 16.754 17.3827 16.7326L17.9867 14.106C18.0036 14.0366 18.0467 14.002 18.1161 14.002H20.7867C20.8561 14.002 20.8992 14.0371 20.9161 14.1073L21.6001 16.7326C21.6054 16.7486 21.6134 16.7593 21.6241 16.7646C21.6347 16.7646 21.6427 16.754 21.6481 16.7326L22.1881 14.106C22.2041 14.0366 22.2498 14.002 22.3254 14.002H23.5001C23.5712 14.002 23.6143 14.0371 23.6294 14.1073L24.2334 16.7326C24.2387 16.754 24.2467 16.7646 24.2574 16.7646C24.2681 16.7646 24.2761 16.754 24.2814 16.7326L24.8854 14.106C24.9014 14.0366 24.9445 14.002 25.0147 14.002H26.3921C26.4347 14.002 26.4641 14.0153 26.4801 14.042C26.5014 14.0633 26.5067 14.0957 26.4961 14.1393L25.0627 19.5353C25.0467 19.6046 25.0027 19.6393 24.9334 19.6393Z" fill="#687AF6"/>
<path fill-rule="evenodd" clip-rule="evenodd" d="M20.0093 19.4807C20.177 19.3839 20.3693 19.338 20.5627 19.3484C20.756 19.3588 20.9422 19.4251 21.0986 19.5393L27.5733 24.27C27.731 24.3853 27.8515 24.5442 27.9199 24.7271C27.9883 24.9101 28.0016 25.1091 27.9583 25.2995C27.9149 25.49 27.8166 25.6636 27.6757 25.7988C27.5348 25.9341 27.3574 26.0251 27.1653 26.0607L25.176 26.43L26.244 28.2807C26.3745 28.5102 26.4089 28.7821 26.3397 29.0369C26.2705 29.2918 26.1033 29.5089 25.8746 29.6409C25.646 29.773 25.3743 29.8092 25.119 29.7417C24.8637 29.6742 24.6455 29.5085 24.512 29.2807L23.4426 27.4287L22.128 28.9687C22.0011 29.1172 21.8335 29.2253 21.6458 29.2797C21.4582 29.3341 21.2587 29.3323 21.0721 29.2745C20.8855 29.2168 20.7198 29.1057 20.5956 28.9549C20.4714 28.8041 20.3941 28.6202 20.3733 28.426L19.5146 20.454C19.4937 20.2614 19.5292 20.0669 19.6168 19.8941C19.7044 19.7213 19.8403 19.5777 20.0079 19.4807M22.1119 25.9073L22.38 25.5927C22.8263 25.0708 23.4381 24.7178 24.1133 24.5927L24.5199 24.5167L21.744 22.49L22.1119 25.9073Z" fill="#687AF6"/>
</svg>
