<svg width="33" height="33" viewBox="0 0 33 33" fill="none" xmlns="http://www.w3.org/2000/svg">
<path d="M21.8493 24.744C22.7222 24.744 23.4516 24.4573 24.0373 23.884C24.6231 23.3116 24.9182 22.5724 24.9227 21.6667C24.928 20.7911 24.6356 20.0596 24.0453 19.472C23.4542 18.8836 22.7222 18.5893 21.8493 18.5893C20.9773 18.5893 20.2458 18.8844 19.6547 19.4747C19.0636 20.0649 18.7684 20.7969 18.7693 21.6707C18.7702 22.5444 19.0653 23.2747 19.6547 23.8613C20.244 24.448 20.9756 24.7422 21.8493 24.744ZM21.8467 26.0773C20.6333 26.0773 19.5951 25.6458 18.732 24.7827C17.868 23.9195 17.436 22.8818 17.436 21.6693C17.436 20.4569 17.8676 19.4182 18.7307 18.5533C19.5938 17.6884 20.6316 17.256 21.844 17.256C23.0564 17.256 24.0947 17.688 24.9587 18.552C25.8227 19.416 26.2551 20.4542 26.256 21.6667C26.256 22.1591 26.1822 22.6249 26.0347 23.064C25.8862 23.5031 25.6729 23.9058 25.3947 24.272L28.6667 27.5173L27.7493 28.4613L24.4773 25.1893C24.1111 25.4853 23.7089 25.7076 23.2707 25.856C22.8324 26.0027 22.3578 26.0773 21.8467 26.0773ZM6 26.8147V8.168L12.6667 5.896L20.6667 8.696L27.3333 6.10933V16.4627C26.6071 15.6884 25.7716 15.0973 24.8267 14.6893C23.8818 14.2813 22.888 14.0769 21.8453 14.076C21.5378 14.076 21.2302 14.0956 20.9227 14.1347C20.6151 14.1738 20.3076 14.2329 20 14.312V9.8L13.3333 7.472V23.9813L6 26.8147Z" fill="#687AF6"/>
</svg>
