<svg width="33" height="33" viewBox="0 0 33 33" fill="none" xmlns="http://www.w3.org/2000/svg">
<path d="M17.7408 26.1538C17.7408 25.7005 17.7941 25.2605 17.8608 24.8205H5.74076V11.4871L16.4074 18.1538L27.0741 11.4871V18.2738C28.0341 18.4338 28.9274 18.7671 29.7408 19.2338V8.82048C29.7408 7.35381 28.5408 6.15381 27.0741 6.15381H5.74076C4.2741 6.15381 3.0741 7.35381 3.0741 8.82048V24.8205C3.0741 26.2871 4.2741 27.4871 5.74076 27.4871H17.8608C17.7941 27.0471 17.7408 26.6071 17.7408 26.1538ZM27.0741 8.82048L16.4074 15.4871L5.74076 8.82048H27.0741ZM24.0741 30.3671L20.4074 26.3671L21.9541 24.8205L24.0741 26.9405L28.8608 22.1538L30.4074 24.0338L24.0741 30.3671Z" fill="#687AF6"/>
</svg>
