<svg width="33" height="33" viewBox="0 0 33 33" fill="none" xmlns="http://www.w3.org/2000/svg">
<path d="M30.1851 13.2222C30.1358 10.2195 29.9051 8.48483 28.7931 7.2395C28.567 6.98654 28.3194 6.75367 28.0531 6.5435C26.3798 5.22217 23.8731 5.22217 18.8598 5.22217H14.8571C9.84377 5.22217 7.3371 5.22217 5.66243 6.54217C5.39605 6.75276 5.14845 6.98608 4.92243 7.2395C3.51843 8.81283 3.51843 11.1728 3.51843 15.8888C3.51843 20.6048 3.51843 22.9635 4.92243 24.5382C5.14821 24.7906 5.39488 25.0226 5.66243 25.2342C7.3371 26.5555 9.84377 26.5555 14.8571 26.5555H15.5184" stroke="#687AF6" stroke-width="1.5" stroke-linecap="round" stroke-linejoin="round"/>
<path d="M3.51843 11.8888H30.1851" stroke="#687AF6" stroke-width="1.5" stroke-linejoin="round"/>
<path d="M26.6291 17.2222L27.7278 18.2328C27.9664 18.4675 28.0851 18.5848 28.0438 18.6848C28.0024 18.7848 27.8318 18.7848 27.4944 18.7848H23.3558C21.2358 18.7848 19.5184 20.4728 19.5184 22.5555C19.5184 23.0248 19.6064 23.4755 19.7651 23.8888M23.0744 27.8888L21.9758 26.8782C21.7371 26.6435 21.6184 26.5262 21.6598 26.4262C21.7011 26.3262 21.8718 26.3262 22.2091 26.3262H26.3478C28.4678 26.3262 30.1851 24.6382 30.1851 22.5555C30.1851 22.0862 30.0971 21.6355 29.9384 21.2222" stroke="#687AF6" stroke-width="1.5" stroke-linecap="round" stroke-linejoin="round"/>
</svg>
