<svg width="33" height="33" viewBox="0 0 33 33" fill="none" xmlns="http://www.w3.org/2000/svg">
<path d="M9.70374 7.82056C10.256 7.82056 10.7037 7.37284 10.7037 6.82056C10.7037 6.26827 10.256 5.82056 9.70374 5.82056C9.15145 5.82056 8.70374 6.26827 8.70374 6.82056C8.70374 7.37284 9.15145 7.82056 9.70374 7.82056Z" fill="#687AF6"/>
<path d="M26.7037 2.82056H6.70374C6.1733 2.82056 5.66459 3.03127 5.28952 3.40634C4.91445 3.78142 4.70374 4.29012 4.70374 4.82056V8.82056C4.70374 9.35099 4.91445 9.8597 5.28952 10.2348C5.66459 10.6098 6.1733 10.8206 6.70374 10.8206H15.7037V14.8206H17.7037V10.8206H26.7037C27.2342 10.8206 27.7429 10.6098 28.1179 10.2348C28.493 9.8597 28.7037 9.35099 28.7037 8.82056V4.82056C28.7037 4.29012 28.493 3.78142 28.1179 3.40634C27.7429 3.03127 27.2342 2.82056 26.7037 2.82056ZM26.7037 8.82056H6.70374V4.82056H26.7037V8.82056ZM17.7037 28.8206V26.8206H15.7037V28.8206H4.70374V30.8206H28.7037V28.8206H17.7037Z" fill="#687AF6"/>
<path d="M9.70374 21.8206C10.256 21.8206 10.7037 21.3728 10.7037 20.8206C10.7037 20.2683 10.256 19.8206 9.70374 19.8206C9.15145 19.8206 8.70374 20.2683 8.70374 20.8206C8.70374 21.3728 9.15145 21.8206 9.70374 21.8206Z" fill="#687AF6"/>
<path d="M6.70374 24.8206H26.7037C27.2342 24.8206 27.7429 24.6098 28.1179 24.2348C28.493 23.8597 28.7037 23.351 28.7037 22.8206V18.8206C28.7037 18.2901 28.493 17.7814 28.1179 17.4063C27.7429 17.0313 27.2342 16.8206 26.7037 16.8206H6.70374C6.1733 16.8206 5.66459 17.0313 5.28952 17.4063C4.91445 17.7814 4.70374 18.2901 4.70374 18.8206V22.8206C4.70374 23.351 4.91445 23.8597 5.28952 24.2348C5.66459 24.6098 6.1733 24.8206 6.70374 24.8206ZM6.70374 18.8206H26.7037V22.8206H6.70374V18.8206Z" fill="#687AF6"/>
</svg>
