<svg width="33" height="33" viewBox="0 0 33 33" fill="none" xmlns="http://www.w3.org/2000/svg">
<path fill-rule="evenodd" clip-rule="evenodd" d="M22.4062 26.377C26.6081 26.377 30 24.6895 30 22.1582V6.12695C30 4.43945 26.625 2.75195 22.4062 2.75195C18.1875 2.75195 14.8125 4.43945 14.8125 6.12695V12.0332C16.7869 12.8601 18.4744 14.2438 19.6725 15.9988C20.4994 16.1608 21.4106 16.2503 22.4062 16.2503C24.6169 16.2503 26.4563 15.8098 27.7725 15.0926C27.9594 14.9899 28.1413 14.8784 28.3176 14.7585V17.0873C28.3176 17.4838 28.002 18.0998 26.9642 18.6668C25.9584 19.2152 24.4161 19.6185 22.4079 19.6185C22.0063 19.6185 21.6238 19.6033 21.2604 19.573C21.3954 20.1276 21.4854 20.6957 21.5304 21.2773C21.8151 21.2931 22.1076 21.301 22.4079 21.301C24.6186 21.301 26.4579 20.8605 27.7742 20.1433C27.9611 20.0406 28.1429 19.9291 28.3192 19.8092V22.138C28.3192 22.5362 28.0678 23.1268 26.9844 23.7107C25.9179 24.2845 24.3182 24.6692 22.4113 24.6692C22.0232 24.6692 21.6474 24.6535 21.2841 24.622C21.1543 25.1828 20.98 25.7325 20.7626 26.2656C21.2936 26.3252 21.8426 26.355 22.4096 26.355L22.4062 26.377ZM26.9625 13.6195C28.0003 13.0525 28.3159 12.4365 28.3159 12.04V9.7112C28.1415 9.83045 27.9598 9.94183 27.7708 10.0453C26.4579 10.7625 24.6152 11.203 22.4046 11.203C20.1939 11.203 18.3546 10.7625 17.0383 10.0453C16.8514 9.94262 16.6696 9.83112 16.4932 9.7112V12.04C16.4932 12.4365 16.8088 13.0525 17.8466 13.6178C18.8524 14.1662 20.3948 14.5695 22.4029 14.5695C24.411 14.5695 25.9466 14.1662 26.9591 13.6178L26.9625 13.6195ZM16.5 6.9707C16.5 6.4847 16.7109 6.01727 17.1041 5.73208C17.3184 5.57683 17.5513 5.42158 17.7353 5.3372C18.1959 5.12458 20.5027 4.43777 22.4096 4.43777C24.3165 4.43777 25.9703 4.82083 27.084 5.3372C27.2933 5.43339 27.5244 5.58358 27.7286 5.73208C28.1184 6.01389 28.3192 6.47795 28.3192 6.95889V6.96902C28.3192 7.36558 28.0037 7.98152 26.9659 8.54852C25.9601 9.09695 24.4177 9.50027 22.4096 9.50027C20.4015 9.50027 18.8659 9.09527 17.8534 8.54852C16.8156 7.9832 16.5 7.36558 16.5 6.9707Z" fill="#687AF6"/>
<path fill-rule="evenodd" clip-rule="evenodd" d="M18.1875 22.1582C18.1875 26.3601 14.7956 29.752 10.5938 29.752C6.39188 29.752 3 26.3601 3 22.1582C3 17.9563 6.39188 14.5645 10.5938 14.5645C14.7956 14.5645 18.1875 17.9563 18.1875 22.1582ZM16.5 22.1582C16.5 25.4151 13.8506 28.0645 10.5938 28.0645C7.33687 28.0645 4.6875 25.4151 4.6875 22.1582C4.6875 18.9013 7.33687 16.252 10.5938 16.252C13.8506 16.252 16.5 18.9013 16.5 22.1582Z" fill="#687AF6"/>
</svg>
