<svg width="33" height="32" viewBox="0 0 33 32" fill="none" xmlns="http://www.w3.org/2000/svg">
<path d="M7.6644 3.2245C7.74327 3.05394 7.76428 2.8623 7.72423 2.6787C7.68419 2.49511 7.58528 2.32961 7.44256 2.20739C7.29983 2.08516 7.12109 2.01289 6.93352 2.00157C6.74596 1.99024 6.55982 2.04049 6.40343 2.14465L6.39998 2.14638L6.3948 2.14983L6.37928 2.16018L6.32752 2.19468L6.15157 2.32405C5.9564 2.47194 5.76653 2.62672 5.58232 2.78808C5.14762 3.16758 4.587 3.73165 4.18852 4.4044C3.84023 4.9619 3.56103 5.55969 3.35708 6.1846C3.15008 6.80388 3 7.4749 3 8.03725C3 9.50868 3.5451 10.7628 4.39553 11.5321L4.28512 11.6597C3.80212 12.2531 3.52095 13.0225 3.345 13.7815C3 15.2822 3 17.0866 3 18.3441V18.3872C3 23.1948 3.65378 25.922 4.3731 27.4814C4.73535 28.2663 5.12002 28.7666 5.45295 29.0805C5.62028 29.2392 5.77208 29.3479 5.898 29.4221C5.9715 29.4662 6.04818 29.5049 6.12742 29.5376C6.12742 29.5376 6.32235 29.5997 6.45 29.5997C6.57765 29.5997 6.77257 29.5376 6.77257 29.5376C6.85182 29.5049 6.9285 29.4662 7.002 29.4221C7.16229 29.3247 7.31152 29.2102 7.44705 29.0805C7.77998 28.7648 8.16465 28.2663 8.5269 27.4814C9.24622 25.922 9.9 23.1948 9.9 18.3872V18.3441C9.9 17.0849 9.9 15.2822 9.555 13.7815C9.37905 13.0225 9.09788 12.2531 8.61488 11.6597L8.50448 11.5321C9.3549 10.7628 9.9 9.50868 9.9 8.03725C9.9 6.83493 9.65678 6.00865 9.2169 5.34798C9.02118 5.06424 8.79564 4.80227 8.54415 4.56655L8.2509 4.29055C8.14568 4.19223 8.04908 4.10253 7.92315 3.9766C7.6644 3.71785 7.63507 3.51085 7.63507 3.40218C7.63439 3.34169 7.64432 3.28156 7.6644 3.2245ZM8.175 8.03725C8.175 9.883 7.11585 10.623 6.45345 10.6248H6.45C5.78588 10.6248 4.725 9.88645 4.725 8.03725C4.725 7.73883 4.8147 7.26618 4.9941 6.73143C5.15717 6.22642 5.38258 5.74372 5.66513 5.2945C5.8152 5.04093 6.01013 4.79425 6.22058 4.56828C6.33788 4.77988 6.49887 4.98975 6.70357 5.1979C6.8295 5.32383 6.99337 5.47563 7.1331 5.60673L7.347 5.80683C7.52812 5.98278 7.66785 6.1363 7.77997 6.30708C7.98697 6.61585 8.175 7.08333 8.175 8.03725ZM5.02688 14.1696C5.17523 13.5245 5.37877 13.0484 5.622 12.75C5.71661 12.6213 5.84113 12.5176 5.98479 12.4479C6.12846 12.3782 6.28694 12.3445 6.44655 12.3498H6.45C6.81225 12.3498 7.06065 12.4843 7.278 12.75C7.52122 13.0484 7.7265 13.5245 7.87312 14.1696C8.17155 15.4599 8.175 17.0814 8.175 18.3872C8.175 23.0672 7.53503 25.5149 6.9606 26.7587C6.77085 27.1675 6.59317 27.4401 6.45 27.6212C6.2455 27.3554 6.07404 27.0658 5.9394 26.7587C5.36497 25.5149 4.725 23.0672 4.725 18.3872C4.725 17.0814 4.72845 15.4599 5.02688 14.1696ZM15.075 20.9747C13.8416 20.9747 12.6669 20.716 11.6077 20.2502C11.6307 19.6361 11.6423 18.9979 11.6423 18.3355C12.6871 18.9346 13.8706 19.2498 15.075 19.2498V15.7998C15.075 14.8848 15.4385 14.0072 16.0855 13.3602C16.7325 12.7132 17.61 12.3498 18.525 12.3498H21.975C21.9752 11.1245 21.6491 9.92134 21.0303 8.86386C20.4115 7.80639 19.5222 6.93276 18.454 6.33276C17.3857 5.73276 16.1769 5.42803 14.9519 5.4499C13.7268 5.47176 12.5297 5.81942 11.4836 6.45715C11.376 5.87832 11.1793 5.31968 10.9005 4.80115C12.2137 4.07483 13.6936 3.7037 15.1942 3.72444C16.6947 3.74517 18.1638 4.15705 19.4564 4.91938C20.7491 5.6817 21.8204 6.7681 22.5646 8.07122C23.3089 9.37434 23.7002 10.8491 23.7 12.3498H27.15C28.065 12.3498 28.9425 12.7132 29.5895 13.3602C30.2365 14.0072 30.6 14.8848 30.6 15.7998V24.4247C30.6 25.3397 30.2365 26.2173 29.5895 26.8643C28.9425 27.5113 28.065 27.8747 27.15 27.8747H18.525C17.61 27.8747 16.7325 27.5113 16.0855 26.8643C15.4385 26.2173 15.075 25.3397 15.075 24.4247V20.9747ZM23.5275 14.0747C23.1874 15.7314 22.3687 17.2518 21.1728 18.4476C19.977 19.6434 18.4566 20.4621 16.8 20.8022V24.4247C16.8 24.8822 16.9817 25.321 17.3052 25.6445C17.6287 25.968 18.0675 26.1497 18.525 26.1497H27.15C27.6075 26.1497 28.0463 25.968 28.3698 25.6445C28.6933 25.321 28.875 24.8822 28.875 24.4247V15.7998C28.875 15.3423 28.6933 14.9035 28.3698 14.58C28.0463 14.2565 27.6075 14.0747 27.15 14.0747H23.5275ZM21.7577 14.0747H18.525C18.0675 14.0747 17.6287 14.2565 17.3052 14.58C16.9817 14.9035 16.8 15.3423 16.8 15.7998V19.0324C17.9931 18.7227 19.0818 18.0998 19.9535 17.2282C20.8251 16.3566 21.448 15.2679 21.7577 14.0747Z" fill="#687AF6"/>
</svg>
