<svg width="21" height="21" viewBox="0 0 21 21" fill="none" xmlns="http://www.w3.org/2000/svg">
<g clip-path="url(#clip0_14_1937)">
<rect width="19.6667" height="19.6667" transform="translate(0.666504 0.375)" fill="white" fill-opacity="0.01"/>
<path d="M11.0757 3.29443C11.1781 3.29443 11.2299 3.34543 11.23 3.44775V9.47803H16.9526C17.0551 9.47803 17.1069 9.52989 17.1069 9.63232V10.7847C17.1069 10.887 17.055 10.938 16.9526 10.938H11.23V16.9683C11.23 17.0707 11.1781 17.1226 11.0757 17.1226H9.92334C9.82113 17.1225 9.77002 17.0706 9.77002 16.9683V10.938H4.04639C3.94423 10.9379 3.89312 10.8869 3.89307 10.7847V9.63232C3.89307 9.53 3.94417 9.47814 4.04639 9.47803H9.77002V3.44775C9.77007 3.34554 9.82118 3.29454 9.92334 3.29443H11.0757Z" fill="#272934"/>
</g>
<defs>
<clipPath id="clip0_14_1937">
<rect width="19.6667" height="19.6667" fill="white" transform="translate(0.666504 0.375)"/>
</clipPath>
</defs>
</svg>
