<svg width="33" height="33" viewBox="0 0 33 33" fill="none" xmlns="http://www.w3.org/2000/svg">
<path d="M25.9445 4.18484C25.1785 4.18484 24.4285 4.48184 23.8505 5.05984L13.9445 14.9348L13.7255 15.1538L13.6635 15.4668L12.9755 18.9668L12.6635 20.4348L14.1325 20.1228L17.6325 19.4348L17.9445 19.3728L18.1635 19.1538L28.0385 9.24784C28.4523 8.8329 28.7341 8.30472 28.8483 7.72987C28.9624 7.15503 28.9038 6.55927 28.6798 6.01768C28.4559 5.47609 28.0766 5.01293 27.5898 4.68657C27.103 4.36022 26.5305 4.18629 25.9445 4.18484ZM25.9445 6.12284C26.1785 6.12284 26.4095 6.24284 26.6325 6.46584C27.0775 6.91184 27.0775 7.39584 26.6325 7.84084L16.9445 17.5298L15.2255 17.8738L15.5695 16.1548L25.2575 6.46684C25.4795 6.24484 25.7105 6.12284 25.9445 6.12284ZM4.94446 8.15384V28.1538H24.9445V14.9658L22.9445 16.9658V26.1538H6.94446V10.1538H16.1325L18.1325 8.15384H4.94446Z" fill="#687AF6"/>
</svg>
