<svg width="33" height="33" viewBox="0 0 33 33" fill="none" xmlns="http://www.w3.org/2000/svg">
<path d="M16.4041 25.6626H6.61619C6.15809 25.6626 5.71875 25.4806 5.39482 25.1567C5.0709 24.8327 4.88892 24.3934 4.88892 23.9353V8.96556C4.88892 8.50746 5.0709 8.06812 5.39482 7.74419C5.71875 7.42026 6.15809 7.23828 6.61619 7.23828H26.1919C26.65 7.23828 27.0894 7.42026 27.4133 7.74419C27.7372 8.06812 27.9192 8.50746 27.9192 8.96556V15.9086" stroke="#687AF6" stroke-width="2" stroke-linecap="round" stroke-linejoin="round"/>
<path d="M4.88892 8.96556C4.88892 8.50746 5.0709 8.06812 5.39482 7.74419C5.71875 7.42026 6.15809 7.23828 6.61619 7.23828H26.1919C26.65 7.23828 27.0894 7.42026 27.4133 7.74419C27.7372 8.06812 27.9192 8.50746 27.9192 8.96556V14.1474H4.88892V8.96556Z" stroke="#687AF6" stroke-width="2"/>
<path d="M7.19196 10.6935C7.19196 10.0575 7.70752 9.54193 8.34348 9.54193C8.97944 9.54193 9.495 10.0575 9.495 10.6935C9.495 11.3294 8.97944 11.845 8.34348 11.845C7.70752 11.845 7.19196 11.3294 7.19196 10.6935Z" fill="#687AF6"/>
<path d="M10.6467 10.6935C10.6467 10.0575 11.1622 9.54193 11.7982 9.54193C12.4342 9.54193 12.9497 10.0575 12.9497 10.6935C12.9497 11.3294 12.4342 11.845 11.7982 11.845C11.1622 11.845 10.6467 11.3294 10.6467 10.6935Z" fill="#687AF6"/>
<path d="M23.889 23.9358C24.843 23.9358 25.6163 23.1624 25.6163 22.2085C25.6163 21.2545 24.843 20.4812 23.889 20.4812C22.9351 20.4812 22.1617 21.2545 22.1617 22.2085C22.1617 23.1624 22.9351 23.9358 23.889 23.9358Z" stroke="#687AF6" stroke-width="2"/>
<path d="M23.8889 26.2384V23.9353M23.8889 20.4808V18.1777M20.3987 24.2232L22.3931 23.0717M25.3847 21.3444L27.3792 20.1929M20.3987 20.1929L22.3931 21.3444M25.3847 23.0717L27.3792 24.2232" stroke="#687AF6" stroke-width="2" stroke-linecap="round" stroke-linejoin="round"/>
</svg>
