<svg width="33" height="32" viewBox="0 0 33 32" fill="none" xmlns="http://www.w3.org/2000/svg">
<path d="M5.84824 18.523V6.37654C5.84824 5.74624 6.09862 5.14176 6.54431 4.69607C6.99 4.25038 7.59448 4 8.22478 4H24.3852C25.0155 4 25.62 4.25038 26.0657 4.69607C26.5114 5.14176 26.7618 5.74624 26.7618 6.37654V18.523M5.84824 18.523H26.7618M5.84824 18.523L4.0896 24.7424C3.98972 25.0958 3.97308 25.4675 4.041 25.8284C4.10892 26.1893 4.25954 26.5295 4.48104 26.8224C4.70255 27.1153 4.98892 27.3528 5.31767 27.5164C5.64642 27.6801 6.00861 27.7653 6.37583 27.7654H26.2342C26.6014 27.7653 26.9636 27.6801 27.2923 27.5164C27.6211 27.3528 27.9074 27.1153 28.129 26.8224C28.3505 26.5295 28.5011 26.1893 28.569 25.8284C28.6369 25.4675 28.6203 25.0958 28.5204 24.7424L26.7618 18.523" stroke="#687AF6" stroke-width="1.8"/>
<path d="M15.1167 24.2006H17.4932M18.6815 8.75311L21.058 11.1296L18.6815 13.5062M13.9284 8.75311L11.5519 11.1296L13.9284 13.5062" stroke="#687AF6" stroke-width="1.8" stroke-linecap="round" stroke-linejoin="round"/>
</svg>
