<svg width="33" height="33" viewBox="0 0 33 33" fill="none" xmlns="http://www.w3.org/2000/svg">
<path d="M7.87696 26.8205C7.26273 26.8205 6.75029 26.6152 6.33962 26.2045C5.92896 25.7938 5.72318 25.281 5.72229 24.6659V20.1538H7.05562V24.6672C7.05562 24.8716 7.14096 25.0596 7.31162 25.2312C7.48229 25.4027 7.67029 25.4881 7.87562 25.4872H12.389V26.8205H7.87696ZM20.389 26.8205V25.4872H24.9023C25.1067 25.4872 25.2947 25.4018 25.4663 25.2312C25.6378 25.0605 25.7232 24.8721 25.7223 24.6659V20.1538H27.0556V24.6672C27.0556 25.2805 26.8503 25.7925 26.4396 26.2032C26.029 26.6139 25.5161 26.8196 24.901 26.8205H20.389ZM5.72229 12.1538V7.64185C5.72229 7.02763 5.92807 6.51518 6.33962 6.10452C6.75118 5.69385 7.26362 5.48807 7.87696 5.48718H12.389V6.82052H7.87696C7.67162 6.82052 7.48318 6.90585 7.31162 7.07652C7.14007 7.24718 7.05473 7.43563 7.05562 7.64185V12.1538H5.72229ZM25.7223 12.1538V7.64185C25.7223 7.43652 25.637 7.24807 25.4663 7.07652C25.2956 6.90496 25.1072 6.81963 24.901 6.82052H20.389V5.48718H24.9023C25.5156 5.48718 26.0276 5.69296 26.4383 6.10452C26.849 6.51607 27.0547 7.02852 27.0556 7.64185V12.1538H25.7223ZM16.389 21.4872C14.9036 21.4872 13.6436 20.9699 12.609 19.9352C11.5734 18.8987 11.0556 17.6383 11.0556 16.1538C11.0556 14.6694 11.5734 13.4094 12.609 12.3738C13.6445 11.3383 14.9045 10.8205 16.389 10.8205C17.8734 10.8205 19.1338 11.3383 20.1703 12.3738C21.2067 13.4094 21.7241 14.6694 21.7223 16.1538C21.7205 17.6383 21.2032 18.8987 20.1703 19.9352C19.1374 20.9716 17.877 21.489 16.389 21.4872Z" fill="#687AF6"/>
</svg>
