<svg width="33" height="32" viewBox="0 0 33 32" fill="none" xmlns="http://www.w3.org/2000/svg">
<path d="M11.4286 28.1428H5.85715C5.3646 28.1428 4.89223 27.9471 4.54395 27.5989C4.19566 27.2506 4 26.7782 4 26.2857V15.1428C4 14.6502 4.19566 14.1779 4.54395 13.8296C4.89223 13.4813 5.3646 13.2856 5.85715 13.2856H11.4286C11.9211 13.2856 12.3935 13.4813 12.7418 13.8296C13.0901 14.1779 13.2858 14.6502 13.2858 15.1428V26.2857C13.2858 26.7782 13.0901 27.2506 12.7418 27.5989C12.3935 27.9471 11.9211 28.1428 11.4286 28.1428ZM5.85715 15.1428V26.2857H11.4286V15.1428H5.85715Z" fill="#687AF6"/>
<path d="M28.1429 4H7.71421C7.22166 4 6.74929 4.19566 6.401 4.54395C6.05272 4.89223 5.85706 5.3646 5.85706 5.85715V11.4286H7.71421V5.85715H28.1429V18.8572H15.1428V20.7143H17V24.4286H15.1428V26.2857H23.5V24.4286H18.8571V20.7143H28.1429C28.6354 20.7143 29.1078 20.5186 29.4561 20.1704C29.8043 19.8221 30 19.3497 30 18.8572V5.85715C30 5.3646 29.8043 4.89223 29.4561 4.54395C29.1078 4.19566 28.6354 4 28.1429 4Z" fill="#687AF6"/>
</svg>
