<svg width="33" height="33" viewBox="0 0 33 33" fill="none" xmlns="http://www.w3.org/2000/svg">
<path d="M5.424 28.9487C4.733 28.9487 4.1565 28.7177 3.6945 28.2557C3.2325 27.7937 3.001 27.2167 3 26.5247V11.8727C3 11.1817 3.2315 10.6052 3.6945 10.1432C4.1575 9.68123 4.7335 9.44973 5.4225 9.44873H12V7.37123C12 6.68123 12.2315 6.10473 12.6945 5.64173C13.1575 5.17873 13.734 4.94773 14.424 4.94873H18.5775C19.2675 4.94873 19.844 5.17973 20.307 5.64173C20.77 6.10373 21.001 6.68023 21 7.37123V9.44873H27.5775C28.2675 9.44873 28.8435 9.68023 29.3055 10.1432C29.7675 10.6062 29.999 11.1827 30 11.8727V26.5262C30 27.2162 29.7685 27.7927 29.3055 28.2557C28.8425 28.7187 28.2665 28.9497 27.5775 28.9487H5.424ZM13.5 9.44873H19.5V7.37123C19.5 7.14123 19.404 6.92973 19.212 6.73673C19.02 6.54373 18.8085 6.44773 18.5775 6.44873H14.4225C14.1925 6.44873 13.981 6.54473 13.788 6.73673C13.595 6.92873 13.499 7.14023 13.5 7.37123V9.44873ZM28.5 20.6987H19.5V21.7367C19.5 22.0847 19.385 22.3737 19.155 22.6037C18.925 22.8337 18.636 22.9487 18.288 22.9487H14.712C14.364 22.9487 14.075 22.8337 13.845 22.6037C13.615 22.3737 13.5 22.0847 13.5 21.7367V20.6987H4.5V26.5262C4.5 26.7562 4.596 26.9677 4.788 27.1607C4.98 27.3537 5.1915 27.4497 5.4225 27.4487H27.5775C27.8075 27.4487 28.019 27.3527 28.212 27.1607C28.405 26.9687 28.501 26.7567 28.5 26.5247V20.6987ZM15 21.4487H18V18.4487H15V21.4487ZM4.5 19.1987H13.5V18.1607C13.5 17.8127 13.615 17.5237 13.845 17.2937C14.075 17.0637 14.364 16.9487 14.712 16.9487H18.288C18.636 16.9487 18.925 17.0637 19.155 17.2937C19.385 17.5237 19.5 17.8127 19.5 18.1607V19.1987H28.5V11.8727C28.5 11.6417 28.404 11.4297 28.212 11.2367C28.02 11.0437 27.8085 10.9477 27.5775 10.9487H5.4225C5.1925 10.9487 4.981 11.0447 4.788 11.2367C4.595 11.4287 4.499 11.6407 4.5 11.8727V19.1987Z" fill="#687AF6"/>
</svg>
