<svg width="33" height="33" viewBox="0 0 33 33" fill="none" xmlns="http://www.w3.org/2000/svg">
<path d="M12.2845 15.6002V19.1507M15.2433 6.13223C10.237 6.13223 7.73394 6.13223 6.07468 7.55006C5.83798 7.75205 5.61903 7.97099 5.41783 8.20691C4 9.86617 4 12.3693 4 17.3755C4 22.3817 4 24.8848 5.41783 26.5441C5.61982 26.7808 5.83876 26.9997 6.07468 27.2009C7.73394 28.6187 10.237 28.6187 15.2433 28.6187C20.2495 28.6187 22.7526 28.6187 24.4118 27.2009C24.6485 26.9989 24.8675 26.78 25.0687 26.5441C26.4865 24.8848 26.4865 22.3817 26.4865 17.3755M15.835 12.0497V22.7012M19.3855 14.4167V20.3342M8.734 16.7837V17.9672M19.8447 8.6022C20.6566 8.50068 21.4115 8.13153 21.9902 7.55306C22.5689 6.9746 22.9383 6.2198 23.0401 5.40793C23.0709 5.15584 23.2733 4.94873 23.5278 4.94873C23.7822 4.94873 23.9846 5.15584 24.0165 5.40793C24.118 6.21984 24.4872 6.97477 25.0657 7.55345C25.6441 8.13213 26.3989 8.50157 27.2108 8.60338C27.4629 8.63415 27.67 8.83653 27.67 9.09098C27.67 9.34543 27.4629 9.54781 27.2108 9.57977C26.3989 9.68128 25.644 10.0504 25.0653 10.6289C24.4866 11.2074 24.1172 11.9622 24.0154 12.774C23.9846 13.0261 23.7822 13.2332 23.5278 13.2332C23.2733 13.2332 23.0709 13.0261 23.039 12.774C22.9375 11.9621 22.5683 11.2072 21.9898 10.6285C21.4114 10.0498 20.6566 9.68039 19.8447 9.57858C19.5926 9.549 19.3855 9.34662 19.3855 9.09098C19.3855 8.83534 19.5926 8.63415 19.8447 8.6022Z" stroke="#687AF6" stroke-width="1.5" stroke-linecap="round" stroke-linejoin="round"/>
</svg>
