<svg width="33" height="33" viewBox="0 0 33 33" fill="none" xmlns="http://www.w3.org/2000/svg">
<path d="M21.7913 22.5411C22.8798 22.4498 23.7199 21.5076 23.6665 20.3828C23.6074 19.258 22.6698 18.3555 21.5325 18.3555H21.4537C20.8873 18.3755 20.3521 18.616 19.9659 19.0242C19.5796 19.4324 19.3738 19.9748 19.3938 20.5323C19.4323 21.1238 19.676 21.599 20.0136 21.9496C18.7 24.4586 16.7366 26.3004 13.7532 27.8516C11.7514 28.8804 9.63615 29.2698 7.57623 28.9912C5.85197 28.7559 4.50463 27.9974 3.67954 26.7803C2.44284 24.9347 2.33033 22.9499 3.36169 20.9558C4.11272 19.5191 5.2369 18.4653 5.98324 17.9514C5.75898 17.3331 5.58436 16.6984 5.46099 16.0533C-0.0858853 19.9611 0.480429 25.3103 2.16531 27.834C3.42076 29.6795 5.98324 30.857 8.79137 30.857C9.54427 30.857 10.33 30.8044 11.0969 30.6161C15.9716 29.6934 19.6582 26.819 21.7716 22.5808L21.7913 22.5411ZM28.4764 17.9329C25.5764 14.5778 21.3028 12.7323 16.4347 12.7323H15.7944C15.4821 12.054 14.7489 11.6277 13.9238 11.6277H13.8704C12.689 11.6277 11.7701 12.6271 11.8086 13.7861C11.8489 14.8906 12.7996 15.8133 13.9426 15.8133H14.0363C14.4419 15.7972 14.8342 15.6668 15.1666 15.4377C15.4991 15.2085 15.7576 14.8902 15.9116 14.5206H16.6044C19.4913 14.5206 22.2216 15.352 24.7166 16.9723C26.6209 18.206 27.9935 19.8319 28.7596 21.7679C29.4337 23.3485 29.3943 24.9015 28.7005 26.1943C27.6363 28.217 25.8342 29.2883 23.4612 29.2883C21.9619 29.2883 20.5021 28.8269 19.7492 28.4956C19.3001 28.8611 18.5481 29.471 18.0052 29.8419C19.6563 30.5765 21.3215 31 22.9333 31C26.5862 31 29.3015 28.9764 30.3319 27.0211C31.4542 24.8102 31.3624 21.085 28.4952 17.8941L28.4764 17.9329ZM9.10922 23.2046C9.13484 23.7475 9.37077 24.2602 9.76853 24.6372C10.1663 25.0142 10.6957 25.227 11.2479 25.2319H11.322C11.6035 25.2253 11.8808 25.1634 12.1377 25.0498C12.3946 24.9362 12.6258 24.7732 12.8177 24.5704C13.0096 24.3676 13.1584 24.129 13.2553 23.8688C13.3522 23.6086 13.3952 23.3319 13.3819 23.0551C13.3819 21.9487 12.4105 21.026 11.2676 21.026H11.1888C11.1166 21.026 11.0041 21.026 10.9066 21.0656C9.35393 18.4847 8.69855 15.7164 8.94232 12.7313C9.08953 10.4826 9.84149 8.53098 11.1888 6.90693C12.313 5.52742 14.4264 4.83997 15.8722 4.80675C19.9161 4.72924 21.6056 9.69365 21.7331 11.6646L23.6084 12.2174C23.1733 6.1715 19.3554 3 15.7025 3C12.2746 3 9.10922 5.45083 7.83501 9.04587C6.09575 13.8433 7.23869 18.4469 9.37269 22.1379C9.18798 22.3732 9.07547 22.8013 9.10922 23.2046Z" fill="#687AF6"/>
</svg>
